{"glyphs":{"0":{"ha":794,"x_min":28,"x_max":779,"o":"m 494 944 q 715 853 650 944 q 779 589 779 761 q 727 281 779 422 q 569 56 675 140 q 313 -29 464 -29 q 92 63 157 -29 q 28 326 28 154 q 80 634 28 493 q 238 860 132 775 q 494 944 343 944 m 468 833 q 361 740 400 833 q 294 435 322 646 q 274 199 274 274 q 288 113 274 142 q 342 83 301 83 q 449 177 410 83 q 515 482 488 271 q 535 718 535 632 q 522 805 535 776 q 468 833 508 833 z "},"1":{"ha":794,"x_min":0,"x_max":750,"o":"m 731 181 q 750 101 750 153 q 709 15 750 40 q 579 -10 668 -10 q 396 -6 511 -10 q 110 0 201 0 q 6 -6 44 0 q 0 43 0 17 q 28 133 0 100 q 111 165 57 165 l 256 165 l 372 689 q 200 633 292 633 q 114 670 144 633 q 76 769 83 707 q 313 824 190 786 q 606 932 436 863 l 674 890 l 542 165 l 606 165 q 731 181 688 165 z "},"2":{"ha":794,"x_min":25,"x_max":740,"o":"m 381 490 q 476 654 476 568 q 344 749 476 749 q 224 710 272 749 q 164 614 176 672 q 100 645 131 615 q 69 717 69 675 q 122 838 69 786 q 257 917 175 890 q 422 944 339 944 q 649 887 558 944 q 740 708 740 829 q 698 563 740 631 q 563 426 656 496 q 288 246 476 363 q 408 228 342 235 q 529 222 475 222 q 619 232 583 222 q 681 265 656 242 q 717 153 717 213 q 478 -17 717 -17 q 276 6 396 -17 q 144 21 188 21 q 72 0 96 21 q 38 52 51 17 q 25 125 25 88 q 49 207 25 172 q 124 283 72 242 l 381 490 z "},"3":{"ha":794,"x_min":-12,"x_max":751,"o":"m 279 531 q 489 665 489 564 q 449 728 489 706 q 339 750 408 750 q 149 663 239 750 q 100 738 100 672 q 156 853 100 807 q 293 922 211 900 q 454 944 375 944 q 667 896 583 944 q 751 756 751 847 q 691 606 751 672 q 522 501 631 539 q 664 422 615 481 q 713 281 713 364 q 657 124 713 194 q 499 13 601 53 q 263 -28 396 -28 q 59 15 131 -28 q -12 132 -12 58 q 2 197 -12 167 q 42 249 17 228 q 122 175 69 200 q 239 150 175 150 q 381 184 329 150 q 433 281 433 218 q 256 406 433 406 l 279 531 z "},"4":{"ha":794,"x_min":-22,"x_max":781,"o":"m 739 917 q 621 347 679 672 l 651 347 q 760 363 717 349 q 775 328 769 350 q 781 285 781 306 q 741 199 781 231 q 636 168 701 168 l 593 168 l 565 0 l 307 0 l 339 168 l -4 168 q -22 250 -22 214 q -10 322 -22 288 q 26 383 3 357 l 508 917 l 739 917 m 374 347 q 467 713 424 568 l 136 347 l 374 347 z "},"5":{"ha":794,"x_min":8,"x_max":763,"o":"m 569 917 q 750 933 713 917 q 763 864 763 901 q 706 740 763 776 q 549 703 650 703 l 303 703 l 264 571 q 407 578 351 578 q 631 521 546 578 q 717 338 717 464 q 663 156 717 240 q 507 22 608 72 q 271 -28 406 -28 q 85 9 163 -28 q 8 133 8 46 q 21 197 8 167 q 57 249 33 228 q 137 174 89 197 q 251 150 185 150 q 391 185 342 150 q 440 290 440 219 q 388 393 440 367 q 232 419 335 419 q 83 414 161 419 l 214 917 l 569 917 z "},"6":{"ha":794,"x_min":29,"x_max":765,"o":"m 563 944 q 706 914 646 944 q 765 815 765 883 q 752 757 765 785 q 715 711 739 729 q 569 765 663 765 q 394 694 460 765 q 303 500 328 624 q 392 592 343 563 q 513 622 440 622 q 684 552 625 622 q 743 364 743 482 q 689 159 743 249 q 542 21 635 69 q 338 -28 450 -28 q 107 63 185 -28 q 29 314 29 154 q 99 617 29 471 q 290 853 168 763 q 563 944 413 944 m 417 476 q 337 437 368 476 q 292 342 306 397 q 278 236 278 286 q 297 153 278 181 q 354 126 315 126 q 434 166 403 126 q 479 261 465 206 q 493 367 493 317 q 417 476 493 476 z "},"7":{"ha":794,"x_min":54,"x_max":815,"o":"m 815 779 q 651 568 704 653 q 503 308 553 413 q 440 144 454 204 q 425 31 425 83 q 426 1 425 11 q 353 -20 394 -12 q 281 -28 313 -28 q 174 9 213 -28 q 136 114 136 46 q 189 260 136 193 l 546 710 l 268 710 q 110 735 167 710 q 54 835 54 760 q 63 888 54 865 q 88 933 71 910 q 271 917 133 917 l 789 917 l 815 779 z "},"8":{"ha":794,"x_min":22,"x_max":771,"o":"m 522 944 q 700 898 629 944 q 771 758 771 851 q 715 615 771 675 q 576 515 660 554 q 669 433 639 464 q 712 369 699 401 q 725 294 725 338 q 669 124 725 197 q 522 12 614 51 q 321 -28 429 -28 q 108 28 193 -28 q 22 193 22 83 q 231 454 22 353 q 161 535 183 494 q 139 632 139 576 q 192 794 139 724 q 334 905 246 865 q 522 944 422 944 m 490 583 q 567 710 567 628 q 544 781 567 756 q 479 807 522 807 q 406 781 436 807 q 376 711 376 756 q 408 643 376 668 l 490 583 m 314 378 q 243 233 243 325 q 265 149 243 181 q 332 117 288 117 q 410 151 379 117 q 440 231 440 185 q 411 297 440 272 l 314 378 z "},"9":{"ha":794,"x_min":42,"x_max":778,"o":"m 471 944 q 701 853 624 944 q 778 603 778 763 q 709 300 778 446 q 518 63 640 154 q 246 -28 396 -28 q 101 3 161 -28 q 42 101 42 33 q 55 160 42 132 q 92 206 68 188 q 238 151 144 151 q 413 222 347 151 q 504 417 479 293 q 416 324 464 354 q 296 294 368 294 q 123 365 182 294 q 64 553 64 435 q 118 758 64 668 q 265 896 172 847 q 471 944 358 944 m 454 790 q 374 751 406 790 q 328 655 342 711 q 314 550 314 599 q 392 440 314 440 q 472 480 440 440 q 517 575 503 519 q 531 681 531 631 q 454 790 531 790 z "},"\u0000":{"ha":0,"x_min":0,"x_max":0,"o":""},"\r":{"ha":243,"x_min":0,"x_max":0,"o":""}," ":{"ha":243,"x_min":0,"x_max":0,"o":""},"A":{"ha":817,"x_min":-83,"x_max":783,"o":"m 710 240 q 783 56 721 93 q 723 -6 764 17 q 626 -28 682 -28 q 510 12 551 -28 q 450 129 468 51 q 435 222 443 160 l 194 222 q 111 0 144 101 l -83 0 l 354 917 l 665 917 l 710 240 m 408 722 q 258 381 324 535 l 238 332 l 429 332 l 408 722 z "},"Á":{"ha":817,"x_min":-83,"x_max":783,"o":"m 0 0 m 710 240 q 783 56 721 93 q 723 -6 764 17 q 626 -28 682 -28 q 510 12 551 -28 q 450 129 468 51 q 435 222 443 160 l 194 222 q 111 0 144 101 l -83 0 l 354 917 l 665 917 l 710 240 m 408 722 q 258 381 324 535 l 238 332 l 429 332 l 408 722 m 400 1054 l 740 1196 q 769 1165 760 1182 q 779 1121 779 1147 q 724 1024 779 1054 q 582 992 668 994 l 417 986 l 400 1054 z "},"Ă":{"ha":817,"x_min":-83,"x_max":825,"o":"m 0 0 m 710 240 q 783 56 721 93 q 723 -6 764 17 q 626 -28 682 -28 q 510 12 551 -28 q 450 129 468 51 q 435 222 443 160 l 194 222 q 111 0 144 101 l -83 0 l 354 917 l 665 917 l 710 240 m 408 722 q 258 381 324 535 l 238 332 l 429 332 l 408 722 m 488 1158 q 482 1106 482 1119 q 491 1061 482 1081 q 532 1042 500 1042 q 582 1058 564 1042 q 608 1097 600 1075 q 625 1158 615 1119 l 825 1158 q 731 1025 807 1076 q 518 974 654 974 q 340 1016 403 974 q 276 1121 276 1058 q 281 1158 276 1138 l 488 1158 z "},"Â":{"ha":817,"x_min":-83,"x_max":783,"o":"m 0 0 m 710 240 q 783 56 721 93 q 723 -6 764 17 q 626 -28 682 -28 q 510 12 551 -28 q 450 129 468 51 q 435 222 443 160 l 194 222 q 111 0 144 101 l -83 0 l 354 917 l 665 917 l 710 240 m 408 722 q 258 381 324 535 l 238 332 l 429 332 l 408 722 m 753 1018 l 683 954 l 522 1026 l 317 954 l 274 1018 l 506 1179 l 568 1179 l 753 1018 z "},"Ä":{"ha":817,"x_min":-83,"x_max":835,"o":"m 0 0 m 710 240 q 783 56 721 93 q 723 -6 764 17 q 626 -28 682 -28 q 510 12 551 -28 q 450 129 468 51 q 435 222 443 160 l 194 222 q 111 0 144 101 l -83 0 l 354 917 l 665 917 l 710 240 m 408 722 q 258 381 324 535 l 238 332 l 429 332 l 408 722 m 372 1169 q 472 1142 435 1169 q 510 1064 510 1114 q 470 986 510 1014 q 367 958 431 958 q 264 985 303 958 q 225 1061 225 1013 q 267 1141 225 1113 q 372 1169 308 1169 m 697 1169 q 797 1142 760 1169 q 835 1064 835 1114 q 795 986 835 1014 q 692 958 756 958 q 589 985 628 958 q 550 1061 550 1013 q 592 1141 550 1113 q 697 1169 633 1169 z "},"À":{"ha":817,"x_min":-83,"x_max":783,"o":"m 0 0 m 710 240 q 783 56 721 93 q 723 -6 764 17 q 626 -28 682 -28 q 510 12 551 -28 q 450 129 468 51 q 435 222 443 160 l 194 222 q 111 0 144 101 l -83 0 l 354 917 l 665 917 l 710 240 m 408 722 q 258 381 324 535 l 238 332 l 429 332 l 408 722 m 657 988 l 492 993 q 350 1026 406 996 q 294 1122 294 1056 q 304 1166 294 1149 q 333 1197 314 1183 l 674 1056 l 657 988 z "},"Ā":{"ha":817,"x_min":-83,"x_max":783,"o":"m 738 1156 q 743 1117 743 1133 q 716 1053 743 1078 q 638 1028 689 1028 l 313 1028 q 308 1065 308 1040 q 336 1131 310 1106 q 403 1156 363 1156 l 738 1156 m 710 240 q 783 56 721 93 q 723 -6 764 17 q 626 -28 682 -28 q 510 12 551 -28 q 450 129 468 51 q 435 222 443 160 l 194 222 q 111 0 144 101 l -83 0 l 354 917 l 665 917 l 710 240 m 408 722 q 258 381 324 535 l 238 332 l 429 332 l 408 722 z "},"Ą":{"ha":817,"x_min":-83,"x_max":801,"o":"m 776 -207 q 796 -237 790 -224 q 801 -272 801 -251 q 762 -333 801 -308 q 651 -358 722 -358 q 517 -319 565 -358 q 469 -203 469 -279 q 574 -22 469 -90 q 495 28 525 -10 q 450 129 465 67 q 435 222 443 160 l 194 222 q 111 0 144 101 l -83 0 l 354 917 l 665 917 l 710 240 q 783 56 721 93 q 729 -3 768 22 q 654 -82 683 -37 q 625 -171 625 -126 q 690 -242 625 -242 q 776 -207 746 -242 m 429 332 l 408 722 q 258 381 324 535 l 238 332 l 429 332 z "},"Å":{"ha":817,"x_min":-83,"x_max":783,"o":"m 0 0 m 710 240 q 783 56 721 93 q 723 -6 764 17 q 626 -28 682 -28 q 510 12 551 -28 q 450 129 468 51 q 435 222 443 160 l 194 222 q 111 0 144 101 l -83 0 l 354 917 l 665 917 l 710 240 m 408 722 q 258 381 324 535 l 238 332 l 429 332 l 408 722 m 696 1090 q 642 994 696 1031 q 517 958 589 958 q 424 983 458 958 q 389 1054 389 1008 q 443 1150 389 1114 q 571 1186 497 1186 q 662 1161 628 1186 q 696 1090 696 1136 m 601 1086 q 591 1121 601 1110 q 557 1132 581 1132 q 503 1110 522 1132 q 483 1054 483 1089 q 494 1019 483 1031 q 528 1008 504 1008 q 582 1030 563 1008 q 601 1086 601 1051 z "},"Ǻ":{"ha":817,"x_min":-83,"x_max":792,"o":"m 429 1101 l 413 1169 l 753 1311 q 782 1280 772 1297 q 792 1236 792 1263 q 736 1140 792 1169 q 594 1107 681 1110 l 429 1101 m 710 240 q 783 56 721 93 q 723 -6 764 17 q 626 -28 682 -28 q 510 12 551 -28 q 450 129 468 51 q 435 222 443 160 l 194 222 q 111 0 144 101 l -83 0 l 354 917 l 383 917 q 371 961 371 936 q 425 1056 371 1019 q 553 1092 479 1092 q 644 1067 610 1092 q 678 997 678 1042 q 642 917 678 950 l 665 917 l 710 240 m 465 961 q 510 917 465 917 q 564 938 544 917 q 583 993 583 958 q 539 1038 583 1038 q 485 1017 504 1038 q 465 961 465 996 m 429 332 l 408 722 q 258 381 324 535 l 238 332 l 429 332 z "},"Ã":{"ha":817,"x_min":-83,"x_max":794,"o":"m 0 0 m 710 240 q 783 56 721 93 q 723 -6 764 17 q 626 -28 682 -28 q 510 12 551 -28 q 450 129 468 51 q 435 222 443 160 l 194 222 q 111 0 144 101 l -83 0 l 354 917 l 665 917 l 710 240 m 408 722 q 258 381 324 535 l 238 332 l 429 332 l 408 722 m 768 1176 q 794 1106 794 1144 q 759 1029 794 1056 q 661 1003 724 1003 q 508 1017 622 1003 q 378 1028 400 1028 q 324 1021 350 1028 q 285 1004 299 1014 q 257 1083 257 1044 q 292 1152 257 1128 q 394 1176 328 1176 q 482 1171 428 1176 q 551 1164 536 1165 q 685 1153 657 1153 q 768 1176 744 1153 z "},"Æ":{"ha":1053,"x_min":-89,"x_max":1111,"o":"m 243 246 q 126 0 181 121 l -89 0 l 449 917 l 1111 917 q 1065 787 1111 831 q 943 743 1019 743 q 861 753 906 743 q 779 781 817 763 l 746 538 l 1008 538 q 971 422 1008 463 q 865 382 933 382 q 796 390 833 382 q 729 414 758 399 q 713 281 713 328 q 742 193 713 217 q 839 169 771 169 q 982 192 922 169 q 994 125 994 161 q 925 6 994 40 q 754 -28 856 -28 q 538 29 618 -28 q 458 204 458 86 l 460 246 l 243 246 m 535 781 q 296 353 403 565 l 475 353 l 535 781 z "},"Ǽ":{"ha":1053,"x_min":-89,"x_max":1111,"o":"m 0 0 m 243 246 q 126 0 181 121 l -89 0 l 449 917 l 1111 917 q 1065 787 1111 831 q 943 743 1019 743 q 861 753 906 743 q 779 781 817 763 l 746 538 l 1008 538 q 971 422 1008 463 q 865 382 933 382 q 796 390 833 382 q 729 414 758 399 q 713 281 713 328 q 742 193 713 217 q 839 169 771 169 q 982 192 922 169 q 994 125 994 161 q 925 6 994 40 q 754 -28 856 -28 q 538 29 618 -28 q 458 204 458 86 l 460 246 l 243 246 m 535 781 q 296 353 403 565 l 475 353 l 535 781 m 540 1054 l 881 1196 q 910 1165 900 1182 q 919 1121 919 1147 q 864 1024 919 1054 q 722 992 808 994 l 557 986 l 540 1054 z "},"B":{"ha":833,"x_min":-8,"x_max":814,"o":"m 167 917 q 439 924 340 924 q 631 912 553 924 q 762 860 710 900 q 814 740 814 821 q 763 603 814 661 q 631 518 711 546 q 797 308 797 483 q 265 -7 797 -7 q -8 0 150 -7 l 167 917 m 399 535 q 537 587 493 535 q 581 718 581 639 q 554 806 581 779 q 469 833 528 833 q 442 832 451 833 l 383 535 l 399 535 m 299 94 q 328 93 311 93 q 478 152 431 93 q 526 296 526 211 q 487 404 526 372 q 365 440 447 436 l 299 94 z "},"C":{"ha":839,"x_min":29,"x_max":868,"o":"m 589 944 q 788 906 707 944 q 868 776 868 867 q 813 651 868 700 q 679 603 757 603 q 615 613 643 603 q 626 719 626 660 q 611 809 626 772 q 549 846 596 846 q 433 765 483 846 q 355 574 382 685 q 328 378 328 463 q 371 232 328 281 q 507 183 414 183 q 638 210 578 183 q 736 288 697 238 q 765 247 757 272 q 772 197 772 222 q 726 85 772 138 q 594 3 679 33 q 397 -28 508 -28 q 121 66 213 -28 q 29 353 29 160 q 95 653 29 518 q 288 866 161 788 q 589 944 415 944 z "},"Ć":{"ha":839,"x_min":29,"x_max":868,"o":"m 29 0 m 589 944 q 788 906 707 944 q 868 776 868 867 q 813 651 868 700 q 679 603 757 603 q 615 613 643 603 q 626 719 626 660 q 611 809 626 772 q 549 846 596 846 q 433 765 483 846 q 355 574 382 685 q 328 378 328 463 q 371 232 328 281 q 507 183 414 183 q 638 210 578 183 q 736 288 697 238 q 765 247 757 272 q 772 197 772 222 q 726 85 772 138 q 594 3 679 33 q 397 -28 508 -28 q 121 66 213 -28 q 29 353 29 160 q 95 653 29 518 q 288 866 161 788 q 589 944 415 944 m 464 1054 l 804 1196 q 833 1165 824 1182 q 843 1121 843 1147 q 788 1024 843 1054 q 646 992 732 994 l 481 986 l 464 1054 z "},"Č":{"ha":839,"x_min":29,"x_max":868,"o":"m 29 0 m 589 944 q 788 906 707 944 q 868 776 868 867 q 813 651 868 700 q 679 603 757 603 q 615 613 643 603 q 626 719 626 660 q 611 809 626 772 q 549 846 596 846 q 433 765 483 846 q 355 574 382 685 q 328 378 328 463 q 371 232 328 281 q 507 183 414 183 q 638 210 578 183 q 736 288 697 238 q 765 247 757 272 q 772 197 772 222 q 726 85 772 138 q 594 3 679 33 q 397 -28 508 -28 q 121 66 213 -28 q 29 353 29 160 q 95 653 29 518 q 288 866 161 788 q 589 944 415 944 m 375 1122 l 444 1186 l 607 1114 l 813 1186 l 856 1122 l 638 961 l 546 961 l 375 1122 z "},"Ç":{"ha":839,"x_min":29,"x_max":868,"o":"m 679 603 q 615 613 643 603 q 626 719 626 660 q 611 809 626 772 q 549 846 596 846 q 433 765 483 846 q 355 574 382 685 q 328 378 328 463 q 371 232 328 281 q 507 183 414 183 q 638 210 578 183 q 736 288 697 238 q 765 247 757 272 q 772 197 772 222 q 732 93 772 142 q 617 13 692 44 q 446 -26 543 -19 l 429 -81 q 475 -79 444 -79 q 585 -107 543 -79 q 628 -192 628 -135 q 597 -278 628 -240 q 513 -337 565 -315 q 396 -358 460 -358 q 299 -339 335 -358 q 264 -285 264 -319 q 270 -249 264 -267 q 289 -219 276 -231 q 326 -253 303 -242 q 389 -264 350 -264 q 460 -204 460 -264 q 379 -153 460 -153 q 321 -156 360 -153 l 360 -26 q 112 77 194 -17 q 29 353 29 171 q 95 653 29 518 q 288 866 161 788 q 589 944 415 944 q 788 906 707 944 q 868 776 868 867 q 813 651 868 700 q 679 603 757 603 z "},"Ĉ":{"ha":839,"x_min":29,"x_max":868,"o":"m 29 0 m 589 944 q 788 906 707 944 q 868 776 868 867 q 813 651 868 700 q 679 603 757 603 q 615 613 643 603 q 626 719 626 660 q 611 809 626 772 q 549 846 596 846 q 433 765 483 846 q 355 574 382 685 q 328 378 328 463 q 371 232 328 281 q 507 183 414 183 q 638 210 578 183 q 736 288 697 238 q 765 247 757 272 q 772 197 772 222 q 726 85 772 138 q 594 3 679 33 q 397 -28 508 -28 q 121 66 213 -28 q 29 353 29 160 q 95 653 29 518 q 288 866 161 788 q 589 944 415 944 m 817 1018 l 747 954 l 586 1026 l 381 954 l 338 1018 l 569 1179 l 632 1179 l 817 1018 z "},"Ċ":{"ha":839,"x_min":29,"x_max":868,"o":"m 593 1169 q 693 1142 656 1169 q 731 1064 731 1114 q 691 986 731 1014 q 588 958 651 958 q 485 985 524 958 q 446 1061 446 1013 q 488 1141 446 1113 q 593 1169 529 1169 m 589 944 q 788 906 707 944 q 868 776 868 867 q 813 651 868 700 q 679 603 757 603 q 615 613 643 603 q 626 719 626 660 q 611 809 626 772 q 549 846 596 846 q 433 765 483 846 q 355 574 382 685 q 328 378 328 463 q 371 232 328 281 q 507 183 414 183 q 638 210 578 183 q 736 288 697 238 q 765 247 757 272 q 772 197 772 222 q 726 85 772 138 q 594 3 679 33 q 397 -28 508 -28 q 121 66 213 -28 q 29 353 29 160 q 95 653 29 518 q 288 866 161 788 q 589 944 415 944 z "},"D":{"ha":938,"x_min":-10,"x_max":906,"o":"m 167 917 q 418 924 281 924 q 702 894 599 924 q 856 784 806 864 q 906 556 906 704 q 739 134 906 275 q 253 -7 572 -7 q 127 -5 200 -7 q -10 0 54 -3 l 167 917 m 301 97 q 350 93 329 93 q 517 187 457 93 q 610 461 578 281 q 635 688 635 601 q 603 793 635 761 q 500 825 572 825 q 442 821 468 825 l 301 97 z "},"Ǳ":{"ha":1685,"x_min":-10,"x_max":1717,"o":"m 0 0 m 167 917 q 418 924 281 924 q 702 894 599 924 q 856 784 806 864 q 906 556 906 704 q 739 134 906 275 q 253 -7 572 -7 q 127 -5 200 -7 q -10 0 54 -3 l 167 917 m 301 97 q 350 93 329 93 q 517 187 457 93 q 610 461 578 281 q 635 688 635 601 q 603 793 635 761 q 500 825 572 825 q 442 821 468 825 l 301 97 m 1450 667 q 1206 696 1256 696 q 1130 687 1169 696 q 1060 664 1090 678 q 1022 788 1022 722 q 1073 901 1022 864 q 1215 938 1124 938 q 1376 921 1265 938 q 1542 903 1479 903 q 1661 917 1606 903 q 1717 786 1717 869 q 1694 694 1717 733 q 1624 617 1672 656 l 1175 251 q 1298 229 1231 236 q 1425 222 1365 222 q 1517 231 1479 222 q 1581 265 1554 239 q 1609 213 1601 239 q 1617 154 1617 186 q 1566 27 1617 71 q 1392 -17 1515 -17 q 1186 6 1311 -17 q 1054 21 1094 21 q 982 0 1006 21 q 944 60 960 19 q 928 143 928 101 q 1013 301 928 231 l 1450 667 z "},"Ǆ":{"ha":1685,"x_min":-10,"x_max":1717,"o":"m 0 0 m 167 917 q 418 924 281 924 q 702 894 599 924 q 856 784 806 864 q 906 556 906 704 q 739 134 906 275 q 253 -7 572 -7 q 127 -5 200 -7 q -10 0 54 -3 l 167 917 m 301 97 q 350 93 329 93 q 517 187 457 93 q 610 461 578 281 q 635 688 635 601 q 603 793 635 761 q 500 825 572 825 q 442 821 468 825 l 301 97 m 1450 667 q 1206 696 1256 696 q 1130 687 1169 696 q 1060 664 1090 678 q 1022 788 1022 722 q 1073 901 1022 864 q 1215 938 1124 938 q 1376 921 1265 938 q 1542 903 1479 903 q 1661 917 1606 903 q 1717 786 1717 869 q 1694 694 1717 733 q 1624 617 1672 656 l 1175 251 q 1298 229 1231 236 q 1425 222 1365 222 q 1517 231 1479 222 q 1581 265 1554 239 q 1609 213 1601 239 q 1617 154 1617 186 q 1566 27 1617 71 q 1392 -17 1515 -17 q 1186 6 1311 -17 q 1054 21 1094 21 q 982 0 1006 21 q 944 60 960 19 q 928 143 928 101 q 1013 301 928 231 l 1450 667 m 1175 1122 l 1244 1186 l 1407 1114 l 1613 1186 l 1656 1122 l 1438 961 l 1346 961 l 1175 1122 z "},"Ð":{"ha":938,"x_min":-32,"x_max":906,"o":"m 0 0 m 167 917 q 418 924 281 924 q 702 894 599 924 q 856 784 806 864 q 906 556 906 704 q 739 134 906 275 q 253 -7 572 -7 q 127 -5 200 -7 q -10 0 54 -3 l 68 404 l -28 404 q -32 442 -32 417 q -4 507 -31 482 q 63 532 22 532 l 93 532 l 167 917 m 301 97 q 350 93 329 93 q 517 187 457 93 q 610 461 578 281 q 635 688 635 601 q 603 793 635 761 q 500 825 572 825 q 442 821 468 825 l 386 532 l 508 532 q 514 493 514 510 q 487 429 514 454 q 408 404 460 404 l 361 404 l 301 97 z "},"Ď":{"ha":938,"x_min":-10,"x_max":906,"o":"m 0 0 m 167 917 q 418 924 281 924 q 702 894 599 924 q 856 784 806 864 q 906 556 906 704 q 739 134 906 275 q 253 -7 572 -7 q 127 -5 200 -7 q -10 0 54 -3 l 167 917 m 301 97 q 350 93 329 93 q 517 187 457 93 q 610 461 578 281 q 635 688 635 601 q 603 793 635 761 q 500 825 572 825 q 442 821 468 825 l 301 97 m 321 1122 l 390 1186 l 553 1114 l 758 1186 l 801 1122 l 583 961 l 492 961 l 321 1122 z "},"Đ":{"ha":938,"x_min":-32,"x_max":906,"o":"m 167 917 q 418 924 281 924 q 702 894 599 924 q 856 784 806 864 q 906 556 906 704 q 739 134 906 275 q 253 -7 572 -7 q 127 -5 200 -7 q -10 0 54 -3 l 68 404 l -28 404 q -32 442 -32 417 q -4 507 -31 482 q 63 532 22 532 l 93 532 l 167 917 m 301 97 q 350 93 329 93 q 517 187 457 93 q 610 461 578 281 q 635 688 635 601 q 603 793 635 761 q 500 825 572 825 q 442 821 468 825 l 386 532 l 508 532 q 514 493 514 510 q 487 429 514 454 q 408 404 460 404 l 361 404 l 301 97 z "},"Ḍ":{"ha":938,"x_min":-10,"x_max":906,"o":"m 0 0 m 167 917 q 418 924 281 924 q 702 894 599 924 q 856 784 806 864 q 906 556 906 704 q 739 134 906 275 q 253 -7 572 -7 q 127 -5 200 -7 q -10 0 54 -3 l 167 917 m 301 97 q 350 93 329 93 q 517 187 457 93 q 610 461 578 281 q 635 688 635 601 q 603 793 635 761 q 500 825 572 825 q 442 821 468 825 l 301 97 m 340 -58 q 441 -86 403 -58 q 479 -164 479 -114 q 439 -242 479 -214 q 335 -269 399 -269 q 232 -242 271 -269 q 193 -167 193 -215 q 235 -87 193 -115 q 340 -58 276 -58 z "},"ǲ":{"ha":1565,"x_min":-10,"x_max":1594,"o":"m 0 0 m 167 917 q 418 924 281 924 q 702 894 599 924 q 856 784 806 864 q 906 556 906 704 q 739 134 906 275 q 253 -7 572 -7 q 127 -5 200 -7 q -10 0 54 -3 l 167 917 m 301 97 q 350 93 329 93 q 517 187 457 93 q 610 461 578 281 q 635 688 635 601 q 603 793 635 761 q 500 825 572 825 q 442 821 468 825 l 301 97 m 1350 493 q 1255 513 1306 506 q 1168 521 1204 521 q 1040 460 1072 521 q 1006 524 1018 486 q 993 599 993 561 q 1040 703 993 671 q 1167 736 1088 736 q 1265 728 1210 736 q 1331 718 1319 719 q 1481 701 1439 701 q 1558 717 1532 701 q 1594 633 1594 682 q 1572 556 1594 590 q 1507 492 1549 522 l 1164 233 q 1347 201 1275 201 q 1429 215 1389 201 q 1494 257 1469 229 q 1533 142 1533 213 q 1482 15 1533 58 q 1344 -28 1431 -28 q 1199 -7 1290 -28 q 1058 13 1104 13 q 971 -1 1015 13 q 924 94 924 29 q 1007 244 924 178 l 1350 493 z "},"ǅ":{"ha":1565,"x_min":-10,"x_max":1607,"o":"m 0 0 m 167 917 q 418 924 281 924 q 702 894 599 924 q 856 784 806 864 q 906 556 906 704 q 739 134 906 275 q 253 -7 572 -7 q 127 -5 200 -7 q -10 0 54 -3 l 167 917 m 301 97 q 350 93 329 93 q 517 187 457 93 q 610 461 578 281 q 635 688 635 601 q 603 793 635 761 q 500 825 572 825 q 442 821 468 825 l 301 97 m 1350 493 q 1255 513 1306 506 q 1168 521 1204 521 q 1040 460 1072 521 q 1006 524 1018 486 q 993 599 993 561 q 1040 703 993 671 q 1167 736 1088 736 q 1265 728 1210 736 q 1331 718 1319 719 q 1481 701 1439 701 q 1558 717 1532 701 q 1594 633 1594 682 q 1572 556 1594 590 q 1507 492 1549 522 l 1164 233 q 1347 201 1275 201 q 1429 215 1389 201 q 1494 257 1469 229 q 1533 142 1533 213 q 1482 15 1533 58 q 1344 -28 1431 -28 q 1199 -7 1290 -28 q 1058 13 1104 13 q 971 -1 1015 13 q 924 94 924 29 q 1007 244 924 178 l 1350 493 m 1126 914 l 1196 978 l 1358 906 l 1564 978 l 1607 914 l 1389 753 l 1297 753 l 1126 914 z "},"E":{"ha":689,"x_min":-4,"x_max":764,"o":"m 764 917 q 600 743 764 743 q 439 781 518 743 l 396 538 l 643 538 q 607 423 643 464 q 500 382 571 382 q 418 394 458 382 q 371 414 378 407 l 325 167 l 449 167 q 586 181 542 167 q 601 146 596 168 q 606 104 606 124 q 433 0 606 0 l -4 0 l 167 917 l 764 917 z "},"É":{"ha":689,"x_min":-4,"x_max":764,"o":"m 0 0 m 764 917 q 600 743 764 743 q 439 781 518 743 l 396 538 l 643 538 q 607 423 643 464 q 500 382 571 382 q 418 394 458 382 q 371 414 378 407 l 325 167 l 449 167 q 586 181 542 167 q 601 146 596 168 q 606 104 606 124 q 433 0 606 0 l -4 0 l 167 917 l 764 917 m 368 1054 l 708 1196 q 738 1165 728 1182 q 747 1121 747 1147 q 692 1024 747 1054 q 550 992 636 994 l 385 986 l 368 1054 z "},"Ĕ":{"ha":689,"x_min":-4,"x_max":793,"o":"m 0 0 m 764 917 q 600 743 764 743 q 439 781 518 743 l 396 538 l 643 538 q 607 423 643 464 q 500 382 571 382 q 418 394 458 382 q 371 414 378 407 l 325 167 l 449 167 q 586 181 542 167 q 601 146 596 168 q 606 104 606 124 q 433 0 606 0 l -4 0 l 167 917 l 764 917 m 456 1158 q 450 1106 450 1119 q 459 1061 450 1081 q 500 1042 468 1042 q 550 1058 532 1042 q 576 1097 568 1075 q 593 1158 583 1119 l 793 1158 q 699 1025 775 1076 q 486 974 622 974 q 308 1016 371 974 q 244 1121 244 1058 q 249 1158 244 1138 l 456 1158 z "},"Ě":{"ha":689,"x_min":-4,"x_max":764,"o":"m 0 0 m 764 917 q 600 743 764 743 q 439 781 518 743 l 396 538 l 643 538 q 607 423 643 464 q 500 382 571 382 q 418 394 458 382 q 371 414 378 407 l 325 167 l 449 167 q 586 181 542 167 q 601 146 596 168 q 606 104 606 124 q 433 0 606 0 l -4 0 l 167 917 l 764 917 m 279 1122 l 349 1186 l 511 1114 l 717 1186 l 760 1122 l 542 961 l 450 961 l 279 1122 z "},"Ê":{"ha":689,"x_min":-4,"x_max":764,"o":"m 0 0 m 764 917 q 600 743 764 743 q 439 781 518 743 l 396 538 l 643 538 q 607 423 643 464 q 500 382 571 382 q 418 394 458 382 q 371 414 378 407 l 325 167 l 449 167 q 586 181 542 167 q 601 146 596 168 q 606 104 606 124 q 433 0 606 0 l -4 0 l 167 917 l 764 917 m 721 1018 l 651 954 l 490 1026 l 285 954 l 242 1018 l 474 1179 l 536 1179 l 721 1018 z "},"Ë":{"ha":689,"x_min":-4,"x_max":803,"o":"m 0 0 m 764 917 q 600 743 764 743 q 439 781 518 743 l 396 538 l 643 538 q 607 423 643 464 q 500 382 571 382 q 418 394 458 382 q 371 414 378 407 l 325 167 l 449 167 q 586 181 542 167 q 601 146 596 168 q 606 104 606 124 q 433 0 606 0 l -4 0 l 167 917 l 764 917 m 340 1169 q 440 1142 403 1169 q 478 1064 478 1114 q 438 986 478 1014 q 335 958 399 958 q 232 985 271 958 q 193 1061 193 1013 q 235 1141 193 1113 q 340 1169 276 1169 m 665 1169 q 765 1142 728 1169 q 803 1064 803 1114 q 763 986 803 1014 q 660 958 724 958 q 557 985 596 958 q 518 1061 518 1013 q 560 1141 518 1113 q 665 1169 601 1169 z "},"Ė":{"ha":689,"x_min":-4,"x_max":764,"o":"m 496 1169 q 596 1142 558 1169 q 633 1064 633 1114 q 594 986 633 1014 q 490 958 554 958 q 388 985 426 958 q 349 1061 349 1013 q 390 1141 349 1113 q 496 1169 432 1169 m 764 917 q 600 743 764 743 q 439 781 518 743 l 396 538 l 643 538 q 607 423 643 464 q 500 382 571 382 q 418 394 458 382 q 371 414 378 407 l 325 167 l 449 167 q 586 181 542 167 q 601 146 596 168 q 606 104 606 124 q 433 0 606 0 l -4 0 l 167 917 l 764 917 z "},"Ẹ":{"ha":689,"x_min":-4,"x_max":764,"o":"m 0 0 m 764 917 q 600 743 764 743 q 439 781 518 743 l 396 538 l 643 538 q 607 423 643 464 q 500 382 571 382 q 418 394 458 382 q 371 414 378 407 l 325 167 l 449 167 q 586 181 542 167 q 601 146 596 168 q 606 104 606 124 q 433 0 606 0 l -4 0 l 167 917 l 764 917 m 282 -58 q 383 -86 344 -58 q 421 -164 421 -114 q 381 -242 421 -214 q 276 -269 340 -269 q 174 -242 213 -269 q 135 -167 135 -215 q 176 -87 135 -115 q 282 -58 218 -58 z "},"È":{"ha":689,"x_min":-4,"x_max":764,"o":"m 0 0 m 764 917 q 600 743 764 743 q 439 781 518 743 l 396 538 l 643 538 q 607 423 643 464 q 500 382 571 382 q 418 394 458 382 q 371 414 378 407 l 325 167 l 449 167 q 586 181 542 167 q 601 146 596 168 q 606 104 606 124 q 433 0 606 0 l -4 0 l 167 917 l 764 917 m 625 988 l 460 993 q 318 1026 374 996 q 263 1122 263 1056 q 272 1166 263 1149 q 301 1197 282 1183 l 642 1056 l 625 988 z "},"Ē":{"ha":689,"x_min":-4,"x_max":764,"o":"m 706 1156 q 711 1117 711 1133 q 684 1053 711 1078 q 606 1028 657 1028 l 281 1028 q 276 1065 276 1040 q 304 1131 278 1106 q 371 1156 331 1156 l 706 1156 m 764 917 q 600 743 764 743 q 439 781 518 743 l 396 538 l 643 538 q 607 423 643 464 q 500 382 571 382 q 418 394 458 382 q 371 414 378 407 l 325 167 l 449 167 q 586 181 542 167 q 601 146 596 168 q 606 104 606 124 q 433 0 606 0 l -4 0 l 167 917 l 764 917 z "},"Ę":{"ha":689,"x_min":-4,"x_max":764,"o":"m 600 743 q 439 781 518 743 l 396 538 l 643 538 q 607 423 643 464 q 500 382 571 382 q 418 394 458 382 q 371 414 378 407 l 325 167 l 449 167 q 586 181 542 167 q 601 146 596 168 q 606 104 606 124 q 533 13 606 36 q 444 -73 479 -25 q 408 -171 408 -121 q 474 -242 408 -242 q 560 -207 529 -242 q 579 -237 574 -224 q 585 -272 585 -251 q 545 -333 585 -308 q 435 -358 506 -358 q 301 -319 349 -358 q 253 -203 253 -279 q 291 -83 253 -135 q 394 0 329 -32 l -4 0 l 167 917 l 764 917 q 600 743 764 743 z "},"Ẽ":{"ha":689,"x_min":-4,"x_max":764,"o":"m 0 0 m 764 917 q 600 743 764 743 q 439 781 518 743 l 396 538 l 643 538 q 607 423 643 464 q 500 382 571 382 q 418 394 458 382 q 371 414 378 407 l 325 167 l 449 167 q 586 181 542 167 q 601 146 596 168 q 606 104 606 124 q 433 0 606 0 l -4 0 l 167 917 l 764 917 m 736 1176 q 763 1106 763 1144 q 727 1029 763 1056 q 629 1003 692 1003 q 476 1017 590 1003 q 346 1028 368 1028 q 292 1021 318 1028 q 253 1004 267 1014 q 225 1083 225 1044 q 260 1152 225 1128 q 363 1176 296 1176 q 450 1171 396 1176 q 519 1164 504 1165 q 653 1153 625 1153 q 736 1176 713 1153 z "},"F":{"ha":708,"x_min":-4,"x_max":782,"o":"m 782 917 q 745 781 782 826 q 622 736 708 736 q 524 747 576 736 q 439 774 471 758 l 397 549 l 665 549 q 629 427 665 472 q 514 382 593 382 q 435 393 474 382 q 371 415 396 404 l 297 0 l -4 0 l 167 917 l 782 917 z "},"G":{"ha":889,"x_min":29,"x_max":879,"o":"m 879 472 q 779 -1 779 254 q 693 -28 740 -28 q 599 -3 638 -28 q 556 50 561 22 q 453 -9 514 10 q 329 -28 393 -28 q 104 72 179 -28 q 29 349 29 172 q 96 654 29 519 q 290 867 163 789 q 593 944 418 944 q 793 906 711 944 q 875 776 875 868 q 819 651 875 700 q 686 603 764 603 q 622 613 650 603 q 632 721 632 664 q 617 809 632 772 q 556 846 603 846 q 438 769 490 846 q 356 581 386 693 q 326 367 326 468 q 356 205 326 272 q 464 138 386 138 q 515 145 489 138 q 554 168 542 153 l 599 447 l 879 472 z "},"Ğ":{"ha":889,"x_min":29,"x_max":911,"o":"m 29 0 m 879 472 q 779 -1 779 254 q 693 -28 740 -28 q 599 -3 638 -28 q 556 50 561 22 q 453 -9 514 10 q 329 -28 393 -28 q 104 72 179 -28 q 29 349 29 172 q 96 654 29 519 q 290 867 163 789 q 593 944 418 944 q 793 906 711 944 q 875 776 875 868 q 819 651 875 700 q 686 603 764 603 q 622 613 650 603 q 632 721 632 664 q 617 809 632 772 q 556 846 603 846 q 438 769 490 846 q 356 581 386 693 q 326 367 326 468 q 356 205 326 272 q 464 138 386 138 q 515 145 489 138 q 554 168 542 153 l 599 447 l 879 472 m 574 1158 q 568 1106 568 1119 q 577 1061 568 1081 q 618 1042 586 1042 q 668 1058 650 1042 q 694 1097 686 1075 q 711 1158 701 1119 l 911 1158 q 817 1025 893 1076 q 604 974 740 974 q 426 1016 489 974 q 363 1121 363 1058 q 367 1158 363 1138 l 574 1158 z "},"Ĝ":{"ha":889,"x_min":29,"x_max":879,"o":"m 29 0 m 879 472 q 779 -1 779 254 q 693 -28 740 -28 q 599 -3 638 -28 q 556 50 561 22 q 453 -9 514 10 q 329 -28 393 -28 q 104 72 179 -28 q 29 349 29 172 q 96 654 29 519 q 290 867 163 789 q 593 944 418 944 q 793 906 711 944 q 875 776 875 868 q 819 651 875 700 q 686 603 764 603 q 622 613 650 603 q 632 721 632 664 q 617 809 632 772 q 556 846 603 846 q 438 769 490 846 q 356 581 386 693 q 326 367 326 468 q 356 205 326 272 q 464 138 386 138 q 515 145 489 138 q 554 168 542 153 l 599 447 l 879 472 m 839 1018 l 769 954 l 608 1026 l 403 954 l 360 1018 l 592 1179 l 654 1179 l 839 1018 z "},"Ģ":{"ha":889,"x_min":29,"x_max":879,"o":"m 29 0 m 879 472 q 779 -1 779 254 q 693 -28 740 -28 q 599 -3 638 -28 q 556 50 561 22 q 453 -9 514 10 q 329 -28 393 -28 q 104 72 179 -28 q 29 349 29 172 q 96 654 29 519 q 290 867 163 789 q 593 944 418 944 q 793 906 711 944 q 875 776 875 868 q 819 651 875 700 q 686 603 764 603 q 622 613 650 603 q 632 721 632 664 q 617 809 632 772 q 556 846 603 846 q 438 769 490 846 q 356 581 386 693 q 326 367 326 468 q 356 205 326 272 q 464 138 386 138 q 515 145 489 138 q 554 168 542 153 l 599 447 l 879 472 m 493 -165 q 458 -268 493 -224 q 371 -335 422 -312 q 272 -358 319 -358 q 218 -353 238 -358 q 286 -260 265 -300 q 307 -162 307 -219 q 303 -125 307 -146 q 293 -92 299 -104 q 332 -78 304 -85 q 379 -71 360 -71 q 463 -97 432 -71 q 493 -165 493 -124 z "},"Ġ":{"ha":889,"x_min":29,"x_max":879,"o":"m 615 1169 q 715 1142 678 1169 q 753 1064 753 1114 q 713 986 753 1014 q 610 958 674 958 q 507 985 546 958 q 468 1061 468 1013 q 510 1141 468 1113 q 615 1169 551 1169 m 879 472 q 779 -1 779 254 q 693 -28 740 -28 q 599 -3 638 -28 q 556 50 561 22 q 453 -9 514 10 q 329 -28 393 -28 q 104 72 179 -28 q 29 349 29 172 q 96 654 29 519 q 290 867 163 789 q 593 944 418 944 q 793 906 711 944 q 875 776 875 868 q 819 651 875 700 q 686 603 764 603 q 622 613 650 603 q 632 721 632 664 q 617 809 632 772 q 556 846 603 846 q 438 769 490 846 q 356 581 386 693 q 326 367 326 468 q 356 205 326 272 q 464 138 386 138 q 515 145 489 138 q 554 168 542 153 l 599 447 l 879 472 z "},"H":{"ha":943,"x_min":-10,"x_max":953,"o":"m 821 221 q 808 107 808 151 q 814 56 808 81 q 826 19 819 32 q 751 -16 793 -4 q 668 -28 710 -28 q 560 9 596 -28 q 524 110 524 46 q 538 235 524 142 l 564 396 l 356 396 l 279 0 l -10 0 l 167 917 l 458 917 l 378 507 l 585 507 l 661 917 l 953 917 l 821 221 z "},"Ħ":{"ha":943,"x_min":-10,"x_max":1011,"o":"m 821 221 q 808 107 808 151 q 814 56 808 81 q 826 19 819 32 q 751 -16 793 -4 q 668 -28 710 -28 q 560 9 596 -28 q 524 110 524 46 q 538 235 524 142 l 564 396 l 356 396 l 279 0 l -10 0 l 119 671 l 40 671 q 36 708 36 683 q 64 772 38 747 q 131 797 90 797 l 144 797 l 167 917 l 458 917 l 435 797 l 639 797 l 661 917 l 953 917 l 931 797 l 1006 797 q 1011 758 1011 775 q 984 695 1011 719 q 907 671 957 671 l 821 221 m 585 507 l 615 671 l 410 671 l 378 507 l 585 507 z "},"Ĥ":{"ha":943,"x_min":-10,"x_max":953,"o":"m 0 0 m 821 221 q 808 107 808 151 q 814 56 808 81 q 826 19 819 32 q 751 -16 793 -4 q 668 -28 710 -28 q 560 9 596 -28 q 524 110 524 46 q 538 235 524 142 l 564 396 l 356 396 l 279 0 l -10 0 l 167 917 l 458 917 l 378 507 l 585 507 l 661 917 l 953 917 l 821 221 m 810 1018 l 740 954 l 579 1026 l 374 954 l 331 1018 l 563 1179 l 625 1179 l 810 1018 z "},"Ḥ":{"ha":943,"x_min":-10,"x_max":953,"o":"m 0 0 m 821 221 q 808 107 808 151 q 814 56 808 81 q 826 19 819 32 q 751 -16 793 -4 q 668 -28 710 -28 q 560 9 596 -28 q 524 110 524 46 q 538 235 524 142 l 564 396 l 356 396 l 279 0 l -10 0 l 167 917 l 458 917 l 378 507 l 585 507 l 661 917 l 953 917 l 821 221 m 381 -58 q 481 -86 443 -58 q 519 -164 519 -114 q 479 -242 519 -214 q 375 -269 439 -269 q 272 -242 311 -269 q 233 -167 233 -215 q 275 -87 233 -115 q 381 -58 317 -58 z "},"I":{"ha":465,"x_min":-10,"x_max":471,"o":"m 471 917 l 292 0 l -10 0 l 167 917 l 471 917 z "},"Ĳ":{"ha":931,"x_min":-10,"x_max":935,"o":"m 0 0 m 471 917 l 292 0 l -10 0 l 167 917 l 471 917 m 800 214 q 721 -67 767 38 q 611 -217 675 -171 q 456 -264 547 -264 q 355 -246 396 -264 q 299 -192 314 -228 q 386 -133 354 -168 q 444 -21 418 -99 q 500 214 469 57 l 635 917 l 935 917 l 800 214 z "},"Í":{"ha":465,"x_min":-10,"x_max":599,"o":"m 0 0 m 471 917 l 292 0 l -10 0 l 167 917 l 471 917 m 219 1054 l 560 1196 q 589 1165 579 1182 q 599 1121 599 1147 q 543 1024 599 1054 q 401 992 488 994 l 236 986 l 219 1054 z "},"Ĭ":{"ha":465,"x_min":-10,"x_max":644,"o":"m 0 0 m 471 917 l 292 0 l -10 0 l 167 917 l 471 917 m 307 1158 q 301 1106 301 1119 q 310 1061 301 1081 q 351 1042 319 1042 q 401 1058 383 1042 q 427 1097 419 1075 q 444 1158 435 1119 l 644 1158 q 550 1025 626 1076 q 338 974 474 974 q 159 1016 222 974 q 96 1121 96 1058 q 100 1158 96 1138 l 307 1158 z "},"Î":{"ha":465,"x_min":-10,"x_max":572,"o":"m 0 0 m 471 917 l 292 0 l -10 0 l 167 917 l 471 917 m 572 1018 l 503 954 l 342 1026 l 136 954 l 93 1018 l 325 1179 l 388 1179 l 572 1018 z "},"Ï":{"ha":465,"x_min":-10,"x_max":654,"o":"m 0 0 m 471 917 l 292 0 l -10 0 l 167 917 l 471 917 m 192 1169 q 292 1142 254 1169 q 329 1064 329 1114 q 290 986 329 1014 q 186 958 250 958 q 83 985 122 958 q 44 1061 44 1013 q 86 1141 44 1113 q 192 1169 128 1169 m 517 1169 q 617 1142 579 1169 q 654 1064 654 1114 q 615 986 654 1014 q 511 958 575 958 q 408 985 447 958 q 369 1061 369 1013 q 411 1141 369 1113 q 517 1169 453 1169 z "},"İ":{"ha":465,"x_min":-10,"x_max":485,"o":"m 347 1169 q 447 1142 410 1169 q 485 1064 485 1114 q 445 986 485 1014 q 342 958 406 958 q 239 985 278 958 q 200 1061 200 1013 q 242 1141 200 1113 q 347 1169 283 1169 m 471 917 l 292 0 l -10 0 l 167 917 l 471 917 z "},"Ị":{"ha":465,"x_min":-35,"x_max":471,"o":"m 0 0 m 471 917 l 292 0 l -10 0 l 167 917 l 471 917 m 113 -58 q 213 -86 175 -58 q 251 -164 251 -114 q 211 -242 251 -214 q 107 -269 171 -269 q 4 -242 43 -269 q -35 -167 -35 -215 q 7 -87 -35 -115 q 113 -58 49 -58 z "},"Ì":{"ha":465,"x_min":-10,"x_max":493,"o":"m 0 0 m 471 917 l 292 0 l -10 0 l 167 917 l 471 917 m 476 988 l 311 993 q 169 1026 225 996 q 114 1122 114 1056 q 124 1166 114 1149 q 153 1197 133 1183 l 493 1056 l 476 988 z "},"Ī":{"ha":465,"x_min":-10,"x_max":563,"o":"m 557 1156 q 563 1117 563 1133 q 535 1053 563 1078 q 457 1028 508 1028 l 132 1028 q 128 1065 128 1040 q 156 1131 129 1106 q 222 1156 182 1156 l 557 1156 m 471 917 l 292 0 l -10 0 l 167 917 l 471 917 z "},"Į":{"ha":465,"x_min":-10,"x_max":471,"o":"m 233 -242 q 319 -207 289 -242 q 339 -237 333 -224 q 344 -272 344 -251 q 305 -333 344 -308 q 194 -358 265 -358 q 60 -319 108 -358 q 13 -203 13 -279 q 51 -83 13 -135 q 154 0 89 -32 l -10 0 l 167 917 l 471 917 l 294 14 l 292 0 l 275 0 q 198 -81 228 -36 q 168 -171 168 -126 q 233 -242 168 -242 z "},"Ĩ":{"ha":465,"x_min":-10,"x_max":614,"o":"m 0 0 m 471 917 l 292 0 l -10 0 l 167 917 l 471 917 m 588 1176 q 614 1106 614 1144 q 578 1029 614 1056 q 481 1003 543 1003 q 328 1017 442 1003 q 197 1028 219 1028 q 144 1021 169 1028 q 104 1004 118 1014 q 76 1083 76 1044 q 112 1152 76 1128 q 214 1176 147 1176 q 301 1171 247 1176 q 371 1164 356 1165 q 504 1153 476 1153 q 588 1176 564 1153 z "},"J":{"ha":465,"x_min":-167,"x_max":469,"o":"m 335 214 q 256 -67 301 38 q 146 -217 210 -171 q -10 -264 82 -264 q -110 -246 -69 -264 q -167 -192 -151 -228 q -79 -133 -111 -168 q -22 -21 -47 -99 q 35 214 4 57 l 169 917 l 469 917 l 335 214 z "},"Ĵ":{"ha":465,"x_min":-167,"x_max":568,"o":"m 0 0 m 335 214 q 256 -67 301 38 q 146 -217 210 -171 q -10 -264 82 -264 q -110 -246 -69 -264 q -167 -192 -151 -228 q -79 -133 -111 -168 q -22 -21 -47 -99 q 35 214 4 57 l 169 917 l 469 917 l 335 214 m 568 1018 l 499 954 l 338 1026 l 132 954 l 89 1018 l 321 1179 l 383 1179 l 568 1018 z "},"K":{"ha":890,"x_min":-7,"x_max":1044,"o":"m 288 0 l -7 0 q 92 532 44 275 q 167 917 140 789 l 463 917 l 288 0 m 1044 917 q 753 588 843 700 q 657 467 663 475 q 875 82 750 147 q 815 0 857 28 q 710 -28 772 -28 q 560 31 617 -28 q 471 190 504 90 q 404 456 438 289 l 742 917 l 1044 917 z "},"Ķ":{"ha":890,"x_min":-7,"x_max":1044,"o":"m 0 0 m 288 0 l -7 0 q 92 532 44 275 q 167 917 140 789 l 463 917 l 288 0 m 1044 917 q 753 588 843 700 q 657 467 663 475 q 875 82 750 147 q 815 0 857 28 q 710 -28 772 -28 q 560 31 617 -28 q 471 190 504 90 q 404 456 438 289 l 742 917 l 1044 917 m 496 -165 q 460 -268 496 -224 q 374 -335 425 -312 q 275 -358 322 -358 q 221 -353 240 -358 q 289 -260 268 -300 q 310 -162 310 -219 q 306 -125 310 -146 q 296 -92 301 -104 q 335 -78 307 -85 q 382 -71 363 -71 q 465 -97 435 -71 q 496 -165 496 -124 z "},"L":{"ha":614,"x_min":-1,"x_max":614,"o":"m 167 917 l 469 917 l 333 167 l 457 167 q 594 181 550 167 q 609 146 604 168 q 614 104 614 124 q 567 22 614 44 q 442 0 519 0 l -1 0 l 167 917 z "},"Ǉ":{"ha":1079,"x_min":-1,"x_max":1083,"o":"m 0 0 m 167 917 l 469 917 l 333 167 l 457 167 q 594 181 550 167 q 609 146 604 168 q 614 104 614 124 q 567 22 614 44 q 442 0 519 0 l -1 0 l 167 917 m 949 214 q 869 -67 915 38 q 760 -217 824 -171 q 604 -264 696 -264 q 503 -246 544 -264 q 447 -192 463 -228 q 535 -133 503 -168 q 592 -21 567 -99 q 649 214 618 57 l 783 917 l 1083 917 l 949 214 z "},"Ĺ":{"ha":614,"x_min":-1,"x_max":614,"o":"m 0 0 m 167 917 l 469 917 l 333 167 l 457 167 q 594 181 550 167 q 609 146 604 168 q 614 104 614 124 q 567 22 614 44 q 442 0 519 0 l -1 0 l 167 917 m 207 1054 l 547 1196 q 576 1165 567 1182 q 586 1121 586 1147 q 531 1024 586 1054 q 389 992 475 994 l 224 986 l 207 1054 z "},"Ľ":{"ha":614,"x_min":-1,"x_max":740,"o":"m 0 0 m 167 917 l 469 917 l 333 167 l 457 167 q 594 181 550 167 q 609 146 604 168 q 614 104 614 124 q 567 22 614 44 q 442 0 519 0 l -1 0 l 167 917 m 558 978 q 597 991 572 985 q 643 997 622 997 q 713 968 686 997 q 740 889 740 939 q 716 815 740 853 q 649 753 692 778 q 553 728 606 728 q 504 736 529 728 q 557 820 543 781 q 571 900 571 860 q 558 978 571 939 z "},"Ļ":{"ha":614,"x_min":-1,"x_max":614,"o":"m 0 0 m 167 917 l 469 917 l 333 167 l 457 167 q 594 181 550 167 q 609 146 604 168 q 614 104 614 124 q 567 22 614 44 q 442 0 519 0 l -1 0 l 167 917 m 356 -165 q 320 -268 356 -224 q 233 -335 285 -312 q 135 -358 182 -358 q 81 -353 100 -358 q 149 -260 128 -300 q 169 -162 169 -219 q 165 -125 169 -146 q 156 -92 161 -104 q 194 -78 167 -85 q 242 -71 222 -71 q 325 -97 294 -71 q 356 -165 356 -124 z "},"Ŀ":{"ha":614,"x_min":-1,"x_max":618,"o":"m 167 917 l 469 917 l 333 167 l 457 167 q 594 181 550 167 q 609 146 604 168 q 614 104 614 124 q 567 22 614 44 q 442 0 519 0 l -1 0 l 167 917 m 544 549 q 599 530 579 549 q 618 478 618 511 q 615 453 618 469 q 575 382 606 408 q 501 356 544 356 q 445 374 465 356 q 425 425 425 393 q 428 449 425 432 q 469 522 438 494 q 544 549 501 549 z "},"ǈ":{"ha":614,"x_min":-118,"x_max":614,"o":"m 351 1028 q 244 1056 285 1028 q 203 1136 203 1085 q 247 1220 203 1190 q 357 1250 290 1250 q 463 1221 422 1250 q 503 1139 503 1192 q 460 1057 503 1086 q 351 1028 418 1028 m 594 181 q 609 146 604 168 q 614 104 614 124 q 567 22 614 44 q 442 0 519 0 l 214 0 q 47 -69 149 -69 q -60 -44 -15 -69 q -118 33 -104 -19 q -31 67 -65 36 q 29 167 4 99 l 167 917 l 186 917 l 464 944 l 458 917 l 469 917 l 333 167 l 457 167 q 594 181 550 167 z "},"Ł":{"ha":693,"x_min":-10,"x_max":693,"o":"m 536 167 q 674 181 629 167 q 688 146 683 168 q 693 104 693 124 q 646 22 693 44 q 521 0 599 0 l 78 0 l 136 318 l 19 276 q -10 340 -10 303 q 53 422 -10 400 l 163 463 l 246 917 l 549 917 l 488 582 l 608 626 q 628 596 622 615 q 635 558 635 576 q 612 503 635 525 q 538 463 589 481 l 461 435 l 413 167 l 536 167 z "},"M":{"ha":1126,"x_min":-29,"x_max":1094,"o":"m 1094 917 l 1050 243 q 1047 172 1047 210 q 1057 95 1047 126 q 1092 46 1067 64 q 1027 -8 1072 13 q 925 -28 982 -28 q 779 129 779 -28 q 782 193 779 157 l 819 625 l 542 0 l 379 0 l 265 625 l 131 0 l -29 0 l 194 917 l 483 917 l 581 401 l 817 917 l 1094 917 z "},"N":{"ha":954,"x_min":0,"x_max":950,"o":"m 163 0 l 0 0 l 167 917 l 465 917 l 681 285 l 786 917 l 950 917 l 781 0 l 464 0 l 264 608 l 163 0 z "},"Ǌ":{"ha":1419,"x_min":0,"x_max":1424,"o":"m 0 0 m 163 0 l 0 0 l 167 917 l 465 917 l 681 285 l 786 917 l 950 917 l 781 0 l 464 0 l 264 608 l 163 0 m 1289 214 q 1210 -67 1256 38 q 1100 -217 1164 -171 q 944 -264 1036 -264 q 844 -246 885 -264 q 788 -192 803 -228 q 875 -133 843 -168 q 933 -21 907 -99 q 989 214 958 57 l 1124 917 l 1424 917 l 1289 214 z "},"Ń":{"ha":954,"x_min":0,"x_max":950,"o":"m 0 0 m 163 0 l 0 0 l 167 917 l 465 917 l 681 285 l 786 917 l 950 917 l 781 0 l 464 0 l 264 608 l 163 0 m 467 1054 l 807 1196 q 836 1165 826 1182 q 846 1121 846 1147 q 790 1024 846 1054 q 649 992 735 994 l 483 986 l 467 1054 z "},"Ň":{"ha":954,"x_min":0,"x_max":950,"o":"m 0 0 m 163 0 l 0 0 l 167 917 l 465 917 l 681 285 l 786 917 l 950 917 l 781 0 l 464 0 l 264 608 l 163 0 m 378 1122 l 447 1186 l 610 1114 l 815 1186 l 858 1122 l 640 961 l 549 961 l 378 1122 z "},"Ņ":{"ha":954,"x_min":0,"x_max":950,"o":"m 0 0 m 163 0 l 0 0 l 167 917 l 465 917 l 681 285 l 786 917 l 950 917 l 781 0 l 464 0 l 264 608 l 163 0 m 518 -165 q 483 -268 518 -224 q 396 -335 447 -312 q 297 -358 344 -358 q 243 -353 263 -358 q 311 -260 290 -300 q 332 -162 332 -219 q 328 -125 332 -146 q 318 -92 324 -104 q 357 -78 329 -85 q 404 -71 385 -71 q 488 -97 457 -71 q 518 -165 518 -124 z "},"Ṅ":{"ha":954,"x_min":0,"x_max":950,"o":"m 594 1169 q 694 1142 657 1169 q 732 1064 732 1114 q 692 986 732 1014 q 589 958 653 958 q 486 985 525 958 q 447 1061 447 1013 q 489 1141 447 1113 q 594 1169 531 1169 m 163 0 l 0 0 l 167 917 l 465 917 l 681 285 l 786 917 l 950 917 l 781 0 l 464 0 l 264 608 l 163 0 z "},"Ŋ":{"ha":954,"x_min":0,"x_max":950,"o":"m 163 0 l 0 0 l 167 917 l 465 917 l 681 285 l 786 917 l 950 917 l 794 76 q 741 -127 771 -51 q 667 -238 711 -203 q 560 -274 624 -274 q 496 -261 522 -274 q 460 -226 469 -249 q 537 -188 508 -208 q 588 -124 565 -168 q 628 0 610 -81 l 471 0 l 264 608 l 163 0 z "},"ǋ":{"ha":954,"x_min":0,"x_max":950,"o":"m 611 1028 q 503 1056 544 1028 q 463 1136 463 1085 q 506 1220 463 1190 q 617 1250 550 1250 q 722 1221 682 1250 q 763 1139 763 1192 q 720 1057 763 1086 q 611 1028 678 1028 m 781 0 l 474 0 q 307 -69 408 -69 q 216 -52 256 -69 q 156 0 176 -35 l 0 0 l 167 917 l 446 917 l 724 944 l 626 443 l 681 285 l 786 917 l 950 917 l 781 0 m 168 36 q 243 81 213 44 q 295 184 274 117 q 339 364 317 251 l 340 374 l 264 608 l 168 36 z "},"Ñ":{"ha":954,"x_min":0,"x_max":950,"o":"m 0 0 m 163 0 l 0 0 l 167 917 l 465 917 l 681 285 l 786 917 l 950 917 l 781 0 l 464 0 l 264 608 l 163 0 m 835 1176 q 861 1106 861 1144 q 826 1029 861 1056 q 728 1003 790 1003 q 575 1017 689 1003 q 444 1028 467 1028 q 391 1021 417 1028 q 351 1004 365 1014 q 324 1083 324 1044 q 359 1152 324 1128 q 461 1176 394 1176 q 549 1171 494 1176 q 618 1164 603 1165 q 751 1153 724 1153 q 835 1176 811 1153 z "},"O":{"ha":957,"x_min":31,"x_max":926,"o":"m 567 944 q 926 561 926 944 q 864 265 926 399 q 680 51 801 131 q 390 -28 558 -28 q 31 357 31 -28 q 93 653 31 519 q 277 865 156 786 q 567 944 399 944 m 549 847 q 428 749 475 847 q 353 435 382 651 q 332 192 332 281 q 347 102 332 133 q 407 71 363 71 q 528 169 482 71 q 604 483 575 267 q 625 726 625 638 q 609 816 625 785 q 549 847 593 847 z "},"Ó":{"ha":957,"x_min":31,"x_max":926,"o":"m 31 0 m 567 944 q 926 561 926 944 q 864 265 926 399 q 680 51 801 131 q 390 -28 558 -28 q 31 357 31 -28 q 93 653 31 519 q 277 865 156 786 q 567 944 399 944 m 549 847 q 428 749 475 847 q 353 435 382 651 q 332 192 332 281 q 347 102 332 133 q 407 71 363 71 q 528 169 482 71 q 604 483 575 267 q 625 726 625 638 q 609 816 625 785 q 549 847 593 847 m 456 1054 l 796 1196 q 825 1165 815 1182 q 835 1121 835 1147 q 779 1024 835 1054 q 638 992 724 994 l 472 986 l 456 1054 z "},"Ŏ":{"ha":957,"x_min":31,"x_max":926,"o":"m 31 0 m 567 944 q 926 561 926 944 q 864 265 926 399 q 680 51 801 131 q 390 -28 558 -28 q 31 357 31 -28 q 93 653 31 519 q 277 865 156 786 q 567 944 399 944 m 549 847 q 428 749 475 847 q 353 435 382 651 q 332 192 332 281 q 347 102 332 133 q 407 71 363 71 q 528 169 482 71 q 604 483 575 267 q 625 726 625 638 q 609 816 625 785 q 549 847 593 847 m 543 1158 q 538 1106 538 1119 q 547 1061 538 1081 q 588 1042 556 1042 q 638 1058 619 1042 q 663 1097 656 1075 q 681 1158 671 1119 l 881 1158 q 786 1025 863 1076 q 574 974 710 974 q 395 1016 458 974 q 332 1121 332 1058 q 336 1158 332 1138 l 543 1158 z "},"Ô":{"ha":957,"x_min":31,"x_max":926,"o":"m 31 0 m 567 944 q 926 561 926 944 q 864 265 926 399 q 680 51 801 131 q 390 -28 558 -28 q 31 357 31 -28 q 93 653 31 519 q 277 865 156 786 q 567 944 399 944 m 549 847 q 428 749 475 847 q 353 435 382 651 q 332 192 332 281 q 347 102 332 133 q 407 71 363 71 q 528 169 482 71 q 604 483 575 267 q 625 726 625 638 q 609 816 625 785 q 549 847 593 847 m 808 1018 l 739 954 l 578 1026 l 372 954 l 329 1018 l 561 1179 l 624 1179 l 808 1018 z "},"Ö":{"ha":957,"x_min":31,"x_max":926,"o":"m 31 0 m 567 944 q 926 561 926 944 q 864 265 926 399 q 680 51 801 131 q 390 -28 558 -28 q 31 357 31 -28 q 93 653 31 519 q 277 865 156 786 q 567 944 399 944 m 549 847 q 428 749 475 847 q 353 435 382 651 q 332 192 332 281 q 347 102 332 133 q 407 71 363 71 q 528 169 482 71 q 604 483 575 267 q 625 726 625 638 q 609 816 625 785 q 549 847 593 847 m 428 1169 q 528 1142 490 1169 q 565 1064 565 1114 q 526 986 565 1014 q 422 958 486 958 q 319 985 358 958 q 281 1061 281 1013 q 322 1141 281 1113 q 428 1169 364 1169 m 753 1169 q 853 1142 815 1169 q 890 1064 890 1114 q 851 986 890 1014 q 747 958 811 958 q 644 985 683 958 q 606 1061 606 1013 q 647 1141 606 1113 q 753 1169 689 1169 z "},"Ọ":{"ha":957,"x_min":31,"x_max":926,"o":"m 31 0 m 567 944 q 926 561 926 944 q 864 265 926 399 q 680 51 801 131 q 390 -28 558 -28 q 31 357 31 -28 q 93 653 31 519 q 277 865 156 786 q 567 944 399 944 m 549 847 q 428 749 475 847 q 353 435 382 651 q 332 192 332 281 q 347 102 332 133 q 407 71 363 71 q 528 169 482 71 q 604 483 575 267 q 625 726 625 638 q 609 816 625 785 q 549 847 593 847 m 393 -58 q 494 -86 456 -58 q 532 -164 532 -114 q 492 -242 532 -214 q 388 -269 451 -269 q 285 -242 324 -269 q 246 -167 246 -215 q 288 -87 246 -115 q 393 -58 329 -58 z "},"Ò":{"ha":957,"x_min":31,"x_max":926,"o":"m 31 0 m 567 944 q 926 561 926 944 q 864 265 926 399 q 680 51 801 131 q 390 -28 558 -28 q 31 357 31 -28 q 93 653 31 519 q 277 865 156 786 q 567 944 399 944 m 549 847 q 428 749 475 847 q 353 435 382 651 q 332 192 332 281 q 347 102 332 133 q 407 71 363 71 q 528 169 482 71 q 604 483 575 267 q 625 726 625 638 q 609 816 625 785 q 549 847 593 847 m 713 988 l 547 993 q 406 1026 461 996 q 350 1122 350 1056 q 360 1166 350 1149 q 389 1197 369 1183 l 729 1056 l 713 988 z "},"Ő":{"ha":957,"x_min":31,"x_max":957,"o":"m 31 0 m 567 944 q 926 561 926 944 q 864 265 926 399 q 680 51 801 131 q 390 -28 558 -28 q 31 357 31 -28 q 93 653 31 519 q 277 865 156 786 q 567 944 399 944 m 549 847 q 428 749 475 847 q 353 435 382 651 q 332 192 332 281 q 347 102 332 133 q 407 71 363 71 q 528 169 482 71 q 604 483 575 267 q 625 726 625 638 q 609 816 625 785 q 549 847 593 847 m 593 1190 q 638 1158 621 1178 q 654 1114 654 1138 q 619 1040 654 1064 q 497 996 583 1015 l 374 968 l 335 1015 l 593 1190 m 897 1190 q 940 1158 924 1178 q 957 1115 957 1138 q 922 1041 957 1065 q 800 996 886 1017 l 679 968 l 639 1015 l 897 1190 z "},"Ō":{"ha":957,"x_min":31,"x_max":926,"o":"m 793 1156 q 799 1117 799 1133 q 772 1053 799 1078 q 693 1028 744 1028 l 368 1028 q 364 1065 364 1040 q 392 1131 365 1106 q 458 1156 418 1156 l 793 1156 m 567 944 q 926 561 926 944 q 864 265 926 399 q 680 51 801 131 q 390 -28 558 -28 q 31 357 31 -28 q 93 653 31 519 q 277 865 156 786 q 567 944 399 944 m 549 847 q 428 749 475 847 q 353 435 382 651 q 332 192 332 281 q 347 102 332 133 q 407 71 363 71 q 528 169 482 71 q 604 483 575 267 q 625 726 625 638 q 609 816 625 785 q 549 847 593 847 z "},"Ǫ":{"ha":957,"x_min":31,"x_max":926,"o":"m 601 11 q 513 -74 547 -25 q 479 -171 479 -122 q 544 -242 479 -242 q 631 -207 600 -242 q 650 -237 644 -224 q 656 -272 656 -251 q 616 -333 656 -308 q 506 -358 576 -358 q 372 -319 419 -358 q 324 -203 324 -279 q 419 -28 324 -96 l 390 -28 q 31 357 31 -28 q 93 653 31 519 q 277 865 156 786 q 567 944 399 944 q 926 561 926 944 q 842 222 926 371 q 601 11 757 74 m 332 192 q 347 102 332 133 q 407 71 363 71 q 528 169 482 71 q 604 483 575 267 q 625 726 625 638 q 609 816 625 785 q 549 847 593 847 q 428 749 475 847 q 353 435 382 651 q 332 192 332 281 z "},"Ø":{"ha":957,"x_min":13,"x_max":926,"o":"m 865 810 q 926 561 926 717 q 864 265 926 399 q 680 51 801 131 q 390 -28 558 -28 q 169 26 256 -28 q 90 -81 118 -29 q 35 -58 56 -81 q 13 3 14 -35 q 46 90 13 53 l 79 128 q 31 357 31 217 q 93 653 31 519 q 277 865 156 786 q 567 944 399 944 q 763 904 686 944 q 838 1001 814 963 q 892 973 868 1001 q 917 908 917 944 q 881 825 917 864 l 865 810 m 625 747 q 606 821 622 794 q 550 847 590 847 q 428 751 475 847 q 353 440 382 656 l 625 747 m 408 71 q 522 153 481 71 q 578 315 564 236 q 608 521 593 393 l 332 208 l 332 190 q 348 101 332 132 q 408 71 364 71 z "},"Ǿ":{"ha":957,"x_min":13,"x_max":926,"o":"m 13 0 m 865 810 q 926 561 926 717 q 864 265 926 399 q 680 51 801 131 q 390 -28 558 -28 q 169 26 256 -28 q 90 -81 118 -29 q 35 -58 56 -81 q 13 3 14 -35 q 46 90 13 53 l 79 128 q 31 357 31 217 q 93 653 31 519 q 277 865 156 786 q 567 944 399 944 q 763 904 686 944 q 838 1001 814 963 q 892 973 868 1001 q 917 908 917 944 q 881 825 917 864 l 865 810 m 625 747 q 606 821 622 794 q 550 847 590 847 q 428 751 475 847 q 353 440 382 656 l 625 747 m 408 71 q 522 153 481 71 q 578 315 564 236 q 608 521 593 393 l 332 208 l 332 190 q 348 101 332 132 q 408 71 364 71 m 436 1054 l 776 1196 q 806 1165 796 1182 q 815 1121 815 1147 q 760 1024 815 1054 q 618 992 704 994 l 453 986 l 436 1054 z "},"Õ":{"ha":957,"x_min":31,"x_max":926,"o":"m 31 0 m 567 944 q 926 561 926 944 q 864 265 926 399 q 680 51 801 131 q 390 -28 558 -28 q 31 357 31 -28 q 93 653 31 519 q 277 865 156 786 q 567 944 399 944 m 549 847 q 428 749 475 847 q 353 435 382 651 q 332 192 332 281 q 347 102 332 133 q 407 71 363 71 q 528 169 482 71 q 604 483 575 267 q 625 726 625 638 q 609 816 625 785 q 549 847 593 847 m 824 1176 q 850 1106 850 1144 q 815 1029 850 1056 q 717 1003 779 1003 q 564 1017 678 1003 q 433 1028 456 1028 q 380 1021 406 1028 q 340 1004 354 1014 q 313 1083 313 1044 q 348 1152 313 1128 q 450 1176 383 1176 q 538 1171 483 1176 q 607 1164 592 1165 q 740 1153 713 1153 q 824 1176 800 1153 z "},"Œ":{"ha":1208,"x_min":31,"x_max":1249,"o":"m 1146 538 q 1108 422 1146 463 q 1003 382 1071 382 q 933 390 971 382 q 867 414 896 399 q 850 281 850 326 q 879 193 850 217 q 976 169 908 169 q 1119 192 1060 169 q 1132 125 1132 161 q 1063 6 1132 40 q 894 -28 994 -28 q 756 -4 810 -28 q 671 69 703 19 q 390 -28 575 -28 q 122 67 214 -28 q 31 353 31 161 q 93 649 31 514 q 275 864 156 783 q 558 944 394 944 q 729 917 654 944 l 1249 917 q 1203 786 1249 829 q 1081 743 1157 743 q 999 753 1043 743 q 917 781 954 763 l 883 538 l 1146 538 m 407 71 q 528 169 482 71 q 604 483 575 267 q 625 726 625 638 q 609 816 625 785 q 549 847 593 847 q 428 749 475 847 q 353 435 382 651 q 332 192 332 281 q 347 102 332 133 q 407 71 363 71 z "},"P":{"ha":864,"x_min":-8,"x_max":907,"o":"m -8 0 l 167 917 l 263 921 q 422 925 332 925 q 697 908 596 925 q 852 839 797 892 q 907 682 907 786 q 864 518 907 588 q 747 413 821 449 q 581 376 674 376 q 411 457 440 376 q 461 463 440 457 q 592 540 544 476 q 639 694 639 604 q 606 801 639 768 q 506 833 574 833 q 450 829 469 833 l 292 0 l -8 0 z "},"Þ":{"ha":818,"x_min":-10,"x_max":874,"o":"m 436 746 q 488 747 450 747 q 774 696 674 747 q 874 501 874 644 q 831 341 874 410 q 715 235 789 272 q 547 199 642 199 q 378 279 407 199 q 413 282 390 279 q 554 356 503 293 q 606 515 606 418 q 573 623 606 590 q 471 656 540 656 q 418 651 439 656 l 292 0 l -10 0 l 167 917 l 469 917 l 436 746 z "},"Q":{"ha":960,"x_min":40,"x_max":936,"o":"m 579 944 q 844 849 753 944 q 936 564 936 754 q 871 290 936 419 q 696 78 806 161 q 457 -18 586 -6 q 660 -51 554 -51 q 768 -40 717 -51 q 857 -8 819 -29 q 874 -92 874 -40 q 815 -217 874 -178 q 675 -256 756 -256 q 569 -242 617 -256 q 457 -204 522 -229 q 358 -171 397 -182 q 274 -160 319 -160 q 146 -194 199 -160 q 104 -85 104 -144 q 130 -6 104 -33 q 199 32 156 21 q 326 53 243 43 q 449 99 396 61 q 546 230 503 138 q 614 483 589 322 q 635 718 635 617 q 620 813 635 779 q 565 847 606 847 q 454 764 503 847 q 374 551 406 681 q 340 317 340 415 q 353 241 340 271 q 406 208 367 211 q 366 141 406 167 q 258 115 326 115 q 40 386 40 115 q 106 667 40 539 q 295 869 172 794 q 579 944 418 944 z "},"R":{"ha":889,"x_min":-4,"x_max":889,"o":"m 167 917 q 292 919 258 919 q 486 924 399 924 q 703 907 618 924 q 838 839 788 890 q 889 688 889 788 q 828 502 889 576 q 664 406 767 428 q 757 190 706 274 q 867 82 808 107 q 703 -28 829 -28 q 555 33 610 -28 q 470 192 500 93 q 404 474 440 290 l 415 474 q 567 528 514 474 q 621 690 621 583 q 593 798 621 763 q 501 833 565 833 q 451 832 461 833 l 292 0 l -4 0 l 167 917 z "},"Ŕ":{"ha":889,"x_min":-4,"x_max":889,"o":"m 0 0 m 167 917 q 292 919 258 919 q 486 924 399 924 q 703 907 618 924 q 838 839 788 890 q 889 688 889 788 q 828 502 889 576 q 664 406 767 428 q 757 190 706 274 q 867 82 808 107 q 703 -28 829 -28 q 555 33 610 -28 q 470 192 500 93 q 404 474 440 290 l 415 474 q 567 528 514 474 q 621 690 621 583 q 593 798 621 763 q 501 833 565 833 q 451 832 461 833 l 292 0 l -4 0 l 167 917 m 407 1054 l 747 1196 q 776 1165 767 1182 q 786 1121 786 1147 q 731 1024 786 1054 q 589 992 675 994 l 424 986 l 407 1054 z "},"Ř":{"ha":889,"x_min":-4,"x_max":889,"o":"m 0 0 m 167 917 q 292 919 258 919 q 486 924 399 924 q 703 907 618 924 q 838 839 788 890 q 889 688 889 788 q 828 502 889 576 q 664 406 767 428 q 757 190 706 274 q 867 82 808 107 q 703 -28 829 -28 q 555 33 610 -28 q 470 192 500 93 q 404 474 440 290 l 415 474 q 567 528 514 474 q 621 690 621 583 q 593 798 621 763 q 501 833 565 833 q 451 832 461 833 l 292 0 l -4 0 l 167 917 m 318 1122 l 388 1186 l 550 1114 l 756 1186 l 799 1122 l 581 961 l 489 961 l 318 1122 z "},"Ŗ":{"ha":889,"x_min":-4,"x_max":889,"o":"m 0 0 m 167 917 q 292 919 258 919 q 486 924 399 924 q 703 907 618 924 q 838 839 788 890 q 889 688 889 788 q 828 502 889 576 q 664 406 767 428 q 757 190 706 274 q 867 82 808 107 q 703 -28 829 -28 q 555 33 610 -28 q 470 192 500 93 q 404 474 440 290 l 415 474 q 567 528 514 474 q 621 690 621 583 q 593 798 621 763 q 501 833 565 833 q 451 832 461 833 l 292 0 l -4 0 l 167 917 m 501 -165 q 466 -268 501 -224 q 379 -335 431 -312 q 281 -358 328 -358 q 226 -353 246 -358 q 294 -260 274 -300 q 315 -162 315 -219 q 311 -125 315 -146 q 301 -92 307 -104 q 340 -78 313 -85 q 388 -71 368 -71 q 471 -97 440 -71 q 501 -165 501 -124 z "},"Ṛ":{"ha":889,"x_min":-4,"x_max":889,"o":"m 0 0 m 167 917 q 292 919 258 919 q 486 924 399 924 q 703 907 618 924 q 838 839 788 890 q 889 688 889 788 q 828 502 889 576 q 664 406 767 428 q 757 190 706 274 q 867 82 808 107 q 703 -28 829 -28 q 555 33 610 -28 q 470 192 500 93 q 404 474 440 290 l 415 474 q 567 528 514 474 q 621 690 621 583 q 593 798 621 763 q 501 833 565 833 q 451 832 461 833 l 292 0 l -4 0 l 167 917 m 392 -58 q 492 -86 454 -58 q 531 -164 531 -114 q 490 -242 531 -214 q 386 -269 450 -269 q 283 -242 322 -269 q 244 -167 244 -215 q 286 -87 244 -115 q 392 -58 328 -58 z "},"S":{"ha":804,"x_min":-3,"x_max":807,"o":"m 535 944 q 728 907 649 944 q 807 778 807 869 q 757 667 807 706 q 639 628 707 628 q 558 642 597 628 q 579 750 579 688 q 500 857 579 857 q 403 815 446 857 q 361 719 361 772 q 381 657 361 685 q 431 609 401 629 q 515 558 461 589 q 565 531 532 550 q 687 432 643 485 q 731 297 731 379 q 666 125 731 199 q 494 12 601 51 q 265 -28 388 -28 q 76 10 156 -28 q -3 146 -3 47 q 40 260 -3 215 q 158 304 83 304 q 257 286 208 304 q 235 165 235 229 q 252 92 235 117 q 314 67 269 67 q 409 99 368 67 q 450 182 450 131 q 410 269 450 233 q 293 350 371 304 l 250 376 q 131 479 174 424 q 88 619 88 535 q 146 790 88 715 q 306 904 204 864 q 535 944 408 944 z "},"Ś":{"ha":804,"x_min":-3,"x_max":810,"o":"m 0 0 m 535 944 q 728 907 649 944 q 807 778 807 869 q 757 667 807 706 q 639 628 707 628 q 558 642 597 628 q 579 750 579 688 q 500 857 579 857 q 403 815 446 857 q 361 719 361 772 q 381 657 361 685 q 431 609 401 629 q 515 558 461 589 q 565 531 532 550 q 687 432 643 485 q 731 297 731 379 q 666 125 731 199 q 494 12 601 51 q 265 -28 388 -28 q 76 10 156 -28 q -3 146 -3 47 q 40 260 -3 215 q 158 304 83 304 q 257 286 208 304 q 235 165 235 229 q 252 92 235 117 q 314 67 269 67 q 409 99 368 67 q 450 182 450 131 q 410 269 450 233 q 293 350 371 304 l 250 376 q 131 479 174 424 q 88 619 88 535 q 146 790 88 715 q 306 904 204 864 q 535 944 408 944 m 431 1054 l 771 1196 q 800 1165 790 1182 q 810 1121 810 1147 q 754 1024 810 1054 q 613 992 699 994 l 447 986 l 431 1054 z "},"Š":{"ha":804,"x_min":-3,"x_max":822,"o":"m 0 0 m 535 944 q 728 907 649 944 q 807 778 807 869 q 757 667 807 706 q 639 628 707 628 q 558 642 597 628 q 579 750 579 688 q 500 857 579 857 q 403 815 446 857 q 361 719 361 772 q 381 657 361 685 q 431 609 401 629 q 515 558 461 589 q 565 531 532 550 q 687 432 643 485 q 731 297 731 379 q 666 125 731 199 q 494 12 601 51 q 265 -28 388 -28 q 76 10 156 -28 q -3 146 -3 47 q 40 260 -3 215 q 158 304 83 304 q 257 286 208 304 q 235 165 235 229 q 252 92 235 117 q 314 67 269 67 q 409 99 368 67 q 450 182 450 131 q 410 269 450 233 q 293 350 371 304 l 250 376 q 131 479 174 424 q 88 619 88 535 q 146 790 88 715 q 306 904 204 864 q 535 944 408 944 m 342 1122 l 411 1186 l 574 1114 l 779 1186 l 822 1122 l 604 961 l 513 961 l 342 1122 z "},"Ş":{"ha":804,"x_min":-3,"x_max":807,"o":"m 639 628 q 558 642 597 628 q 579 750 579 688 q 500 857 579 857 q 403 815 446 857 q 361 719 361 772 q 381 657 361 685 q 431 609 401 629 q 515 558 461 589 q 565 531 532 550 q 687 432 643 485 q 731 297 731 379 q 680 143 731 211 q 543 33 629 75 q 351 -22 457 -10 l 333 -81 q 379 -79 349 -79 q 490 -107 447 -79 q 532 -192 532 -135 q 501 -278 532 -240 q 417 -337 469 -315 q 300 -358 364 -358 q 203 -339 239 -358 q 168 -285 168 -319 q 174 -249 168 -267 q 193 -219 181 -231 q 231 -253 207 -242 q 293 -264 254 -264 q 364 -204 364 -264 q 283 -153 364 -153 q 225 -156 264 -153 l 264 -28 q 76 10 154 -28 q -3 146 -3 47 q 40 260 -3 215 q 158 304 83 304 q 257 286 208 304 q 235 165 235 229 q 252 92 235 117 q 314 67 269 67 q 409 99 368 67 q 450 182 450 131 q 410 269 450 233 q 293 350 371 304 l 250 376 q 131 479 174 424 q 88 619 88 535 q 146 790 88 715 q 306 904 204 864 q 535 944 408 944 q 728 907 649 944 q 807 778 807 869 q 757 667 807 706 q 639 628 707 628 z "},"Ŝ":{"ha":804,"x_min":-3,"x_max":807,"o":"m 0 0 m 535 944 q 728 907 649 944 q 807 778 807 869 q 757 667 807 706 q 639 628 707 628 q 558 642 597 628 q 579 750 579 688 q 500 857 579 857 q 403 815 446 857 q 361 719 361 772 q 381 657 361 685 q 431 609 401 629 q 515 558 461 589 q 565 531 532 550 q 687 432 643 485 q 731 297 731 379 q 666 125 731 199 q 494 12 601 51 q 265 -28 388 -28 q 76 10 156 -28 q -3 146 -3 47 q 40 260 -3 215 q 158 304 83 304 q 257 286 208 304 q 235 165 235 229 q 252 92 235 117 q 314 67 269 67 q 409 99 368 67 q 450 182 450 131 q 410 269 450 233 q 293 350 371 304 l 250 376 q 131 479 174 424 q 88 619 88 535 q 146 790 88 715 q 306 904 204 864 q 535 944 408 944 m 783 1018 l 714 954 l 553 1026 l 347 954 l 304 1018 l 536 1179 l 599 1179 l 783 1018 z "},"Ș":{"ha":804,"x_min":-3,"x_max":807,"o":"m 0 0 m 535 944 q 728 907 649 944 q 807 778 807 869 q 757 667 807 706 q 639 628 707 628 q 558 642 597 628 q 579 750 579 688 q 500 857 579 857 q 403 815 446 857 q 361 719 361 772 q 381 657 361 685 q 431 609 401 629 q 515 558 461 589 q 565 531 532 550 q 687 432 643 485 q 731 297 731 379 q 666 125 731 199 q 494 12 601 51 q 265 -28 388 -28 q 76 10 156 -28 q -3 146 -3 47 q 40 260 -3 215 q 158 304 83 304 q 257 286 208 304 q 235 165 235 229 q 252 92 235 117 q 314 67 269 67 q 409 99 368 67 q 450 182 450 131 q 410 269 450 233 q 293 350 371 304 l 250 376 q 131 479 174 424 q 88 619 88 535 q 146 790 88 715 q 306 904 204 864 q 535 944 408 944 m 408 -165 q 373 -268 408 -224 q 286 -335 338 -312 q 188 -358 235 -358 q 133 -353 153 -358 q 201 -260 181 -300 q 222 -162 222 -219 q 218 -125 222 -146 q 208 -92 214 -104 q 247 -78 219 -85 q 294 -71 275 -71 q 378 -97 347 -71 q 408 -165 408 -124 z "},"Ṣ":{"ha":804,"x_min":-3,"x_max":807,"o":"m 0 0 m 535 944 q 728 907 649 944 q 807 778 807 869 q 757 667 807 706 q 639 628 707 628 q 558 642 597 628 q 579 750 579 688 q 500 857 579 857 q 403 815 446 857 q 361 719 361 772 q 381 657 361 685 q 431 609 401 629 q 515 558 461 589 q 565 531 532 550 q 687 432 643 485 q 731 297 731 379 q 666 125 731 199 q 494 12 601 51 q 265 -28 388 -28 q 76 10 156 -28 q -3 146 -3 47 q 40 260 -3 215 q 158 304 83 304 q 257 286 208 304 q 235 165 235 229 q 252 92 235 117 q 314 67 269 67 q 409 99 368 67 q 450 182 450 131 q 410 269 450 233 q 293 350 371 304 l 250 376 q 131 479 174 424 q 88 619 88 535 q 146 790 88 715 q 306 904 204 864 q 535 944 408 944 m 299 -58 q 399 -86 361 -58 q 438 -164 438 -114 q 397 -242 438 -214 q 293 -269 357 -269 q 190 -242 229 -269 q 151 -167 151 -215 q 193 -87 151 -115 q 299 -58 235 -58 z "},"ẞ":{"ha":1051,"x_min":-21,"x_max":1011,"o":"m 69 460 q 190 757 107 650 q 385 904 274 864 q 636 944 496 944 q 867 910 776 944 q 1011 807 957 875 q 863 721 939 774 q 786 600 786 668 q 804 547 786 568 q 863 493 822 525 q 953 404 921 449 q 985 283 985 360 q 931 118 985 189 q 788 10 876 47 q 594 -28 699 -28 q 437 5 504 -28 q 369 121 369 38 q 402 213 369 176 q 490 249 435 249 q 568 231 532 249 q 551 143 551 181 q 615 67 551 67 q 687 101 663 67 q 711 172 711 136 q 691 227 711 204 q 629 282 671 250 q 540 369 572 326 q 508 481 508 411 q 585 664 508 585 q 789 808 661 743 q 729 860 767 839 q 642 881 692 881 q 474 778 536 881 q 374 475 413 676 l 281 0 l -21 0 l 69 460 z "},"Ə":{"ha":819,"x_min":-19,"x_max":789,"o":"m 243 -36 q 52 10 124 -36 q -19 176 -19 57 q 86 390 -19 311 q 399 481 192 468 q 483 482 426 482 q 490 567 490 531 q 460 692 490 650 q 358 733 431 733 q 232 702 294 733 q 136 617 169 671 q 109 649 117 631 q 101 696 101 668 q 153 827 101 771 q 288 914 204 883 q 464 944 371 944 q 706 849 622 944 q 789 556 789 753 q 727 261 789 396 q 542 45 665 126 q 243 -36 418 -36 m 282 40 q 390 133 340 40 q 472 419 440 226 q 341 384 397 419 q 254 287 285 349 q 222 146 224 225 q 235 67 222 94 q 282 40 249 40 z "},"T":{"ha":632,"x_min":31,"x_max":735,"o":"m 578 917 q 714 931 669 917 q 729 895 724 918 q 735 851 735 872 q 694 772 735 793 q 581 750 654 750 l 510 750 l 406 221 q 393 107 393 151 q 399 56 393 81 q 411 19 404 32 q 254 -28 343 -28 q 144 9 181 -28 q 108 114 108 46 q 149 393 108 201 l 222 750 l 132 750 q 36 744 75 750 q 31 803 31 767 q 66 890 31 864 q 169 917 101 917 l 578 917 z "},"Ŧ":{"ha":632,"x_min":-4,"x_max":735,"o":"m 714 931 q 729 895 724 918 q 735 851 735 872 q 694 772 735 793 q 581 750 654 750 l 510 750 l 465 526 l 647 526 q 653 488 653 504 q 626 424 653 449 q 547 399 599 399 l 440 399 l 406 221 q 393 107 393 151 q 399 56 393 81 q 411 19 404 32 q 254 -28 343 -28 q 144 9 181 -28 q 108 114 108 46 q 128 278 108 165 l 149 399 l 0 399 q -4 436 -4 411 q 24 501 -3 476 q 90 526 50 526 l 176 526 l 222 750 l 132 750 q 36 744 75 750 q 31 803 31 767 q 66 890 31 864 q 169 917 101 917 l 578 917 q 714 931 669 917 z "},"Ť":{"ha":632,"x_min":31,"x_max":735,"o":"m 31 0 m 578 917 q 714 931 669 917 q 729 895 724 918 q 735 851 735 872 q 694 772 735 793 q 581 750 654 750 l 510 750 l 406 221 q 393 107 393 151 q 399 56 393 81 q 411 19 404 32 q 254 -28 343 -28 q 144 9 181 -28 q 108 114 108 46 q 149 393 108 201 l 222 750 l 132 750 q 36 744 75 750 q 31 803 31 767 q 66 890 31 864 q 169 917 101 917 l 578 917 m 197 1122 l 267 1186 l 429 1114 l 635 1186 l 678 1122 l 460 961 l 368 961 l 197 1122 z "},"Ţ":{"ha":632,"x_min":31,"x_max":735,"o":"m 714 931 q 729 895 724 918 q 735 851 735 872 q 694 772 735 793 q 581 750 654 750 l 510 750 l 406 221 q 393 107 393 151 q 399 56 393 81 q 411 19 404 32 q 265 -28 349 -24 l 249 -81 q 294 -79 264 -79 q 405 -107 363 -79 q 447 -192 447 -135 q 416 -278 447 -240 q 332 -337 385 -315 q 215 -358 279 -358 q 119 -339 154 -358 q 83 -285 83 -319 q 90 -249 83 -267 q 108 -219 96 -231 q 146 -253 122 -242 q 208 -264 169 -264 q 279 -204 279 -264 q 199 -153 279 -153 q 140 -156 179 -153 l 182 -15 q 108 114 108 15 q 149 393 108 201 l 222 750 l 132 750 q 36 744 75 750 q 31 803 31 767 q 66 890 31 864 q 169 917 101 917 l 578 917 q 714 931 669 917 z "},"Ț":{"ha":632,"x_min":31,"x_max":735,"o":"m 31 0 m 578 917 q 714 931 669 917 q 729 895 724 918 q 735 851 735 872 q 694 772 735 793 q 581 750 654 750 l 510 750 l 406 221 q 393 107 393 151 q 399 56 393 81 q 411 19 404 32 q 254 -28 343 -28 q 144 9 181 -28 q 108 114 108 46 q 149 393 108 201 l 222 750 l 132 750 q 36 744 75 750 q 31 803 31 767 q 66 890 31 864 q 169 917 101 917 l 578 917 m 324 -165 q 288 -268 324 -224 q 201 -335 253 -312 q 103 -358 150 -358 q 49 -353 68 -358 q 117 -260 96 -300 q 138 -162 138 -219 q 133 -125 138 -146 q 124 -92 129 -104 q 163 -78 135 -85 q 210 -71 190 -71 q 293 -97 263 -71 q 324 -165 324 -124 z "},"Ṭ":{"ha":632,"x_min":31,"x_max":735,"o":"m 31 0 m 578 917 q 714 931 669 917 q 729 895 724 918 q 735 851 735 872 q 694 772 735 793 q 581 750 654 750 l 510 750 l 406 221 q 393 107 393 151 q 399 56 393 81 q 411 19 404 32 q 254 -28 343 -28 q 144 9 181 -28 q 108 114 108 46 q 149 393 108 201 l 222 750 l 132 750 q 36 744 75 750 q 31 803 31 767 q 66 890 31 864 q 169 917 101 917 l 578 917 m 214 -58 q 315 -86 276 -58 q 353 -164 353 -114 q 313 -242 353 -214 q 208 -269 272 -269 q 106 -242 144 -269 q 67 -167 67 -215 q 108 -87 67 -115 q 214 -58 150 -58 z "},"U":{"ha":896,"x_min":36,"x_max":910,"o":"m 803 354 q 661 65 765 158 q 364 -28 557 -28 q 126 26 217 -28 q 36 197 36 79 q 42 273 36 226 q 54 357 47 319 l 163 917 l 468 917 l 360 339 q 343 199 343 253 q 429 100 343 100 q 511 129 481 100 q 559 208 542 158 q 592 339 576 258 l 701 917 l 910 917 l 803 354 z "},"Ú":{"ha":896,"x_min":36,"x_max":910,"o":"m 36 0 m 803 354 q 661 65 765 158 q 364 -28 557 -28 q 126 26 217 -28 q 36 197 36 79 q 42 273 36 226 q 54 357 47 319 l 163 917 l 468 917 l 360 339 q 343 199 343 253 q 429 100 343 100 q 511 129 481 100 q 559 208 542 158 q 592 339 576 258 l 701 917 l 910 917 l 803 354 m 463 1054 l 803 1196 q 832 1165 822 1182 q 842 1121 842 1147 q 786 1024 842 1054 q 644 992 731 994 l 479 986 l 463 1054 z "},"Ŭ":{"ha":896,"x_min":36,"x_max":910,"o":"m 36 0 m 803 354 q 661 65 765 158 q 364 -28 557 -28 q 126 26 217 -28 q 36 197 36 79 q 42 273 36 226 q 54 357 47 319 l 163 917 l 468 917 l 360 339 q 343 199 343 253 q 429 100 343 100 q 511 129 481 100 q 559 208 542 158 q 592 339 576 258 l 701 917 l 910 917 l 803 354 m 550 1158 q 544 1106 544 1119 q 553 1061 544 1081 q 594 1042 563 1042 q 644 1058 626 1042 q 670 1097 663 1075 q 688 1158 678 1119 l 888 1158 q 793 1025 869 1076 q 581 974 717 974 q 402 1016 465 974 q 339 1121 339 1058 q 343 1158 339 1138 l 550 1158 z "},"Û":{"ha":896,"x_min":36,"x_max":910,"o":"m 36 0 m 803 354 q 661 65 765 158 q 364 -28 557 -28 q 126 26 217 -28 q 36 197 36 79 q 42 273 36 226 q 54 357 47 319 l 163 917 l 468 917 l 360 339 q 343 199 343 253 q 429 100 343 100 q 511 129 481 100 q 559 208 542 158 q 592 339 576 258 l 701 917 l 910 917 l 803 354 m 815 1018 l 746 954 l 585 1026 l 379 954 l 336 1018 l 568 1179 l 631 1179 l 815 1018 z "},"Ü":{"ha":896,"x_min":36,"x_max":910,"o":"m 36 0 m 803 354 q 661 65 765 158 q 364 -28 557 -28 q 126 26 217 -28 q 36 197 36 79 q 42 273 36 226 q 54 357 47 319 l 163 917 l 468 917 l 360 339 q 343 199 343 253 q 429 100 343 100 q 511 129 481 100 q 559 208 542 158 q 592 339 576 258 l 701 917 l 910 917 l 803 354 m 435 1169 q 535 1142 497 1169 q 572 1064 572 1114 q 533 986 572 1014 q 429 958 493 958 q 326 985 365 958 q 288 1061 288 1013 q 329 1141 288 1113 q 435 1169 371 1169 m 760 1169 q 860 1142 822 1169 q 897 1064 897 1114 q 858 986 897 1014 q 754 958 818 958 q 651 985 690 958 q 613 1061 613 1013 q 654 1141 613 1113 q 760 1169 696 1169 z "},"Ụ":{"ha":896,"x_min":36,"x_max":910,"o":"m 36 0 m 803 354 q 661 65 765 158 q 364 -28 557 -28 q 126 26 217 -28 q 36 197 36 79 q 42 273 36 226 q 54 357 47 319 l 163 917 l 468 917 l 360 339 q 343 199 343 253 q 429 100 343 100 q 511 129 481 100 q 559 208 542 158 q 592 339 576 258 l 701 917 l 910 917 l 803 354 m 365 -58 q 466 -86 428 -58 q 504 -164 504 -114 q 464 -242 504 -214 q 360 -269 424 -269 q 257 -242 296 -269 q 218 -167 218 -215 q 260 -87 218 -115 q 365 -58 301 -58 z "},"Ù":{"ha":896,"x_min":36,"x_max":910,"o":"m 36 0 m 803 354 q 661 65 765 158 q 364 -28 557 -28 q 126 26 217 -28 q 36 197 36 79 q 42 273 36 226 q 54 357 47 319 l 163 917 l 468 917 l 360 339 q 343 199 343 253 q 429 100 343 100 q 511 129 481 100 q 559 208 542 158 q 592 339 576 258 l 701 917 l 910 917 l 803 354 m 719 988 l 554 993 q 413 1026 468 996 q 357 1122 357 1056 q 367 1166 357 1149 q 396 1197 376 1183 l 736 1056 l 719 988 z "},"Ű":{"ha":896,"x_min":36,"x_max":964,"o":"m 36 0 m 803 354 q 661 65 765 158 q 364 -28 557 -28 q 126 26 217 -28 q 36 197 36 79 q 42 273 36 226 q 54 357 47 319 l 163 917 l 468 917 l 360 339 q 343 199 343 253 q 429 100 343 100 q 511 129 481 100 q 559 208 542 158 q 592 339 576 258 l 701 917 l 910 917 l 803 354 m 600 1190 q 644 1158 628 1178 q 661 1114 661 1138 q 626 1040 661 1064 q 504 996 590 1015 l 381 968 l 342 1015 l 600 1190 m 904 1190 q 947 1158 931 1178 q 964 1115 964 1138 q 928 1041 964 1065 q 807 996 893 1017 l 686 968 l 646 1015 l 904 1190 z "},"Ū":{"ha":896,"x_min":36,"x_max":910,"o":"m 800 1156 q 806 1117 806 1133 q 778 1053 806 1078 q 700 1028 751 1028 l 375 1028 q 371 1065 371 1040 q 399 1131 372 1106 q 465 1156 425 1156 l 800 1156 m 803 354 q 661 65 765 158 q 364 -28 557 -28 q 126 26 217 -28 q 36 197 36 79 q 42 273 36 226 q 54 357 47 319 l 163 917 l 468 917 l 360 339 q 343 199 343 253 q 429 100 343 100 q 511 129 481 100 q 559 208 542 158 q 592 339 576 258 l 701 917 l 910 917 l 803 354 z "},"Ų":{"ha":896,"x_min":36,"x_max":910,"o":"m 910 917 l 803 354 q 722 136 778 221 q 575 11 667 51 q 488 -74 522 -26 q 454 -171 454 -122 q 519 -242 454 -242 q 606 -207 575 -242 q 625 -237 619 -224 q 631 -272 631 -251 q 591 -333 631 -308 q 481 -358 551 -358 q 347 -319 394 -358 q 299 -203 299 -279 q 394 -28 299 -96 l 364 -28 q 126 26 217 -28 q 36 197 36 79 q 42 273 36 226 q 54 357 47 319 l 163 917 l 468 917 l 360 339 q 343 199 343 253 q 429 100 343 100 q 511 129 481 100 q 559 208 542 158 q 592 339 576 258 l 701 917 l 910 917 z "},"Ů":{"ha":896,"x_min":36,"x_max":910,"o":"m 36 0 m 803 354 q 661 65 765 158 q 364 -28 557 -28 q 126 26 217 -28 q 36 197 36 79 q 42 273 36 226 q 54 357 47 319 l 163 917 l 468 917 l 360 339 q 343 199 343 253 q 429 100 343 100 q 511 129 481 100 q 559 208 542 158 q 592 339 576 258 l 701 917 l 910 917 l 803 354 m 758 1090 q 705 994 758 1031 q 579 958 651 958 q 486 983 521 958 q 451 1054 451 1008 q 506 1150 451 1114 q 633 1186 560 1186 q 724 1161 690 1186 q 758 1090 758 1136 m 664 1086 q 653 1121 664 1110 q 619 1132 643 1132 q 565 1110 585 1132 q 546 1054 546 1089 q 556 1019 546 1031 q 590 1008 567 1008 q 644 1030 625 1008 q 664 1086 664 1051 z "},"Ũ":{"ha":896,"x_min":36,"x_max":910,"o":"m 36 0 m 803 354 q 661 65 765 158 q 364 -28 557 -28 q 126 26 217 -28 q 36 197 36 79 q 42 273 36 226 q 54 357 47 319 l 163 917 l 468 917 l 360 339 q 343 199 343 253 q 429 100 343 100 q 511 129 481 100 q 559 208 542 158 q 592 339 576 258 l 701 917 l 910 917 l 803 354 m 831 1176 q 857 1106 857 1144 q 822 1029 857 1056 q 724 1003 786 1003 q 571 1017 685 1003 q 440 1028 463 1028 q 387 1021 413 1028 q 347 1004 361 1014 q 319 1083 319 1044 q 355 1152 319 1128 q 457 1176 390 1176 q 544 1171 490 1176 q 614 1164 599 1165 q 747 1153 719 1153 q 831 1176 807 1153 z "},"V":{"ha":750,"x_min":11,"x_max":881,"o":"m 83 668 q 11 861 74 811 q 178 944 54 944 q 302 909 258 944 q 362 811 346 874 q 378 654 378 749 l 378 171 l 710 917 l 881 917 l 449 0 l 125 0 l 83 668 z "},"W":{"ha":1258,"x_min":11,"x_max":1389,"o":"m 83 668 q 11 861 74 811 q 178 944 54 944 q 302 909 258 944 q 362 811 346 874 q 378 654 378 749 l 378 171 l 688 917 l 853 917 l 896 171 l 1218 917 l 1389 917 l 967 0 l 669 0 l 643 439 l 449 0 l 125 0 l 83 668 z "},"Ẃ":{"ha":1258,"x_min":11,"x_max":1389,"o":"m 11 0 m 83 668 q 11 861 74 811 q 178 944 54 944 q 302 909 258 944 q 362 811 346 874 q 378 654 378 749 l 378 171 l 688 917 l 853 917 l 896 171 l 1218 917 l 1389 917 l 967 0 l 669 0 l 643 439 l 449 0 l 125 0 l 83 668 m 679 1054 l 1019 1196 q 1049 1165 1039 1182 q 1058 1121 1058 1147 q 1003 1024 1058 1054 q 861 992 947 994 l 696 986 l 679 1054 z "},"Ŵ":{"ha":1258,"x_min":11,"x_max":1389,"o":"m 11 0 m 83 668 q 11 861 74 811 q 178 944 54 944 q 302 909 258 944 q 362 811 346 874 q 378 654 378 749 l 378 171 l 688 917 l 853 917 l 896 171 l 1218 917 l 1389 917 l 967 0 l 669 0 l 643 439 l 449 0 l 125 0 l 83 668 m 1032 1018 l 963 954 l 801 1026 l 596 954 l 553 1018 l 785 1179 l 847 1179 l 1032 1018 z "},"Ẅ":{"ha":1258,"x_min":11,"x_max":1389,"o":"m 11 0 m 83 668 q 11 861 74 811 q 178 944 54 944 q 302 909 258 944 q 362 811 346 874 q 378 654 378 749 l 378 171 l 688 917 l 853 917 l 896 171 l 1218 917 l 1389 917 l 967 0 l 669 0 l 643 439 l 449 0 l 125 0 l 83 668 m 651 1169 q 751 1142 714 1169 q 789 1064 789 1114 q 749 986 789 1014 q 646 958 710 958 q 543 985 582 958 q 504 1061 504 1013 q 546 1141 504 1113 q 651 1169 588 1169 m 976 1169 q 1076 1142 1039 1169 q 1114 1064 1114 1114 q 1074 986 1114 1014 q 971 958 1035 958 q 868 985 907 958 q 829 1061 829 1013 q 871 1141 829 1113 q 976 1169 913 1169 z "},"Ẁ":{"ha":1258,"x_min":11,"x_max":1389,"o":"m 11 0 m 83 668 q 11 861 74 811 q 178 944 54 944 q 302 909 258 944 q 362 811 346 874 q 378 654 378 749 l 378 171 l 688 917 l 853 917 l 896 171 l 1218 917 l 1389 917 l 967 0 l 669 0 l 643 439 l 449 0 l 125 0 l 83 668 m 936 988 l 771 993 q 629 1026 685 996 q 574 1122 574 1056 q 583 1166 574 1149 q 613 1197 593 1183 l 953 1056 l 936 988 z "},"X":{"ha":771,"x_min":-94,"x_max":868,"o":"m 138 722 q 93 815 115 783 q 36 865 71 847 q 229 943 107 943 q 347 909 306 943 q 417 789 388 875 l 475 624 l 686 917 l 868 917 l 532 464 l 619 217 q 673 120 639 161 q 738 72 707 79 q 666 -2 717 24 q 554 -28 615 -28 q 422 21 469 -28 q 340 167 374 69 l 296 286 l 89 0 l -94 0 l 238 446 l 138 722 z "},"Y":{"ha":761,"x_min":33,"x_max":903,"o":"m 436 482 q 603 835 519 726 q 792 944 686 944 q 903 869 885 944 q 682 681 792 821 q 506 356 572 542 l 436 0 l 135 0 l 215 408 q 170 653 194 564 q 114 790 146 743 q 33 865 82 838 q 109 924 63 903 q 215 944 156 944 q 383 858 332 944 q 436 582 435 772 l 436 482 z "},"Ý":{"ha":761,"x_min":33,"x_max":903,"o":"m 33 0 m 436 482 q 603 835 519 726 q 792 944 686 944 q 903 869 885 944 q 682 681 792 821 q 506 356 572 542 l 436 0 l 135 0 l 215 408 q 170 653 194 564 q 114 790 146 743 q 33 865 82 838 q 109 924 63 903 q 215 944 156 944 q 383 858 332 944 q 436 582 435 772 l 436 482 m 400 1054 l 740 1196 q 769 1165 760 1182 q 779 1121 779 1147 q 724 1024 779 1054 q 582 992 668 994 l 417 986 l 400 1054 z "},"Ŷ":{"ha":761,"x_min":33,"x_max":903,"o":"m 33 0 m 436 482 q 603 835 519 726 q 792 944 686 944 q 903 869 885 944 q 682 681 792 821 q 506 356 572 542 l 436 0 l 135 0 l 215 408 q 170 653 194 564 q 114 790 146 743 q 33 865 82 838 q 109 924 63 903 q 215 944 156 944 q 383 858 332 944 q 436 582 435 772 l 436 482 m 753 1018 l 683 954 l 522 1026 l 317 954 l 274 1018 l 506 1179 l 568 1179 l 753 1018 z "},"Ÿ":{"ha":761,"x_min":33,"x_max":903,"o":"m 33 0 m 436 482 q 603 835 519 726 q 792 944 686 944 q 903 869 885 944 q 682 681 792 821 q 506 356 572 542 l 436 0 l 135 0 l 215 408 q 170 653 194 564 q 114 790 146 743 q 33 865 82 838 q 109 924 63 903 q 215 944 156 944 q 383 858 332 944 q 436 582 435 772 l 436 482 m 372 1169 q 472 1142 435 1169 q 510 1064 510 1114 q 470 986 510 1014 q 367 958 431 958 q 264 985 303 958 q 225 1061 225 1013 q 267 1141 225 1113 q 372 1169 308 1169 m 697 1169 q 797 1142 760 1169 q 835 1064 835 1114 q 795 986 835 1014 q 692 958 756 958 q 589 985 628 958 q 550 1061 550 1013 q 592 1141 550 1113 q 697 1169 633 1169 z "},"Ỳ":{"ha":761,"x_min":33,"x_max":903,"o":"m 33 0 m 436 482 q 603 835 519 726 q 792 944 686 944 q 903 869 885 944 q 682 681 792 821 q 506 356 572 542 l 436 0 l 135 0 l 215 408 q 170 653 194 564 q 114 790 146 743 q 33 865 82 838 q 109 924 63 903 q 215 944 156 944 q 383 858 332 944 q 436 582 435 772 l 436 482 m 657 988 l 492 993 q 350 1026 406 996 q 294 1122 294 1056 q 304 1166 294 1149 q 333 1197 314 1183 l 674 1056 l 657 988 z "},"Ỹ":{"ha":761,"x_min":33,"x_max":903,"o":"m 33 0 m 436 482 q 603 835 519 726 q 792 944 686 944 q 903 869 885 944 q 682 681 792 821 q 506 356 572 542 l 436 0 l 135 0 l 215 408 q 170 653 194 564 q 114 790 146 743 q 33 865 82 838 q 109 924 63 903 q 215 944 156 944 q 383 858 332 944 q 436 582 435 772 l 436 482 m 768 1176 q 794 1106 794 1144 q 759 1029 794 1056 q 661 1003 724 1003 q 508 1017 622 1003 q 378 1028 400 1028 q 324 1021 350 1028 q 285 1004 299 1014 q 257 1083 257 1044 q 292 1152 257 1128 q 394 1176 328 1176 q 482 1171 428 1176 q 551 1164 536 1165 q 685 1153 657 1153 q 768 1176 744 1153 z "},"Z":{"ha":747,"x_min":-10,"x_max":779,"o":"m 513 667 q 268 696 318 696 q 192 687 232 696 q 122 664 153 678 q 85 788 85 722 q 135 901 85 864 q 278 938 186 938 q 439 921 328 938 q 604 903 542 903 q 724 917 668 903 q 779 786 779 869 q 757 694 779 733 q 686 617 735 656 l 238 251 q 360 229 293 236 q 488 222 428 222 q 579 231 542 222 q 643 265 617 239 q 672 213 664 239 q 679 154 679 186 q 628 27 679 71 q 454 -17 578 -17 q 249 6 374 -17 q 117 21 157 21 q 44 0 68 21 q 6 60 22 19 q -10 143 -10 101 q 75 301 -10 231 l 513 667 z "},"Ź":{"ha":747,"x_min":-10,"x_max":779,"o":"m 0 0 m 513 667 q 268 696 318 696 q 192 687 232 696 q 122 664 153 678 q 85 788 85 722 q 135 901 85 864 q 278 938 186 938 q 439 921 328 938 q 604 903 542 903 q 724 917 668 903 q 779 786 779 869 q 757 694 779 733 q 686 617 735 656 l 238 251 q 360 229 293 236 q 488 222 428 222 q 579 231 542 222 q 643 265 617 239 q 672 213 664 239 q 679 154 679 186 q 628 27 679 71 q 454 -17 578 -17 q 249 6 374 -17 q 117 21 157 21 q 44 0 68 21 q 6 60 22 19 q -10 143 -10 101 q 75 301 -10 231 l 513 667 m 326 1054 l 667 1196 q 696 1165 686 1182 q 706 1121 706 1147 q 650 1024 706 1054 q 508 992 594 994 l 343 986 l 326 1054 z "},"Ž":{"ha":747,"x_min":-10,"x_max":779,"o":"m 0 0 m 513 667 q 268 696 318 696 q 192 687 232 696 q 122 664 153 678 q 85 788 85 722 q 135 901 85 864 q 278 938 186 938 q 439 921 328 938 q 604 903 542 903 q 724 917 668 903 q 779 786 779 869 q 757 694 779 733 q 686 617 735 656 l 238 251 q 360 229 293 236 q 488 222 428 222 q 579 231 542 222 q 643 265 617 239 q 672 213 664 239 q 679 154 679 186 q 628 27 679 71 q 454 -17 578 -17 q 249 6 374 -17 q 117 21 157 21 q 44 0 68 21 q 6 60 22 19 q -10 143 -10 101 q 75 301 -10 231 l 513 667 m 238 1122 l 307 1186 l 469 1114 l 675 1186 l 718 1122 l 500 961 l 408 961 l 238 1122 z "},"Ż":{"ha":747,"x_min":-10,"x_max":779,"o":"m 454 1169 q 554 1142 517 1169 q 592 1064 592 1114 q 552 986 592 1014 q 449 958 513 958 q 346 985 385 958 q 307 1061 307 1013 q 349 1141 307 1113 q 454 1169 390 1169 m 513 667 q 268 696 318 696 q 192 687 232 696 q 122 664 153 678 q 85 788 85 722 q 135 901 85 864 q 278 938 186 938 q 439 921 328 938 q 604 903 542 903 q 724 917 668 903 q 779 786 779 869 q 757 694 779 733 q 686 617 735 656 l 238 251 q 360 229 293 236 q 488 222 428 222 q 579 231 542 222 q 643 265 617 239 q 672 213 664 239 q 679 154 679 186 q 628 27 679 71 q 454 -17 578 -17 q 249 6 374 -17 q 117 21 157 21 q 44 0 68 21 q 6 60 22 19 q -10 143 -10 101 q 75 301 -10 231 l 513 667 z "},"Ẓ":{"ha":747,"x_min":-10,"x_max":779,"o":"m 0 0 m 513 667 q 268 696 318 696 q 192 687 232 696 q 122 664 153 678 q 85 788 85 722 q 135 901 85 864 q 278 938 186 938 q 439 921 328 938 q 604 903 542 903 q 724 917 668 903 q 779 786 779 869 q 757 694 779 733 q 686 617 735 656 l 238 251 q 360 229 293 236 q 488 222 428 222 q 579 231 542 222 q 643 265 617 239 q 672 213 664 239 q 679 154 679 186 q 628 27 679 71 q 454 -17 578 -17 q 249 6 374 -17 q 117 21 157 21 q 44 0 68 21 q 6 60 22 19 q -10 143 -10 101 q 75 301 -10 231 l 513 667 m 310 -58 q 410 -86 372 -58 q 449 -164 449 -114 q 408 -242 449 -214 q 304 -269 368 -269 q 201 -242 240 -269 q 163 -167 163 -215 q 204 -87 163 -115 q 310 -58 246 -58 z "},"a":{"ha":832,"x_min":18,"x_max":811,"o":"m 711 207 q 704 149 704 169 q 721 99 704 119 q 769 75 738 78 q 703 -1 754 25 q 593 -28 651 -28 q 506 -8 544 -28 q 454 51 468 13 q 363 -7 419 14 q 240 -28 307 -28 q 70 42 122 -28 q 18 246 18 111 q 69 498 18 386 q 219 673 121 610 q 453 736 317 736 q 593 710 539 736 l 811 736 l 711 207 m 519 628 q 485 647 506 640 q 446 653 464 653 q 381 624 408 653 q 333 526 354 594 q 294 336 313 457 q 278 149 278 222 q 288 83 278 106 q 331 61 299 61 q 409 113 381 61 q 450 235 438 165 l 519 628 z "},"á":{"ha":832,"x_min":18,"x_max":811,"o":"m 18 0 m 711 207 q 704 149 704 169 q 721 99 704 119 q 769 75 738 78 q 703 -1 754 25 q 593 -28 651 -28 q 506 -8 544 -28 q 454 51 468 13 q 363 -7 419 14 q 240 -28 307 -28 q 70 42 122 -28 q 18 246 18 111 q 69 498 18 386 q 219 673 121 610 q 453 736 317 736 q 593 710 539 736 l 811 736 l 711 207 m 519 628 q 485 647 506 640 q 446 653 464 653 q 381 624 408 653 q 333 526 354 594 q 294 336 313 457 q 278 149 278 222 q 288 83 278 106 q 331 61 299 61 q 409 113 381 61 q 450 235 438 165 l 519 628 m 707 1078 q 756 986 756 1060 q 709 888 756 921 q 579 840 663 856 l 408 808 l 379 875 l 707 1078 z "},"ă":{"ha":832,"x_min":18,"x_max":838,"o":"m 18 0 m 711 207 q 704 149 704 169 q 721 99 704 119 q 769 75 738 78 q 703 -1 754 25 q 593 -28 651 -28 q 506 -8 544 -28 q 454 51 468 13 q 363 -7 419 14 q 240 -28 307 -28 q 70 42 122 -28 q 18 246 18 111 q 69 498 18 386 q 219 673 121 610 q 453 736 317 736 q 593 710 539 736 l 811 736 l 711 207 m 519 628 q 485 647 506 640 q 446 653 464 653 q 381 624 408 653 q 333 526 354 594 q 294 336 313 457 q 278 149 278 222 q 288 83 278 106 q 331 61 299 61 q 409 113 381 61 q 450 235 438 165 l 519 628 m 501 1032 q 496 990 496 1006 l 494 949 q 504 904 494 921 q 542 888 514 888 q 594 909 575 888 q 622 957 614 931 q 639 1032 629 983 l 838 1032 q 742 878 819 936 q 528 819 665 819 q 397 844 451 819 q 316 908 343 868 q 289 994 289 947 q 293 1032 289 1011 l 501 1032 z "},"â":{"ha":832,"x_min":18,"x_max":811,"o":"m 18 0 m 711 207 q 704 149 704 169 q 721 99 704 119 q 769 75 738 78 q 703 -1 754 25 q 593 -28 651 -28 q 506 -8 544 -28 q 454 51 468 13 q 363 -7 419 14 q 240 -28 307 -28 q 70 42 122 -28 q 18 246 18 111 q 69 498 18 386 q 219 673 121 610 q 453 736 317 736 q 593 710 539 736 l 811 736 l 711 207 m 519 628 q 485 647 506 640 q 446 653 464 653 q 381 624 408 653 q 333 526 354 594 q 294 336 313 457 q 278 149 278 222 q 288 83 278 106 q 331 61 299 61 q 409 113 381 61 q 450 235 438 165 l 519 628 m 774 881 l 704 817 l 543 889 l 338 817 l 294 881 l 526 1042 l 589 1042 l 774 881 z "},"ä":{"ha":832,"x_min":18,"x_max":867,"o":"m 18 0 m 711 207 q 704 149 704 169 q 721 99 704 119 q 769 75 738 78 q 703 -1 754 25 q 593 -28 651 -28 q 506 -8 544 -28 q 454 51 468 13 q 363 -7 419 14 q 240 -28 307 -28 q 70 42 122 -28 q 18 246 18 111 q 69 498 18 386 q 219 673 121 610 q 453 736 317 736 q 593 710 539 736 l 811 736 l 711 207 m 519 628 q 485 647 506 640 q 446 653 464 653 q 381 624 408 653 q 333 526 354 594 q 294 336 313 457 q 278 149 278 222 q 288 83 278 106 q 331 61 299 61 q 409 113 381 61 q 450 235 438 165 l 519 628 m 721 1042 q 826 1013 786 1042 q 867 931 867 983 q 824 849 867 878 q 715 819 782 819 q 608 848 649 819 q 567 928 567 876 q 610 1012 567 982 q 721 1042 654 1042 m 388 1042 q 493 1013 453 1042 q 533 931 533 983 q 491 849 533 878 q 382 819 449 819 q 274 848 315 819 q 233 928 233 876 q 277 1012 233 982 q 388 1042 321 1042 z "},"à":{"ha":832,"x_min":18,"x_max":811,"o":"m 18 0 m 711 207 q 704 149 704 169 q 721 99 704 119 q 769 75 738 78 q 703 -1 754 25 q 593 -28 651 -28 q 506 -8 544 -28 q 454 51 468 13 q 363 -7 419 14 q 240 -28 307 -28 q 70 42 122 -28 q 18 246 18 111 q 69 498 18 386 q 219 673 121 610 q 453 736 317 736 q 593 710 539 736 l 811 736 l 711 207 m 519 628 q 485 647 506 640 q 446 653 464 653 q 381 624 408 653 q 333 526 354 594 q 294 336 313 457 q 278 149 278 222 q 288 83 278 106 q 331 61 299 61 q 409 113 381 61 q 450 235 438 165 l 519 628 m 464 840 q 333 888 381 856 q 286 986 286 921 q 299 1043 286 1018 q 336 1078 311 1068 l 663 875 l 633 808 l 464 840 z "},"ā":{"ha":832,"x_min":18,"x_max":811,"o":"m 18 0 m 711 207 q 704 149 704 169 q 721 99 704 119 q 769 75 738 78 q 703 -1 754 25 q 593 -28 651 -28 q 506 -8 544 -28 q 454 51 468 13 q 363 -7 419 14 q 240 -28 307 -28 q 70 42 122 -28 q 18 246 18 111 q 69 498 18 386 q 219 673 121 610 q 453 736 317 736 q 593 710 539 736 l 811 736 l 711 207 m 519 628 q 485 647 506 640 q 446 653 464 653 q 381 624 408 653 q 333 526 354 594 q 294 336 313 457 q 278 149 278 222 q 288 83 278 106 q 331 61 299 61 q 409 113 381 61 q 450 235 438 165 l 519 628 m 769 992 q 775 953 775 969 q 748 889 775 914 q 671 864 721 864 l 346 864 q 342 901 342 876 q 369 967 343 942 q 436 992 396 992 l 769 992 z "},"ą":{"ha":832,"x_min":18,"x_max":811,"o":"m 667 -242 q 753 -207 722 -242 q 772 -237 767 -224 q 778 -272 778 -251 q 738 -333 778 -308 q 628 -358 699 -358 q 494 -319 542 -358 q 446 -203 446 -279 q 549 -24 446 -92 q 490 3 515 -15 q 454 51 464 22 q 363 -7 419 14 q 240 -28 307 -28 q 70 42 122 -28 q 18 246 18 111 q 69 498 18 386 q 219 673 121 610 q 453 736 317 736 q 593 710 539 736 l 811 736 l 711 207 q 704 149 704 169 q 721 99 704 119 q 769 75 738 78 q 728 15 760 40 l 728 14 q 637 -72 672 -24 q 601 -171 601 -121 q 667 -242 601 -242 m 519 628 q 485 647 506 640 q 446 653 464 653 q 381 624 408 653 q 333 526 354 594 q 294 336 313 457 q 278 149 278 222 q 288 83 278 106 q 331 61 299 61 q 409 113 381 61 q 450 235 438 165 l 519 628 z "},"å":{"ha":832,"x_min":18,"x_max":811,"o":"m 18 0 m 711 207 q 704 149 704 169 q 721 99 704 119 q 769 75 738 78 q 703 -1 754 25 q 593 -28 651 -28 q 506 -8 544 -28 q 454 51 468 13 q 363 -7 419 14 q 240 -28 307 -28 q 70 42 122 -28 q 18 246 18 111 q 69 498 18 386 q 219 673 121 610 q 453 736 317 736 q 593 710 539 736 l 811 736 l 711 207 m 519 628 q 485 647 506 640 q 446 653 464 653 q 381 624 408 653 q 333 526 354 594 q 294 336 313 457 q 278 149 278 222 q 288 83 278 106 q 331 61 299 61 q 409 113 381 61 q 450 235 438 165 l 519 628 m 514 789 q 416 817 451 789 q 381 900 381 846 q 437 1013 381 971 q 572 1056 493 1056 q 667 1027 633 1056 q 701 944 701 999 q 647 831 701 874 q 514 789 592 789 m 528 842 q 581 870 558 842 q 604 938 604 899 q 591 982 604 965 q 554 999 578 999 q 502 970 522 999 q 482 901 482 942 q 493 858 482 874 q 528 842 504 842 z "},"ǻ":{"ha":832,"x_min":18,"x_max":811,"o":"m 422 1135 l 763 1276 q 792 1245 782 1263 q 801 1201 801 1228 q 746 1105 801 1135 q 604 1072 690 1075 l 439 1067 l 422 1135 m 521 771 q 423 799 458 771 q 388 882 388 828 q 444 995 388 953 q 579 1038 500 1038 q 674 1009 640 1038 q 708 926 708 981 q 653 813 708 856 q 521 771 599 771 m 535 824 q 588 852 565 824 q 611 919 611 881 q 598 964 611 947 q 561 981 585 981 q 509 952 529 981 q 489 883 489 924 q 500 840 489 856 q 535 824 511 824 m 711 207 q 704 149 704 169 q 721 99 704 119 q 769 75 738 78 q 703 -1 754 25 q 593 -28 651 -28 q 506 -8 544 -28 q 454 51 468 13 q 363 -7 419 14 q 240 -28 307 -28 q 70 42 122 -28 q 18 246 18 111 q 69 498 18 386 q 219 673 121 610 q 453 736 317 736 q 593 710 539 736 l 811 736 l 711 207 m 519 628 q 485 647 506 640 q 446 653 464 653 q 381 624 408 653 q 333 526 354 594 q 294 336 313 457 q 278 149 278 222 q 288 83 278 106 q 331 61 299 61 q 409 113 381 61 q 450 235 438 165 l 519 628 z "},"ã":{"ha":832,"x_min":18,"x_max":811,"o":"m 18 0 m 711 207 q 704 149 704 169 q 721 99 704 119 q 769 75 738 78 q 703 -1 754 25 q 593 -28 651 -28 q 506 -8 544 -28 q 454 51 468 13 q 363 -7 419 14 q 240 -28 307 -28 q 70 42 122 -28 q 18 246 18 111 q 69 498 18 386 q 219 673 121 610 q 453 736 317 736 q 593 710 539 736 l 811 736 l 711 207 m 519 628 q 485 647 506 640 q 446 653 464 653 q 381 624 408 653 q 333 526 354 594 q 294 336 313 457 q 278 149 278 222 q 288 83 278 106 q 331 61 299 61 q 409 113 381 61 q 450 235 438 165 l 519 628 m 783 1010 q 810 939 810 978 q 774 863 810 889 q 676 836 739 836 q 522 850 636 836 q 393 861 417 861 q 340 854 365 861 q 300 838 314 847 q 272 917 272 878 q 308 985 272 961 q 408 1010 343 1010 q 494 1004 440 1010 q 567 997 549 999 q 700 986 672 986 q 783 1010 760 986 z "},"æ":{"ha":1118,"x_min":18,"x_max":1154,"o":"m 908 736 q 1090 699 1025 736 q 1154 567 1154 663 q 1071 403 1154 461 q 822 331 988 346 q 726 326 776 326 q 722 268 722 297 q 749 177 722 207 q 836 147 775 147 q 945 171 892 147 q 1025 235 999 194 q 1060 168 1060 214 q 1019 68 1060 113 q 906 -2 978 24 q 743 -28 833 -28 q 478 88 556 -28 q 249 -28 413 -28 q 72 40 125 -28 q 18 243 18 107 q 67 495 18 383 q 212 672 117 607 q 438 736 307 736 q 654 678 564 736 q 777 723 718 710 q 908 736 836 736 m 890 665 q 800 597 840 665 q 736 386 760 528 q 886 443 831 386 q 942 590 942 500 q 890 665 942 665 m 519 628 q 485 647 506 640 q 446 653 464 653 q 381 624 408 653 q 333 526 354 594 q 294 336 313 457 q 278 149 278 222 q 288 83 278 106 q 331 61 299 61 q 409 113 381 61 q 450 235 438 165 l 519 628 z "},"ǽ":{"ha":1118,"x_min":18,"x_max":1154,"o":"m 18 0 m 908 736 q 1090 699 1025 736 q 1154 567 1154 663 q 1071 403 1154 461 q 822 331 988 346 q 726 326 776 326 q 722 268 722 297 q 749 177 722 207 q 836 147 775 147 q 945 171 892 147 q 1025 235 999 194 q 1060 168 1060 214 q 1019 68 1060 113 q 906 -2 978 24 q 743 -28 833 -28 q 478 88 556 -28 q 249 -28 413 -28 q 72 40 125 -28 q 18 243 18 107 q 67 495 18 383 q 212 672 117 607 q 438 736 307 736 q 654 678 564 736 q 777 723 718 710 q 908 736 836 736 m 890 665 q 800 597 840 665 q 736 386 760 528 q 886 443 831 386 q 942 590 942 500 q 890 665 942 665 m 519 628 q 485 647 506 640 q 446 653 464 653 q 381 624 408 653 q 333 526 354 594 q 294 336 313 457 q 278 149 278 222 q 288 83 278 106 q 331 61 299 61 q 409 113 381 61 q 450 235 438 165 l 519 628 m 863 1078 q 911 986 911 1060 q 865 888 911 921 q 735 840 818 856 l 564 808 l 535 875 l 863 1078 z "},"b":{"ha":801,"x_min":3,"x_max":783,"o":"m 421 838 q 369 658 400 726 q 461 716 407 696 q 578 736 515 736 q 736 669 689 736 q 783 474 783 603 q 732 216 783 329 q 581 38 681 103 q 338 -28 481 -28 q 151 -5 249 -28 q 3 67 54 18 l 175 972 l 453 1000 l 421 838 m 275 81 q 351 56 304 56 q 442 122 406 56 q 504 365 478 188 q 521 551 521 479 q 511 617 521 594 q 469 639 501 639 q 384 578 413 639 q 340 431 356 517 l 275 81 z "},"c":{"ha":667,"x_min":22,"x_max":704,"o":"m 479 736 q 642 701 581 736 q 704 586 704 665 q 657 482 704 517 q 539 447 610 447 q 476 458 496 447 q 494 526 488 486 q 501 597 501 567 q 493 640 501 625 q 461 654 485 654 q 369 588 410 654 q 307 430 329 521 q 285 274 285 339 q 310 180 285 213 q 392 147 335 147 q 498 177 449 147 q 568 258 547 207 q 608 224 596 243 q 621 174 621 204 q 577 66 621 111 q 462 -3 533 21 q 311 -28 390 -28 q 97 49 172 -28 q 22 279 22 125 q 78 516 22 413 q 238 678 135 619 q 479 736 342 736 z "},"ć":{"ha":667,"x_min":22,"x_max":718,"o":"m 22 0 m 479 736 q 642 701 581 736 q 704 586 704 665 q 657 482 704 517 q 539 447 610 447 q 476 458 496 447 q 494 526 488 486 q 501 597 501 567 q 493 640 501 625 q 461 654 485 654 q 369 588 410 654 q 307 430 329 521 q 285 274 285 339 q 310 180 285 213 q 392 147 335 147 q 498 177 449 147 q 568 258 547 207 q 608 224 596 243 q 621 174 621 204 q 577 66 621 111 q 462 -3 533 21 q 311 -28 390 -28 q 97 49 172 -28 q 22 279 22 125 q 78 516 22 413 q 238 678 135 619 q 479 736 342 736 m 669 1078 q 718 986 718 1060 q 672 888 718 921 q 542 840 625 856 l 371 808 l 342 875 l 669 1078 z "},"č":{"ha":667,"x_min":22,"x_max":750,"o":"m 22 0 m 479 736 q 642 701 581 736 q 704 586 704 665 q 657 482 704 517 q 539 447 610 447 q 476 458 496 447 q 494 526 488 486 q 501 597 501 567 q 493 640 501 625 q 461 654 485 654 q 369 588 410 654 q 307 430 329 521 q 285 274 285 339 q 310 180 285 213 q 392 147 335 147 q 498 177 449 147 q 568 258 547 207 q 608 224 596 243 q 621 174 621 204 q 577 66 621 111 q 462 -3 533 21 q 311 -28 390 -28 q 97 49 172 -28 q 22 279 22 125 q 78 516 22 413 q 238 678 135 619 q 479 736 342 736 m 269 1018 l 339 1082 l 501 982 l 707 1082 l 750 1018 l 532 829 l 440 829 l 269 1018 z "},"ç":{"ha":667,"x_min":22,"x_max":704,"o":"m 539 447 q 476 458 496 447 q 494 526 488 486 q 501 597 501 567 q 493 640 501 625 q 461 654 485 654 q 369 588 410 654 q 307 430 329 521 q 285 274 285 339 q 310 180 285 213 q 392 147 335 147 q 498 177 449 147 q 568 258 547 207 q 608 224 596 243 q 621 174 621 204 q 546 39 621 92 q 361 -25 471 -14 l 344 -81 q 390 -79 360 -79 q 501 -107 458 -79 q 543 -192 543 -135 q 512 -278 543 -240 q 428 -337 481 -315 q 311 -358 375 -358 q 215 -339 250 -358 q 179 -285 179 -319 q 185 -249 179 -267 q 204 -219 192 -231 q 242 -253 218 -242 q 304 -264 265 -264 q 375 -204 375 -264 q 294 -153 375 -153 q 236 -156 275 -153 l 275 -26 q 88 59 153 -17 q 22 279 22 135 q 78 516 22 413 q 238 678 135 619 q 479 736 342 736 q 642 701 581 736 q 704 586 704 665 q 657 482 704 517 q 539 447 610 447 z "},"ĉ":{"ha":667,"x_min":22,"x_max":736,"o":"m 22 0 m 479 736 q 642 701 581 736 q 704 586 704 665 q 657 482 704 517 q 539 447 610 447 q 476 458 496 447 q 494 526 488 486 q 501 597 501 567 q 493 640 501 625 q 461 654 485 654 q 369 588 410 654 q 307 430 329 521 q 285 274 285 339 q 310 180 285 213 q 392 147 335 147 q 498 177 449 147 q 568 258 547 207 q 608 224 596 243 q 621 174 621 204 q 577 66 621 111 q 462 -3 533 21 q 311 -28 390 -28 q 97 49 172 -28 q 22 279 22 125 q 78 516 22 413 q 238 678 135 619 q 479 736 342 736 m 736 881 l 667 817 l 506 889 l 300 817 l 257 881 l 489 1042 l 551 1042 l 736 881 z "},"ċ":{"ha":667,"x_min":22,"x_max":704,"o":"m 22 0 m 479 736 q 642 701 581 736 q 704 586 704 665 q 657 482 704 517 q 539 447 610 447 q 476 458 496 447 q 494 526 488 486 q 501 597 501 567 q 493 640 501 625 q 461 654 485 654 q 369 588 410 654 q 307 430 329 521 q 285 274 285 339 q 310 180 285 213 q 392 147 335 147 q 498 177 449 147 q 568 258 547 207 q 608 224 596 243 q 621 174 621 204 q 577 66 621 111 q 462 -3 533 21 q 311 -28 390 -28 q 97 49 172 -28 q 22 279 22 125 q 78 516 22 413 q 238 678 135 619 q 479 736 342 736 m 514 1042 q 619 1013 579 1042 q 660 931 660 983 q 617 849 660 878 q 508 819 575 819 q 401 848 442 819 q 360 928 360 876 q 403 1012 360 982 q 514 1042 447 1042 z "},"d":{"ha":832,"x_min":18,"x_max":861,"o":"m 711 207 q 704 149 704 169 q 721 99 704 119 q 769 75 738 78 q 703 -1 754 25 q 593 -28 651 -28 q 506 -8 544 -28 q 454 51 468 13 q 363 -7 419 14 q 240 -28 307 -28 q 70 42 122 -28 q 18 246 18 111 q 69 497 18 386 q 219 672 121 608 q 453 736 317 736 q 542 726 504 736 l 586 972 l 861 1000 l 711 207 m 519 628 q 485 647 506 640 q 446 653 464 653 q 381 624 408 653 q 333 526 354 594 q 294 336 313 457 q 278 149 278 222 q 288 83 278 106 q 331 61 299 61 q 409 113 381 61 q 450 235 438 165 l 519 628 z "},"ð":{"ha":811,"x_min":19,"x_max":847,"o":"m 847 950 q 831 911 847 926 q 778 882 815 896 l 738 868 q 772 772 763 821 q 782 658 782 722 q 735 351 782 508 q 580 83 689 193 q 297 -28 471 -28 q 91 45 163 -28 q 19 263 19 118 q 73 495 19 390 q 222 660 126 600 q 438 721 317 721 q 499 717 469 721 q 544 706 529 713 q 551 774 551 743 q 550 801 551 792 l 407 750 q 386 797 386 771 q 432 854 386 839 l 511 883 q 446 904 485 904 q 417 900 431 904 q 397 892 403 896 q 392 917 392 900 q 430 977 392 954 q 531 1000 468 1000 q 681 944 617 1000 l 829 1000 q 842 978 838 992 q 847 950 847 964 m 483 372 q 528 613 508 494 q 490 632 514 625 q 442 639 465 639 q 360 591 389 639 q 308 424 332 543 q 279 169 279 276 q 291 82 279 110 q 331 54 303 54 q 411 130 374 54 q 483 372 449 206 z "},"ď":{"ha":832,"x_min":18,"x_max":1083,"o":"m 18 0 m 711 207 q 704 149 704 169 q 721 99 704 119 q 769 75 738 78 q 703 -1 754 25 q 593 -28 651 -28 q 506 -8 544 -28 q 454 51 468 13 q 363 -7 419 14 q 240 -28 307 -28 q 70 42 122 -28 q 18 246 18 111 q 69 497 18 386 q 219 672 121 608 q 453 736 317 736 q 542 726 504 736 l 586 972 l 861 1000 l 711 207 m 519 628 q 485 647 506 640 q 446 653 464 653 q 381 624 408 653 q 333 526 354 594 q 294 336 313 457 q 278 149 278 222 q 288 83 278 106 q 331 61 299 61 q 409 113 381 61 q 450 235 438 165 l 519 628 m 901 978 q 940 991 915 985 q 986 997 965 997 q 1056 968 1029 997 q 1083 889 1083 939 q 1059 815 1083 853 q 992 753 1035 778 q 896 728 949 728 q 847 736 872 728 q 900 820 886 781 q 914 900 914 860 q 901 978 914 939 z "},"đ":{"ha":835,"x_min":25,"x_max":954,"o":"m 949 907 q 954 868 954 885 q 927 804 954 829 q 849 779 900 779 l 826 779 l 718 207 q 711 149 711 169 q 728 99 711 119 q 776 75 744 78 q 710 -1 761 25 q 600 -28 658 -28 q 513 -8 551 -28 q 461 51 475 13 q 370 -7 426 14 q 247 -28 314 -28 q 77 42 129 -28 q 25 246 25 111 q 76 497 25 386 q 226 672 128 608 q 460 736 324 736 q 549 726 511 736 l 558 779 l 413 779 q 408 817 408 792 q 436 882 410 857 q 503 907 463 907 l 582 907 l 593 972 l 868 1000 l 850 907 l 949 907 m 526 628 q 492 647 513 640 q 453 653 471 653 q 388 624 415 653 q 340 526 361 594 q 301 336 319 457 q 285 149 285 222 q 295 83 285 106 q 338 61 306 61 q 416 113 388 61 q 457 235 444 165 l 526 628 z "},"ḍ":{"ha":832,"x_min":18,"x_max":861,"o":"m 18 0 m 711 207 q 704 149 704 169 q 721 99 704 119 q 769 75 738 78 q 703 -1 754 25 q 593 -28 651 -28 q 506 -8 544 -28 q 454 51 468 13 q 363 -7 419 14 q 240 -28 307 -28 q 70 42 122 -28 q 18 246 18 111 q 69 497 18 386 q 219 672 121 608 q 453 736 317 736 q 542 726 504 736 l 586 972 l 861 1000 l 711 207 m 519 628 q 485 647 506 640 q 446 653 464 653 q 381 624 408 653 q 333 526 354 594 q 294 336 313 457 q 278 149 278 222 q 288 83 278 106 q 331 61 299 61 q 409 113 381 61 q 450 235 438 165 l 519 628 m 344 -58 q 445 -86 407 -58 q 483 -164 483 -114 q 443 -242 483 -214 q 339 -269 403 -269 q 236 -242 275 -269 q 197 -167 197 -215 q 239 -87 197 -115 q 344 -58 281 -58 z "},"ǳ":{"ha":1460,"x_min":18,"x_max":1489,"o":"m 18 0 m 711 207 q 704 149 704 169 q 721 99 704 119 q 769 75 738 78 q 703 -1 754 25 q 593 -28 651 -28 q 506 -8 544 -28 q 454 51 468 13 q 363 -7 419 14 q 240 -28 307 -28 q 70 42 122 -28 q 18 246 18 111 q 69 497 18 386 q 219 672 121 608 q 453 736 317 736 q 542 726 504 736 l 586 972 l 861 1000 l 711 207 m 519 628 q 485 647 506 640 q 446 653 464 653 q 381 624 408 653 q 333 526 354 594 q 294 336 313 457 q 278 149 278 222 q 288 83 278 106 q 331 61 299 61 q 409 113 381 61 q 450 235 438 165 l 519 628 m 1244 493 q 1149 513 1200 506 q 1063 521 1099 521 q 935 460 967 521 q 900 524 913 486 q 888 599 888 561 q 935 703 888 671 q 1061 736 982 736 q 1159 728 1104 736 q 1225 718 1214 719 q 1375 701 1333 701 q 1453 717 1426 701 q 1489 633 1489 682 q 1466 556 1489 590 q 1401 492 1443 522 l 1058 233 q 1242 201 1169 201 q 1324 215 1283 201 q 1389 257 1364 229 q 1428 142 1428 213 q 1376 15 1428 58 q 1239 -28 1325 -28 q 1093 -7 1185 -28 q 953 13 999 13 q 865 -1 910 13 q 818 94 818 29 q 901 244 818 178 l 1244 493 z "},"ǆ":{"ha":1460,"x_min":18,"x_max":1496,"o":"m 18 0 m 711 207 q 704 149 704 169 q 721 99 704 119 q 769 75 738 78 q 703 -1 754 25 q 593 -28 651 -28 q 506 -8 544 -28 q 454 51 468 13 q 363 -7 419 14 q 240 -28 307 -28 q 70 42 122 -28 q 18 246 18 111 q 69 497 18 386 q 219 672 121 608 q 453 736 317 736 q 542 726 504 736 l 586 972 l 861 1000 l 711 207 m 519 628 q 485 647 506 640 q 446 653 464 653 q 381 624 408 653 q 333 526 354 594 q 294 336 313 457 q 278 149 278 222 q 288 83 278 106 q 331 61 299 61 q 409 113 381 61 q 450 235 438 165 l 519 628 m 1244 493 q 1149 513 1200 506 q 1063 521 1099 521 q 935 460 967 521 q 900 524 913 486 q 888 599 888 561 q 935 703 888 671 q 1061 736 982 736 q 1159 728 1104 736 q 1225 718 1214 719 q 1375 701 1333 701 q 1453 717 1426 701 q 1489 633 1489 682 q 1466 556 1489 590 q 1401 492 1443 522 l 1058 233 q 1242 201 1169 201 q 1324 215 1283 201 q 1389 257 1364 229 q 1428 142 1428 213 q 1376 15 1428 58 q 1239 -28 1325 -28 q 1093 -7 1185 -28 q 953 13 999 13 q 865 -1 910 13 q 818 94 818 29 q 901 244 818 178 l 1244 493 m 1015 1018 l 1085 1082 l 1247 982 l 1453 1082 l 1496 1018 l 1278 829 l 1186 829 l 1015 1018 z "},"e":{"ha":699,"x_min":22,"x_max":715,"o":"m 483 736 q 715 567 715 736 q 626 399 715 461 q 358 328 536 338 q 288 326 336 326 q 283 268 283 297 q 310 177 283 207 q 397 147 336 147 q 506 171 453 147 q 586 235 560 194 q 621 168 621 214 q 578 65 621 110 q 463 -4 535 19 q 313 -28 392 -28 q 98 48 174 -28 q 22 276 22 124 q 74 506 22 401 q 228 673 125 610 q 483 736 332 736 m 453 665 q 362 597 403 665 q 297 386 321 528 q 447 443 392 386 q 503 590 503 500 q 492 646 503 626 q 453 665 481 665 z "},"é":{"ha":699,"x_min":22,"x_max":718,"o":"m 22 0 m 483 736 q 715 567 715 736 q 626 399 715 461 q 358 328 536 338 q 288 326 336 326 q 283 268 283 297 q 310 177 283 207 q 397 147 336 147 q 506 171 453 147 q 586 235 560 194 q 621 168 621 214 q 578 65 621 110 q 463 -4 535 19 q 313 -28 392 -28 q 98 48 174 -28 q 22 276 22 124 q 74 506 22 401 q 228 673 125 610 q 483 736 332 736 m 453 665 q 362 597 403 665 q 297 386 321 528 q 447 443 392 386 q 503 590 503 500 q 492 646 503 626 q 453 665 481 665 m 669 1078 q 718 986 718 1060 q 672 888 718 921 q 542 840 625 856 l 371 808 l 342 875 l 669 1078 z "},"ĕ":{"ha":699,"x_min":22,"x_max":800,"o":"m 22 0 m 483 736 q 715 567 715 736 q 626 399 715 461 q 358 328 536 338 q 288 326 336 326 q 283 268 283 297 q 310 177 283 207 q 397 147 336 147 q 506 171 453 147 q 586 235 560 194 q 621 168 621 214 q 578 65 621 110 q 463 -4 535 19 q 313 -28 392 -28 q 98 48 174 -28 q 22 276 22 124 q 74 506 22 401 q 228 673 125 610 q 483 736 332 736 m 453 665 q 362 597 403 665 q 297 386 321 528 q 447 443 392 386 q 503 590 503 500 q 492 646 503 626 q 453 665 481 665 m 464 1032 q 458 990 458 1006 l 457 949 q 467 904 457 921 q 504 888 476 888 q 557 909 538 888 q 584 957 576 931 q 601 1032 592 983 l 800 1032 q 705 878 782 936 q 490 819 628 819 q 360 844 414 819 q 278 908 306 868 q 251 994 251 947 q 256 1032 251 1011 l 464 1032 z "},"ě":{"ha":699,"x_min":22,"x_max":750,"o":"m 22 0 m 483 736 q 715 567 715 736 q 626 399 715 461 q 358 328 536 338 q 288 326 336 326 q 283 268 283 297 q 310 177 283 207 q 397 147 336 147 q 506 171 453 147 q 586 235 560 194 q 621 168 621 214 q 578 65 621 110 q 463 -4 535 19 q 313 -28 392 -28 q 98 48 174 -28 q 22 276 22 124 q 74 506 22 401 q 228 673 125 610 q 483 736 332 736 m 453 665 q 362 597 403 665 q 297 386 321 528 q 447 443 392 386 q 503 590 503 500 q 492 646 503 626 q 453 665 481 665 m 269 1018 l 339 1082 l 501 982 l 707 1082 l 750 1018 l 532 829 l 440 829 l 269 1018 z "},"ê":{"ha":699,"x_min":22,"x_max":736,"o":"m 22 0 m 483 736 q 715 567 715 736 q 626 399 715 461 q 358 328 536 338 q 288 326 336 326 q 283 268 283 297 q 310 177 283 207 q 397 147 336 147 q 506 171 453 147 q 586 235 560 194 q 621 168 621 214 q 578 65 621 110 q 463 -4 535 19 q 313 -28 392 -28 q 98 48 174 -28 q 22 276 22 124 q 74 506 22 401 q 228 673 125 610 q 483 736 332 736 m 453 665 q 362 597 403 665 q 297 386 321 528 q 447 443 392 386 q 503 590 503 500 q 492 646 503 626 q 453 665 481 665 m 736 881 l 667 817 l 506 889 l 300 817 l 257 881 l 489 1042 l 551 1042 l 736 881 z "},"ë":{"ha":699,"x_min":22,"x_max":829,"o":"m 22 0 m 483 736 q 715 567 715 736 q 626 399 715 461 q 358 328 536 338 q 288 326 336 326 q 283 268 283 297 q 310 177 283 207 q 397 147 336 147 q 506 171 453 147 q 586 235 560 194 q 621 168 621 214 q 578 65 621 110 q 463 -4 535 19 q 313 -28 392 -28 q 98 48 174 -28 q 22 276 22 124 q 74 506 22 401 q 228 673 125 610 q 483 736 332 736 m 453 665 q 362 597 403 665 q 297 386 321 528 q 447 443 392 386 q 503 590 503 500 q 492 646 503 626 q 453 665 481 665 m 683 1042 q 789 1013 749 1042 q 829 931 829 983 q 787 849 829 878 q 678 819 744 819 q 570 848 611 819 q 529 928 529 876 q 573 1012 529 982 q 683 1042 617 1042 m 350 1042 q 456 1013 415 1042 q 496 931 496 983 q 453 849 496 878 q 344 819 411 819 q 237 848 278 819 q 196 928 196 876 q 240 1012 196 982 q 350 1042 283 1042 z "},"ė":{"ha":699,"x_min":22,"x_max":715,"o":"m 22 0 m 483 736 q 715 567 715 736 q 626 399 715 461 q 358 328 536 338 q 288 326 336 326 q 283 268 283 297 q 310 177 283 207 q 397 147 336 147 q 506 171 453 147 q 586 235 560 194 q 621 168 621 214 q 578 65 621 110 q 463 -4 535 19 q 313 -28 392 -28 q 98 48 174 -28 q 22 276 22 124 q 74 506 22 401 q 228 673 125 610 q 483 736 332 736 m 453 665 q 362 597 403 665 q 297 386 321 528 q 447 443 392 386 q 503 590 503 500 q 492 646 503 626 q 453 665 481 665 m 514 1042 q 619 1013 579 1042 q 660 931 660 983 q 617 849 660 878 q 508 819 575 819 q 401 848 442 819 q 360 928 360 876 q 403 1012 360 982 q 514 1042 447 1042 z "},"ẹ":{"ha":699,"x_min":22,"x_max":715,"o":"m 22 0 m 483 736 q 715 567 715 736 q 626 399 715 461 q 358 328 536 338 q 288 326 336 326 q 283 268 283 297 q 310 177 283 207 q 397 147 336 147 q 506 171 453 147 q 586 235 560 194 q 621 168 621 214 q 578 65 621 110 q 463 -4 535 19 q 313 -28 392 -28 q 98 48 174 -28 q 22 276 22 124 q 74 506 22 401 q 228 673 125 610 q 483 736 332 736 m 453 665 q 362 597 403 665 q 297 386 321 528 q 447 443 392 386 q 503 590 503 500 q 492 646 503 626 q 453 665 481 665 m 317 -58 q 417 -86 379 -58 q 456 -164 456 -114 q 415 -242 456 -214 q 311 -269 375 -269 q 208 -242 247 -269 q 169 -167 169 -215 q 211 -87 169 -115 q 317 -58 253 -58 z "},"è":{"ha":699,"x_min":22,"x_max":715,"o":"m 22 0 m 483 736 q 715 567 715 736 q 626 399 715 461 q 358 328 536 338 q 288 326 336 326 q 283 268 283 297 q 310 177 283 207 q 397 147 336 147 q 506 171 453 147 q 586 235 560 194 q 621 168 621 214 q 578 65 621 110 q 463 -4 535 19 q 313 -28 392 -28 q 98 48 174 -28 q 22 276 22 124 q 74 506 22 401 q 228 673 125 610 q 483 736 332 736 m 453 665 q 362 597 403 665 q 297 386 321 528 q 447 443 392 386 q 503 590 503 500 q 492 646 503 626 q 453 665 481 665 m 426 840 q 296 888 343 856 q 249 986 249 921 q 261 1043 249 1018 q 299 1078 274 1068 l 625 875 l 596 808 l 426 840 z "},"ē":{"ha":699,"x_min":22,"x_max":738,"o":"m 22 0 m 483 736 q 715 567 715 736 q 626 399 715 461 q 358 328 536 338 q 288 326 336 326 q 283 268 283 297 q 310 177 283 207 q 397 147 336 147 q 506 171 453 147 q 586 235 560 194 q 621 168 621 214 q 578 65 621 110 q 463 -4 535 19 q 313 -28 392 -28 q 98 48 174 -28 q 22 276 22 124 q 74 506 22 401 q 228 673 125 610 q 483 736 332 736 m 453 665 q 362 597 403 665 q 297 386 321 528 q 447 443 392 386 q 503 590 503 500 q 492 646 503 626 q 453 665 481 665 m 732 992 q 738 953 738 969 q 710 889 738 914 q 633 864 683 864 l 308 864 q 304 901 304 876 q 332 967 306 942 q 399 992 358 992 l 732 992 z "},"ę":{"ha":699,"x_min":22,"x_max":715,"o":"m 358 328 q 288 326 336 326 q 283 268 283 297 q 310 177 283 207 q 397 147 336 147 q 506 171 453 147 q 586 235 560 194 q 621 168 621 214 q 591 81 621 119 q 507 14 561 42 q 416 -72 451 -24 q 381 -171 381 -121 q 446 -242 381 -242 q 532 -207 501 -242 q 551 -237 546 -224 q 557 -272 557 -251 q 517 -333 557 -308 q 407 -358 478 -358 q 273 -319 321 -358 q 225 -203 225 -279 q 321 -28 225 -96 l 313 -28 q 98 48 174 -28 q 22 276 22 124 q 74 506 22 401 q 228 673 125 610 q 483 736 332 736 q 715 567 715 736 q 626 399 715 461 q 358 328 536 338 m 453 665 q 362 597 403 665 q 297 386 321 528 q 447 443 392 386 q 503 590 503 500 q 492 646 503 626 q 453 665 481 665 z "},"ẽ":{"ha":699,"x_min":22,"x_max":772,"o":"m 22 0 m 483 736 q 715 567 715 736 q 626 399 715 461 q 358 328 536 338 q 288 326 336 326 q 283 268 283 297 q 310 177 283 207 q 397 147 336 147 q 506 171 453 147 q 586 235 560 194 q 621 168 621 214 q 578 65 621 110 q 463 -4 535 19 q 313 -28 392 -28 q 98 48 174 -28 q 22 276 22 124 q 74 506 22 401 q 228 673 125 610 q 483 736 332 736 m 453 665 q 362 597 403 665 q 297 386 321 528 q 447 443 392 386 q 503 590 503 500 q 492 646 503 626 q 453 665 481 665 m 746 1010 q 772 939 772 978 q 737 863 772 889 q 639 836 701 836 q 485 850 599 836 q 356 861 379 861 q 302 854 328 861 q 263 838 276 847 q 235 917 235 878 q 270 985 235 961 q 371 1010 306 1010 q 457 1004 403 1010 q 529 997 511 999 q 663 986 635 986 q 746 1010 722 986 z "},"ə":{"ha":718,"x_min":-8,"x_max":685,"o":"m 225 -28 q -8 142 -8 -28 q 81 309 -8 247 q 349 381 171 371 q 419 382 371 382 q 424 440 424 411 q 397 531 424 501 q 310 561 371 561 q 201 538 254 561 q 121 474 147 514 q 86 540 86 494 q 130 644 86 599 q 245 713 174 689 q 396 736 317 736 q 610 661 535 736 q 685 432 685 586 q 634 203 685 307 q 480 35 583 99 q 225 -28 376 -28 m 256 43 q 346 112 306 43 q 410 322 386 181 q 260 265 315 322 q 206 118 206 208 q 217 63 206 82 q 256 43 228 43 z "},"f":{"ha":444,"x_min":3,"x_max":760,"o":"m 165 790 q 287 954 194 908 q 513 1000 379 1000 q 687 975 614 1000 q 760 885 760 950 q 719 813 760 838 q 624 789 679 789 q 543 806 576 789 q 557 846 551 821 q 563 890 563 871 q 522 939 563 939 q 465 903 486 939 q 433 803 444 868 l 417 708 l 543 708 l 535 646 l 404 646 l 289 0 l 3 -28 l 133 646 l 35 646 l 47 708 l 144 708 l 165 790 z "},"g":{"ha":801,"x_min":-44,"x_max":811,"o":"m 707 190 q 628 -74 675 26 q 493 -226 581 -174 q 260 -278 406 -278 q 46 -241 136 -278 q -44 -118 -44 -204 q -1 -24 -44 -58 q 106 11 43 11 q 188 -3 150 11 q 250 -49 226 -18 q 218 -121 218 -83 q 231 -163 218 -144 q 271 -182 244 -182 q 374 -100 332 -182 q 447 167 415 -18 q 351 103 410 125 q 228 81 292 81 q 32 296 32 81 q 85 513 32 411 q 235 675 138 614 q 458 736 332 736 q 586 713 533 736 l 811 735 l 707 190 m 522 633 q 463 653 499 653 q 367 588 403 653 q 315 434 331 522 q 300 271 300 346 q 310 209 300 231 q 351 188 321 188 q 469 357 438 188 l 522 633 z "},"ğ":{"ha":801,"x_min":-44,"x_max":811,"o":"m 0 0 m 707 190 q 628 -74 675 26 q 493 -226 581 -174 q 260 -278 406 -278 q 46 -241 136 -278 q -44 -118 -44 -204 q -1 -24 -44 -58 q 106 11 43 11 q 188 -3 150 11 q 250 -49 226 -18 q 218 -121 218 -83 q 231 -163 218 -144 q 271 -182 244 -182 q 374 -100 332 -182 q 447 167 415 -18 q 351 103 410 125 q 228 81 292 81 q 32 296 32 81 q 85 513 32 411 q 235 675 138 614 q 458 736 332 736 q 586 713 533 736 l 811 735 l 707 190 m 522 633 q 463 653 499 653 q 367 588 403 653 q 315 434 331 522 q 300 271 300 346 q 310 209 300 231 q 351 188 321 188 q 469 357 438 188 l 522 633 m 464 1032 q 458 990 458 1006 l 457 949 q 467 904 457 921 q 504 888 476 888 q 557 909 538 888 q 584 957 576 931 q 601 1032 592 983 l 800 1032 q 705 878 782 936 q 490 819 628 819 q 360 844 414 819 q 278 908 306 868 q 251 994 251 947 q 256 1032 251 1011 l 464 1032 z "},"ĝ":{"ha":801,"x_min":-44,"x_max":811,"o":"m 0 0 m 707 190 q 628 -74 675 26 q 493 -226 581 -174 q 260 -278 406 -278 q 46 -241 136 -278 q -44 -118 -44 -204 q -1 -24 -44 -58 q 106 11 43 11 q 188 -3 150 11 q 250 -49 226 -18 q 218 -121 218 -83 q 231 -163 218 -144 q 271 -182 244 -182 q 374 -100 332 -182 q 447 167 415 -18 q 351 103 410 125 q 228 81 292 81 q 32 296 32 81 q 85 513 32 411 q 235 675 138 614 q 458 736 332 736 q 586 713 533 736 l 811 735 l 707 190 m 522 633 q 463 653 499 653 q 367 588 403 653 q 315 434 331 522 q 300 271 300 346 q 310 209 300 231 q 351 188 321 188 q 469 357 438 188 l 522 633 m 736 881 l 667 817 l 506 889 l 300 817 l 257 881 l 489 1042 l 551 1042 l 736 881 z "},"ģ":{"ha":801,"x_min":-44,"x_max":811,"o":"m 0 0 m 707 190 q 628 -74 675 26 q 493 -226 581 -174 q 260 -278 406 -278 q 46 -241 136 -278 q -44 -118 -44 -204 q -1 -24 -44 -58 q 106 11 43 11 q 188 -3 150 11 q 250 -49 226 -18 q 218 -121 218 -83 q 231 -163 218 -144 q 271 -182 244 -182 q 374 -100 332 -182 q 447 167 415 -18 q 351 103 410 125 q 228 81 292 81 q 32 296 32 81 q 85 513 32 411 q 235 675 138 614 q 458 736 332 736 q 586 713 533 736 l 811 735 l 707 190 m 522 633 q 463 653 499 653 q 367 588 403 653 q 315 434 331 522 q 300 271 300 346 q 310 209 300 231 q 351 188 321 188 q 469 357 438 188 l 522 633 m 585 1075 q 639 1069 608 1075 q 570 973 590 1019 q 550 879 550 926 q 564 808 550 840 q 522 793 550 799 q 468 788 493 788 q 384 807 411 788 q 357 867 357 826 q 385 959 357 910 q 466 1042 414 1008 q 585 1075 518 1075 z "},"ġ":{"ha":801,"x_min":-44,"x_max":811,"o":"m 0 0 m 707 190 q 628 -74 675 26 q 493 -226 581 -174 q 260 -278 406 -278 q 46 -241 136 -278 q -44 -118 -44 -204 q -1 -24 -44 -58 q 106 11 43 11 q 188 -3 150 11 q 250 -49 226 -18 q 218 -121 218 -83 q 231 -163 218 -144 q 271 -182 244 -182 q 374 -100 332 -182 q 447 167 415 -18 q 351 103 410 125 q 228 81 292 81 q 32 296 32 81 q 85 513 32 411 q 235 675 138 614 q 458 736 332 736 q 586 713 533 736 l 811 735 l 707 190 m 522 633 q 463 653 499 653 q 367 588 403 653 q 315 434 331 522 q 300 271 300 346 q 310 209 300 231 q 351 188 321 188 q 469 357 438 188 l 522 633 m 514 1042 q 619 1013 579 1042 q 660 931 660 983 q 617 849 660 878 q 508 819 575 819 q 401 848 442 819 q 360 928 360 876 q 403 1012 360 982 q 514 1042 447 1042 z "},"h":{"ha":835,"x_min":-6,"x_max":799,"o":"m 436 838 q 385 658 415 726 q 603 736 463 736 q 799 572 799 736 q 788 475 799 531 q 757 342 776 419 q 731 228 740 271 q 722 154 722 185 q 788 75 722 83 q 721 -1 772 25 q 608 -28 669 -28 q 492 9 536 -28 q 449 115 449 46 q 458 197 449 150 q 488 333 467 244 q 518 469 507 415 q 529 561 529 524 q 481 629 529 629 q 401 570 429 629 q 354 422 372 511 l 272 0 l -6 -28 l 190 972 l 468 1000 l 436 838 z "},"ħ":{"ha":835,"x_min":-6,"x_max":799,"o":"m 422 774 q 385 658 404 704 q 603 736 463 736 q 799 572 799 736 q 788 475 799 531 q 757 342 776 419 q 731 228 740 271 q 722 154 722 185 q 788 75 722 83 q 721 -1 772 25 q 608 -28 669 -28 q 492 9 536 -28 q 449 115 449 46 q 458 197 449 150 q 488 333 467 244 q 518 469 507 415 q 529 561 529 524 q 481 629 529 629 q 401 570 429 629 q 354 422 372 511 l 272 0 l -6 -28 l 151 774 l 72 774 q 68 811 68 786 q 96 876 69 851 q 163 901 122 901 l 176 901 l 190 972 l 468 1000 l 449 901 l 608 901 q 614 863 614 879 q 587 799 614 824 q 508 774 560 774 l 422 774 z "},"ĥ":{"ha":835,"x_min":-6,"x_max":799,"o":"m 0 0 m 436 838 q 385 658 415 726 q 603 736 463 736 q 799 572 799 736 q 788 475 799 531 q 757 342 776 419 q 731 228 740 271 q 722 154 722 185 q 788 75 722 83 q 721 -1 772 25 q 608 -28 669 -28 q 492 9 536 -28 q 449 115 449 46 q 458 197 449 150 q 488 333 467 244 q 518 469 507 415 q 529 561 529 524 q 481 629 529 629 q 401 570 429 629 q 354 422 372 511 l 272 0 l -6 -28 l 190 972 l 468 1000 l 436 838 m 597 1042 l 528 978 l 367 1050 l 161 978 l 118 1042 l 350 1203 l 413 1203 l 597 1042 z "},"ḥ":{"ha":835,"x_min":-6,"x_max":799,"o":"m 0 0 m 436 838 q 385 658 415 726 q 603 736 463 736 q 799 572 799 736 q 788 475 799 531 q 757 342 776 419 q 731 228 740 271 q 722 154 722 185 q 788 75 722 83 q 721 -1 772 25 q 608 -28 669 -28 q 492 9 536 -28 q 449 115 449 46 q 458 197 449 150 q 488 333 467 244 q 518 469 507 415 q 529 561 529 524 q 481 629 529 629 q 401 570 429 629 q 354 422 372 511 l 272 0 l -6 -28 l 190 972 l 468 1000 l 436 838 m 367 -58 q 467 -86 429 -58 q 506 -164 506 -114 q 465 -242 506 -214 q 361 -269 425 -269 q 258 -242 297 -269 q 219 -167 219 -215 q 261 -87 219 -115 q 367 -58 303 -58 z "},"i":{"ha":436,"x_min":35,"x_max":469,"o":"m 324 1042 q 429 1013 389 1042 q 469 931 469 983 q 427 849 469 878 q 318 819 385 819 q 210 848 251 819 q 169 928 169 876 q 213 1012 169 982 q 324 1042 257 1042 m 315 207 q 308 149 308 169 q 325 99 308 119 q 374 75 342 78 q 307 -1 358 25 q 194 -28 256 -28 q 78 9 122 -28 q 35 115 35 46 q 81 408 35 183 l 86 436 l 139 708 l 418 736 l 315 207 z "},"ı":{"ha":421,"x_min":35,"x_max":418,"o":"m 315 207 q 308 149 308 169 q 325 99 308 119 q 374 75 342 78 q 307 -1 358 25 q 194 -28 256 -28 q 78 9 122 -28 q 35 115 35 46 q 81 408 35 183 l 86 436 l 139 708 l 418 736 l 315 207 z "},"í":{"ha":421,"x_min":35,"x_max":525,"o":"m 35 0 m 315 207 q 308 149 308 169 q 325 99 308 119 q 374 75 342 78 q 307 -1 358 25 q 194 -28 256 -28 q 78 9 122 -28 q 35 115 35 46 q 81 408 35 183 l 86 436 l 139 708 l 418 736 l 315 207 m 476 1078 q 525 986 525 1060 q 478 888 525 921 q 349 840 432 856 l 178 808 l 149 875 l 476 1078 z "},"ĭ":{"ha":421,"x_min":35,"x_max":607,"o":"m 35 0 m 315 207 q 308 149 308 169 q 325 99 308 119 q 374 75 342 78 q 307 -1 358 25 q 194 -28 256 -28 q 78 9 122 -28 q 35 115 35 46 q 81 408 35 183 l 86 436 l 139 708 l 418 736 l 315 207 m 271 1032 q 265 990 265 1006 l 264 949 q 274 904 264 921 q 311 888 283 888 q 364 909 344 888 q 391 957 383 931 q 408 1032 399 983 l 607 1032 q 512 878 589 936 q 297 819 435 819 q 167 844 221 819 q 85 908 113 868 q 58 994 58 947 q 63 1032 58 1011 l 271 1032 z "},"î":{"ha":421,"x_min":35,"x_max":543,"o":"m 35 0 m 315 207 q 308 149 308 169 q 325 99 308 119 q 374 75 342 78 q 307 -1 358 25 q 194 -28 256 -28 q 78 9 122 -28 q 35 115 35 46 q 81 408 35 183 l 86 436 l 139 708 l 418 736 l 315 207 m 543 881 l 474 817 l 313 889 l 107 817 l 64 881 l 296 1042 l 358 1042 l 543 881 z "},"ï":{"ha":421,"x_min":3,"x_max":636,"o":"m 3 0 m 315 207 q 308 149 308 169 q 325 99 308 119 q 374 75 342 78 q 307 -1 358 25 q 194 -28 256 -28 q 78 9 122 -28 q 35 115 35 46 q 81 408 35 183 l 86 436 l 139 708 l 418 736 l 315 207 m 490 1042 q 596 1013 556 1042 q 636 931 636 983 q 594 849 636 878 q 485 819 551 819 q 377 848 418 819 q 336 928 336 876 q 380 1012 336 982 q 490 1042 424 1042 m 157 1042 q 263 1013 222 1042 q 303 931 303 983 q 260 849 303 878 q 151 819 218 819 q 44 848 85 819 q 3 928 3 876 q 47 1012 3 982 q 157 1042 90 1042 z "},"ị":{"ha":436,"x_min":-3,"x_max":469,"o":"m 0 0 m 324 1042 q 429 1013 389 1042 q 469 931 469 983 q 427 849 469 878 q 318 819 385 819 q 210 848 251 819 q 169 928 169 876 q 213 1012 169 982 q 324 1042 257 1042 m 315 207 q 308 149 308 169 q 325 99 308 119 q 374 75 342 78 q 307 -1 358 25 q 194 -28 256 -28 q 78 9 122 -28 q 35 115 35 46 q 81 408 35 183 l 86 436 l 139 708 l 418 736 l 315 207 m 144 -58 q 245 -86 207 -58 q 283 -164 283 -114 q 243 -242 283 -214 q 139 -269 203 -269 q 36 -242 75 -269 q -3 -167 -3 -215 q 39 -87 -3 -115 q 144 -58 81 -58 z "},"ì":{"ha":421,"x_min":35,"x_max":432,"o":"m 35 0 m 315 207 q 308 149 308 169 q 325 99 308 119 q 374 75 342 78 q 307 -1 358 25 q 194 -28 256 -28 q 78 9 122 -28 q 35 115 35 46 q 81 408 35 183 l 86 436 l 139 708 l 418 736 l 315 207 m 233 840 q 103 888 150 856 q 56 986 56 921 q 68 1043 56 1018 q 106 1078 81 1068 l 432 875 l 403 808 l 233 840 z "},"ĳ":{"ha":857,"x_min":35,"x_max":893,"o":"m 35 0 m 324 1042 q 429 1013 389 1042 q 469 931 469 983 q 427 849 469 878 q 318 819 385 819 q 210 848 251 819 q 169 928 169 876 q 213 1012 169 982 q 324 1042 257 1042 m 315 207 q 308 149 308 169 q 325 99 308 119 q 374 75 342 78 q 307 -1 358 25 q 194 -28 256 -28 q 78 9 122 -28 q 35 115 35 46 q 81 408 35 183 l 86 436 l 139 708 l 418 736 l 315 207 m 747 1042 q 853 1013 813 1042 q 893 931 893 983 q 851 849 893 878 q 742 819 808 819 q 634 848 675 819 q 593 928 593 876 q 637 1012 593 982 q 747 1042 681 1042 m 736 126 q 626 -181 694 -83 q 438 -278 558 -278 q 331 -253 375 -278 q 272 -175 286 -228 q 362 -140 326 -174 q 422 -37 397 -107 q 469 156 446 32 l 576 708 l 854 736 l 736 126 z "},"ī":{"ha":421,"x_min":35,"x_max":544,"o":"m 35 0 m 315 207 q 308 149 308 169 q 325 99 308 119 q 374 75 342 78 q 307 -1 358 25 q 194 -28 256 -28 q 78 9 122 -28 q 35 115 35 46 q 81 408 35 183 l 86 436 l 139 708 l 418 736 l 315 207 m 539 992 q 544 953 544 969 q 517 889 544 914 q 440 864 490 864 l 115 864 q 111 901 111 876 q 139 967 113 942 q 206 992 165 992 l 539 992 z "},"į":{"ha":421,"x_min":35,"x_max":467,"o":"m 321 1042 q 426 1013 386 1042 q 467 931 467 983 q 424 849 467 878 q 315 819 382 819 q 208 848 249 819 q 167 928 167 876 q 210 1012 167 982 q 321 1042 254 1042 m 315 207 q 308 149 308 169 q 325 99 308 119 q 374 75 342 78 q 306 -1 358 26 q 230 -83 258 -39 q 201 -171 201 -126 q 267 -242 201 -242 q 353 -207 322 -242 q 372 -237 367 -224 q 378 -272 378 -251 q 338 -333 378 -308 q 228 -358 299 -358 q 94 -319 142 -358 q 46 -203 46 -279 q 73 -101 46 -146 q 147 -24 100 -56 q 65 22 94 -12 q 35 115 35 57 q 81 408 35 183 l 86 436 l 139 708 l 418 736 l 315 207 z "},"ĩ":{"ha":421,"x_min":35,"x_max":579,"o":"m 35 0 m 315 207 q 308 149 308 169 q 325 99 308 119 q 374 75 342 78 q 307 -1 358 25 q 194 -28 256 -28 q 78 9 122 -28 q 35 115 35 46 q 81 408 35 183 l 86 436 l 139 708 l 418 736 l 315 207 m 553 1010 q 579 939 579 978 q 544 863 579 889 q 446 836 508 836 q 292 850 406 836 q 163 861 186 861 q 109 854 135 861 q 69 838 83 847 q 42 917 42 878 q 77 985 42 961 q 178 1010 113 1010 q 264 1004 210 1010 q 336 997 318 999 q 469 986 442 986 q 553 1010 529 986 z "},"j":{"ha":421,"x_min":-164,"x_max":457,"o":"m 311 1042 q 417 1013 376 1042 q 457 931 457 983 q 415 849 457 878 q 306 819 372 819 q 198 848 239 819 q 157 928 157 876 q 201 1012 157 982 q 311 1042 244 1042 m 300 126 q 190 -181 258 -83 q 1 -278 122 -278 q -106 -253 -61 -278 q -164 -175 -150 -228 q -74 -140 -110 -174 q -15 -37 -39 -107 q 33 156 10 32 l 140 708 l 418 736 l 300 126 z "},"ȷ":{"ha":421,"x_min":-164,"x_max":418,"o":"m 300 126 q 190 -181 258 -83 q 1 -278 122 -278 q -106 -253 -61 -278 q -164 -175 -150 -228 q -74 -140 -110 -174 q -15 -37 -39 -107 q 33 156 10 32 l 140 708 l 418 736 l 300 126 z "},"ĵ":{"ha":421,"x_min":-164,"x_max":535,"o":"m 0 0 m 300 126 q 190 -181 258 -83 q 1 -278 122 -278 q -106 -253 -61 -278 q -164 -175 -150 -228 q -74 -140 -110 -174 q -15 -37 -39 -107 q 33 156 10 32 l 140 708 l 418 736 l 300 126 m 535 881 l 465 817 l 304 889 l 99 817 l 56 881 l 288 1042 l 350 1042 l 535 881 z "},"k":{"ha":758,"x_min":-19,"x_max":788,"o":"m 422 838 q 371 658 401 726 q 588 736 450 736 q 736 692 685 736 q 788 561 788 649 q 737 413 788 474 q 596 326 686 351 l 651 182 q 744 85 686 90 q 680 1 728 31 q 572 -28 632 -28 q 351 326 372 -28 q 470 410 421 346 q 519 551 519 474 q 467 629 519 629 q 340 422 381 629 l 258 0 l -19 -28 l 176 972 l 454 1000 l 422 838 z "},"ķ":{"ha":758,"x_min":-19,"x_max":788,"o":"m 0 0 m 422 838 q 371 658 401 726 q 588 736 450 736 q 736 692 685 736 q 788 561 788 649 q 737 413 788 474 q 596 326 686 351 l 651 182 q 744 85 686 90 q 680 1 728 31 q 572 -28 632 -28 q 351 326 372 -28 q 470 410 421 346 q 519 551 519 474 q 467 629 519 629 q 340 422 381 629 l 258 0 l -19 -28 l 176 972 l 454 1000 l 422 838 m 458 -165 q 423 -268 458 -224 q 336 -335 388 -312 q 238 -358 285 -358 q 183 -353 203 -358 q 251 -260 231 -300 q 272 -162 272 -219 q 268 -125 272 -146 q 258 -92 264 -104 q 297 -78 269 -85 q 344 -71 325 -71 q 428 -97 397 -71 q 458 -165 458 -124 z "},"ĸ":{"ha":772,"x_min":-6,"x_max":801,"o":"m 344 599 q 601 736 411 736 q 750 692 699 736 q 801 561 801 649 q 751 413 801 474 q 610 326 700 351 l 665 182 q 758 85 700 90 q 694 1 742 31 q 586 -28 646 -28 q 365 326 386 -28 q 484 410 435 346 q 533 551 533 474 q 481 629 533 629 q 354 422 394 629 l 272 0 l -6 -28 l 139 708 l 367 736 l 344 599 z "},"l":{"ha":424,"x_min":22,"x_max":456,"o":"m 303 207 q 296 149 296 169 q 313 99 296 119 q 361 75 329 78 q 294 -1 346 25 q 182 -28 243 -28 q 66 9 110 -28 q 22 115 22 46 q 68 408 22 183 l 74 436 l 175 972 l 456 1000 l 303 207 z "},"ĺ":{"ha":424,"x_min":22,"x_max":547,"o":"m 22 0 m 303 207 q 296 149 296 169 q 313 99 296 119 q 361 75 329 78 q 294 -1 346 25 q 182 -28 243 -28 q 66 9 110 -28 q 22 115 22 46 q 68 408 22 183 l 74 436 l 175 972 l 456 1000 l 303 207 m 168 1082 l 508 1224 q 538 1192 528 1210 q 547 1149 547 1175 q 492 1052 547 1082 q 350 1019 436 1022 l 185 1014 l 168 1082 z "},"ľ":{"ha":424,"x_min":22,"x_max":660,"o":"m 22 0 m 303 207 q 296 149 296 169 q 313 99 296 119 q 361 75 329 78 q 294 -1 346 25 q 182 -28 243 -28 q 66 9 110 -28 q 22 115 22 46 q 68 408 22 183 l 74 436 l 175 972 l 456 1000 l 303 207 m 478 981 q 517 994 492 988 q 563 1000 542 1000 q 633 971 606 1000 q 660 892 660 942 q 635 818 660 856 q 568 756 611 781 q 472 731 525 731 q 424 739 449 731 q 476 823 463 783 q 490 903 490 863 q 478 981 490 942 z "},"ļ":{"ha":424,"x_min":18,"x_max":456,"o":"m 18 0 m 303 207 q 296 149 296 169 q 313 99 296 119 q 361 75 329 78 q 294 -1 346 25 q 182 -28 243 -28 q 66 9 110 -28 q 22 115 22 46 q 68 408 22 183 l 74 436 l 175 972 l 456 1000 l 303 207 m 293 -165 q 258 -268 293 -224 q 171 -335 222 -312 q 72 -358 119 -358 q 18 -353 38 -358 q 86 -260 65 -300 q 107 -162 107 -219 q 103 -125 107 -146 q 93 -92 99 -104 q 132 -78 104 -85 q 179 -71 160 -71 q 263 -97 232 -71 q 293 -165 293 -124 z "},"ŀ":{"ha":493,"x_min":22,"x_max":558,"o":"m 303 207 q 296 149 296 169 q 313 99 296 119 q 361 75 329 78 q 294 -1 346 25 q 182 -28 243 -28 q 66 9 110 -28 q 22 115 22 46 q 68 408 22 183 l 74 436 l 175 972 l 456 1000 l 303 207 m 485 560 q 539 541 519 560 q 558 489 558 522 q 556 464 558 481 q 515 393 546 419 q 442 367 485 367 q 385 385 406 367 q 365 436 365 404 q 368 460 365 443 q 410 533 378 506 q 485 560 442 560 z "},"ǉ":{"ha":424,"x_min":-157,"x_max":464,"o":"m 313 1056 q 205 1084 246 1056 q 164 1164 164 1113 q 208 1248 164 1218 q 318 1278 251 1278 q 424 1249 383 1278 q 464 1167 464 1219 q 422 1085 464 1114 q 313 1056 379 1056 m 303 207 q 296 149 296 169 q 313 99 296 119 q 361 75 329 78 q 294 -1 346 25 q 182 -28 243 -28 q 115 -18 143 -28 q 8 -42 68 -42 q -99 -17 -54 -42 q -157 61 -143 8 q -67 96 -103 63 q -8 199 -32 129 q 40 392 17 268 l 147 944 l 171 947 l 175 972 l 456 1000 l 303 207 z "},"ł":{"ha":544,"x_min":-14,"x_max":560,"o":"m 533 626 q 553 596 547 615 q 560 558 560 576 q 537 503 560 525 q 463 463 514 481 l 411 444 l 365 207 q 358 149 358 169 q 375 99 358 119 q 424 75 392 78 q 357 -1 408 25 q 244 -28 306 -28 q 128 9 172 -28 q 85 115 85 46 q 100 247 85 153 l 117 338 l 15 301 q -14 365 -14 328 q 49 447 -14 425 l 144 482 l 238 972 l 518 1000 l 439 592 l 533 626 z "},"m":{"ha":1249,"x_min":-6,"x_max":1213,"o":"m 344 600 q 590 736 414 736 q 778 625 743 736 q 1014 736 850 736 q 1213 572 1213 736 q 1201 475 1213 531 q 1171 342 1190 419 q 1145 228 1154 271 q 1136 154 1136 185 q 1201 75 1136 83 q 1135 -1 1186 25 q 1021 -28 1083 -28 q 906 9 950 -28 q 863 115 863 46 q 903 333 863 172 q 934 477 925 431 q 943 560 943 524 q 896 629 943 629 q 817 566 844 629 q 774 422 790 503 l 692 0 l 414 -28 l 492 339 q 529 564 529 506 q 481 629 529 629 q 354 422 393 629 l 272 0 l -6 -28 l 139 708 l 367 736 l 344 600 z "},"n":{"ha":835,"x_min":-6,"x_max":799,"o":"m 344 600 q 599 736 415 736 q 799 574 799 736 q 788 476 799 532 q 757 340 776 419 q 731 226 739 268 q 722 154 722 183 q 788 75 722 83 q 721 -1 772 25 q 608 -28 669 -28 q 492 9 536 -28 q 449 115 449 46 q 458 197 449 150 q 488 333 467 244 q 518 469 507 415 q 529 561 529 524 q 481 629 529 629 q 401 570 429 629 q 354 422 372 511 l 272 0 l -6 -28 l 139 708 l 367 736 l 344 600 z "},"ń":{"ha":835,"x_min":-6,"x_max":799,"o":"m 0 0 m 344 600 q 599 736 415 736 q 799 574 799 736 q 788 476 799 532 q 757 340 776 419 q 731 226 739 268 q 722 154 722 183 q 788 75 722 83 q 721 -1 772 25 q 608 -28 669 -28 q 492 9 536 -28 q 449 115 449 46 q 458 197 449 150 q 488 333 467 244 q 518 469 507 415 q 529 561 529 524 q 481 629 529 629 q 401 570 429 629 q 354 422 372 511 l 272 0 l -6 -28 l 139 708 l 367 736 l 344 600 m 679 1078 q 728 986 728 1060 q 681 888 728 921 q 551 840 635 856 l 381 808 l 351 875 l 679 1078 z "},"ŉ":{"ha":835,"x_min":-94,"x_max":799,"o":"m 88 1015 q 218 893 218 1015 q 186 795 218 844 q 97 713 154 746 q -31 681 40 681 q -94 689 -61 681 q -7 894 -7 783 q -22 989 -7 947 q 27 1008 -6 1000 q 88 1015 60 1015 m 599 736 q 799 574 799 736 q 788 476 799 532 q 757 340 776 419 q 731 226 739 268 q 722 154 722 183 q 788 75 722 83 q 721 -1 772 25 q 608 -28 669 -28 q 492 9 536 -28 q 449 115 449 46 q 458 197 449 150 q 488 333 467 244 q 518 469 507 415 q 529 561 529 524 q 481 629 529 629 q 401 570 429 629 q 354 422 372 511 l 272 0 l -6 -28 l 139 708 l 367 736 l 344 600 q 599 736 415 736 z "},"ň":{"ha":835,"x_min":-6,"x_max":799,"o":"m 0 0 m 344 600 q 599 736 415 736 q 799 574 799 736 q 788 476 799 532 q 757 340 776 419 q 731 226 739 268 q 722 154 722 183 q 788 75 722 83 q 721 -1 772 25 q 608 -28 669 -28 q 492 9 536 -28 q 449 115 449 46 q 458 197 449 150 q 488 333 467 244 q 518 469 507 415 q 529 561 529 524 q 481 629 529 629 q 401 570 429 629 q 354 422 372 511 l 272 0 l -6 -28 l 139 708 l 367 736 l 344 600 m 279 1018 l 349 1082 l 511 982 l 717 1082 l 760 1018 l 542 829 l 450 829 l 279 1018 z "},"ņ":{"ha":835,"x_min":-6,"x_max":799,"o":"m 0 0 m 344 600 q 599 736 415 736 q 799 574 799 736 q 788 476 799 532 q 757 340 776 419 q 731 226 739 268 q 722 154 722 183 q 788 75 722 83 q 721 -1 772 25 q 608 -28 669 -28 q 492 9 536 -28 q 449 115 449 46 q 458 197 449 150 q 488 333 467 244 q 518 469 507 415 q 529 561 529 524 q 481 629 529 629 q 401 570 429 629 q 354 422 372 511 l 272 0 l -6 -28 l 139 708 l 367 736 l 344 600 m 463 -165 q 427 -268 463 -224 q 340 -335 392 -312 q 242 -358 289 -358 q 188 -353 207 -358 q 256 -260 235 -300 q 276 -162 276 -219 q 272 -125 276 -146 q 263 -92 268 -104 q 301 -78 274 -85 q 349 -71 329 -71 q 432 -97 401 -71 q 463 -165 463 -124 z "},"ṅ":{"ha":835,"x_min":-6,"x_max":799,"o":"m 0 0 m 344 600 q 599 736 415 736 q 799 574 799 736 q 788 476 799 532 q 757 340 776 419 q 731 226 739 268 q 722 154 722 183 q 788 75 722 83 q 721 -1 772 25 q 608 -28 669 -28 q 492 9 536 -28 q 449 115 449 46 q 458 197 449 150 q 488 333 467 244 q 518 469 507 415 q 529 561 529 524 q 481 629 529 629 q 401 570 429 629 q 354 422 372 511 l 272 0 l -6 -28 l 139 708 l 367 736 l 344 600 m 524 1042 q 629 1013 589 1042 q 669 931 669 983 q 627 849 669 878 q 518 819 585 819 q 410 848 451 819 q 369 928 369 876 q 413 1012 369 982 q 524 1042 457 1042 z "},"ŋ":{"ha":835,"x_min":-6,"x_max":799,"o":"m 367 736 l 344 600 q 599 736 415 736 q 747 697 694 736 q 799 571 799 658 q 790 490 799 536 l 718 126 q 610 -181 676 -83 q 419 -278 543 -278 q 313 -253 357 -278 q 254 -175 268 -228 q 345 -140 310 -172 q 406 -40 381 -108 q 461 156 432 29 q 529 557 529 451 q 519 610 529 592 q 482 629 508 629 q 354 422 396 629 l 272 0 l -6 -28 l 139 708 l 367 736 z "},"ǌ":{"ha":835,"x_min":-6,"x_max":799,"o":"m 518 819 q 410 848 451 819 q 369 928 369 876 q 413 1012 369 982 q 524 1042 457 1042 q 629 1013 589 1042 q 669 931 669 983 q 627 849 669 878 q 518 819 585 819 m 722 154 q 788 75 722 83 q 721 -1 772 25 q 608 -28 669 -28 q 488 14 529 -28 q 383 -207 447 -136 q 214 -278 318 -278 q 107 -253 151 -278 q 49 -175 63 -228 q 144 -134 107 -174 q 207 -7 181 -94 l -6 -28 l 139 708 l 367 736 l 363 710 l 494 722 q 599 736 540 736 l 624 736 l 631 736 l 631 735 q 799 574 799 724 q 788 476 799 532 q 757 340 776 419 q 731 226 739 268 q 722 154 722 183 z "},"ñ":{"ha":835,"x_min":-6,"x_max":799,"o":"m 0 0 m 344 600 q 599 736 415 736 q 799 574 799 736 q 788 476 799 532 q 757 340 776 419 q 731 226 739 268 q 722 154 722 183 q 788 75 722 83 q 721 -1 772 25 q 608 -28 669 -28 q 492 9 536 -28 q 449 115 449 46 q 458 197 449 150 q 488 333 467 244 q 518 469 507 415 q 529 561 529 524 q 481 629 529 629 q 401 570 429 629 q 354 422 372 511 l 272 0 l -6 -28 l 139 708 l 367 736 l 344 600 m 756 1010 q 782 939 782 978 q 747 863 782 889 q 649 836 711 836 q 494 850 608 836 q 365 861 389 861 q 312 854 338 861 q 272 838 286 847 q 244 917 244 878 q 280 985 244 961 q 381 1010 315 1010 q 467 1004 413 1010 q 539 997 521 999 q 672 986 644 986 q 756 1010 732 986 z "},"o":{"ha":785,"x_min":22,"x_max":763,"o":"m 469 736 q 688 663 614 736 q 763 438 763 590 q 710 201 763 307 q 556 34 657 96 q 318 -28 456 -28 q 22 275 22 -28 q 76 510 22 406 q 231 676 129 615 q 469 736 332 736 m 447 653 q 356 580 390 653 q 299 336 322 507 q 282 147 282 217 q 294 78 282 101 q 339 56 306 56 q 428 128 394 56 q 486 372 463 201 q 503 561 503 492 q 492 630 503 607 q 447 653 481 653 z "},"ó":{"ha":785,"x_min":22,"x_max":763,"o":"m 22 0 m 469 736 q 688 663 614 736 q 763 438 763 590 q 710 201 763 307 q 556 34 657 96 q 318 -28 456 -28 q 22 275 22 -28 q 76 510 22 406 q 231 676 129 615 q 469 736 332 736 m 447 653 q 356 580 390 653 q 299 336 322 507 q 282 147 282 217 q 294 78 282 101 q 339 56 306 56 q 428 128 394 56 q 486 372 463 201 q 503 561 503 492 q 492 630 503 607 q 447 653 481 653 m 678 1078 q 726 986 726 1060 q 680 888 726 921 q 550 840 633 856 l 379 808 l 350 875 l 678 1078 z "},"ŏ":{"ha":785,"x_min":22,"x_max":808,"o":"m 22 0 m 469 736 q 688 663 614 736 q 763 438 763 590 q 710 201 763 307 q 556 34 657 96 q 318 -28 456 -28 q 22 275 22 -28 q 76 510 22 406 q 231 676 129 615 q 469 736 332 736 m 447 653 q 356 580 390 653 q 299 336 322 507 q 282 147 282 217 q 294 78 282 101 q 339 56 306 56 q 428 128 394 56 q 486 372 463 201 q 503 561 503 492 q 492 630 503 607 q 447 653 481 653 m 472 1032 q 467 990 467 1006 l 465 949 q 475 904 465 921 q 513 888 485 888 q 565 909 546 888 q 592 957 585 931 q 610 1032 600 983 l 808 1032 q 713 878 790 936 q 499 819 636 819 q 368 844 422 819 q 287 908 314 868 q 260 994 260 947 q 264 1032 260 1011 l 472 1032 z "},"ô":{"ha":785,"x_min":22,"x_max":763,"o":"m 22 0 m 469 736 q 688 663 614 736 q 763 438 763 590 q 710 201 763 307 q 556 34 657 96 q 318 -28 456 -28 q 22 275 22 -28 q 76 510 22 406 q 231 676 129 615 q 469 736 332 736 m 447 653 q 356 580 390 653 q 299 336 322 507 q 282 147 282 217 q 294 78 282 101 q 339 56 306 56 q 428 128 394 56 q 486 372 463 201 q 503 561 503 492 q 492 630 503 607 q 447 653 481 653 m 744 881 l 675 817 l 514 889 l 308 817 l 265 881 l 497 1042 l 560 1042 l 744 881 z "},"ö":{"ha":785,"x_min":22,"x_max":838,"o":"m 22 0 m 469 736 q 688 663 614 736 q 763 438 763 590 q 710 201 763 307 q 556 34 657 96 q 318 -28 456 -28 q 22 275 22 -28 q 76 510 22 406 q 231 676 129 615 q 469 736 332 736 m 447 653 q 356 580 390 653 q 299 336 322 507 q 282 147 282 217 q 294 78 282 101 q 339 56 306 56 q 428 128 394 56 q 486 372 463 201 q 503 561 503 492 q 492 630 503 607 q 447 653 481 653 m 692 1042 q 797 1013 757 1042 q 838 931 838 983 q 795 849 838 878 q 686 819 753 819 q 578 848 619 819 q 538 928 538 876 q 581 1012 538 982 q 692 1042 625 1042 m 358 1042 q 464 1013 424 1042 q 504 931 504 983 q 462 849 504 878 q 353 819 419 819 q 245 848 286 819 q 204 928 204 876 q 248 1012 204 982 q 358 1042 292 1042 z "},"ọ":{"ha":785,"x_min":22,"x_max":763,"o":"m 22 0 m 469 736 q 688 663 614 736 q 763 438 763 590 q 710 201 763 307 q 556 34 657 96 q 318 -28 456 -28 q 22 275 22 -28 q 76 510 22 406 q 231 676 129 615 q 469 736 332 736 m 447 653 q 356 580 390 653 q 299 336 322 507 q 282 147 282 217 q 294 78 282 101 q 339 56 306 56 q 428 128 394 56 q 486 372 463 201 q 503 561 503 492 q 492 630 503 607 q 447 653 481 653 m 338 -58 q 438 -86 400 -58 q 476 -164 476 -114 q 436 -242 476 -214 q 332 -269 396 -269 q 229 -242 268 -269 q 190 -167 190 -215 q 232 -87 190 -115 q 338 -58 274 -58 z "},"ò":{"ha":785,"x_min":22,"x_max":763,"o":"m 22 0 m 469 736 q 688 663 614 736 q 763 438 763 590 q 710 201 763 307 q 556 34 657 96 q 318 -28 456 -28 q 22 275 22 -28 q 76 510 22 406 q 231 676 129 615 q 469 736 332 736 m 447 653 q 356 580 390 653 q 299 336 322 507 q 282 147 282 217 q 294 78 282 101 q 339 56 306 56 q 428 128 394 56 q 486 372 463 201 q 503 561 503 492 q 492 630 503 607 q 447 653 481 653 m 435 840 q 304 888 351 856 q 257 986 257 921 q 269 1043 257 1018 q 307 1078 282 1068 l 633 875 l 604 808 l 435 840 z "},"ő":{"ha":785,"x_min":22,"x_max":885,"o":"m 22 0 m 469 736 q 688 663 614 736 q 763 438 763 590 q 710 201 763 307 q 556 34 657 96 q 318 -28 456 -28 q 22 275 22 -28 q 76 510 22 406 q 231 676 129 615 q 469 736 332 736 m 447 653 q 356 580 390 653 q 299 336 322 507 q 282 147 282 217 q 294 78 282 101 q 339 56 306 56 q 428 128 394 56 q 486 372 463 201 q 503 561 503 492 q 492 630 503 607 q 447 653 481 653 m 507 1096 q 578 1066 551 1089 q 606 1013 606 1043 q 567 909 606 961 q 467 824 529 857 l 350 751 l 286 789 l 507 1096 m 786 1096 q 858 1066 831 1089 q 885 1013 885 1043 q 847 909 885 961 q 746 824 808 857 l 629 751 l 565 789 l 786 1096 z "},"ō":{"ha":785,"x_min":22,"x_max":763,"o":"m 22 0 m 469 736 q 688 663 614 736 q 763 438 763 590 q 710 201 763 307 q 556 34 657 96 q 318 -28 456 -28 q 22 275 22 -28 q 76 510 22 406 q 231 676 129 615 q 469 736 332 736 m 447 653 q 356 580 390 653 q 299 336 322 507 q 282 147 282 217 q 294 78 282 101 q 339 56 306 56 q 428 128 394 56 q 486 372 463 201 q 503 561 503 492 q 492 630 503 607 q 447 653 481 653 m 740 992 q 746 953 746 969 q 719 889 746 914 q 642 864 692 864 l 317 864 q 313 901 313 876 q 340 967 314 942 q 407 992 367 992 l 740 992 z "},"ǫ":{"ha":785,"x_min":22,"x_max":763,"o":"m 499 6 q 417 -78 449 -32 q 385 -171 385 -125 q 450 -242 385 -242 q 536 -207 506 -242 q 556 -237 550 -224 q 561 -272 561 -251 q 522 -333 561 -308 q 411 -358 482 -358 q 277 -319 325 -358 q 229 -203 229 -279 q 325 -28 229 -96 l 318 -28 q 22 275 22 -28 q 76 510 22 406 q 231 676 129 615 q 469 736 332 736 q 688 663 614 736 q 763 438 763 590 q 693 172 763 288 q 499 6 624 56 m 282 147 q 294 78 282 101 q 339 56 306 56 q 428 128 394 56 q 486 372 463 201 q 503 561 503 492 q 492 630 503 607 q 447 653 481 653 q 356 580 390 653 q 299 336 322 507 q 282 147 282 217 z "},"ø":{"ha":785,"x_min":10,"x_max":779,"o":"m 710 638 q 763 438 763 564 q 710 201 763 307 q 556 34 657 96 q 318 -28 456 -28 q 143 11 213 -28 q 76 -81 104 -31 q 28 -60 46 -81 q 10 -10 10 -39 q 38 63 10 31 l 64 92 q 22 275 22 161 q 76 510 22 406 q 231 676 129 615 q 469 736 332 736 q 619 710 558 736 l 642 735 q 713 825 685 783 q 757 802 735 825 q 779 747 779 779 q 749 678 779 710 l 710 638 m 324 481 q 301 357 313 438 l 503 579 q 488 634 500 615 q 447 653 476 653 q 375 612 404 653 q 324 481 346 571 m 339 56 q 439 153 407 56 q 490 394 471 250 l 282 164 l 282 149 q 294 78 282 101 q 339 56 306 56 z "},"ǿ":{"ha":785,"x_min":10,"x_max":779,"o":"m 10 0 m 710 638 q 763 438 763 564 q 710 201 763 307 q 556 34 657 96 q 318 -28 456 -28 q 143 11 213 -28 q 76 -81 104 -31 q 28 -60 46 -81 q 10 -10 10 -39 q 38 63 10 31 l 64 92 q 22 275 22 161 q 76 510 22 406 q 231 676 129 615 q 469 736 332 736 q 619 710 558 736 l 642 735 q 713 825 685 783 q 757 802 735 825 q 779 747 779 779 q 749 678 779 710 l 710 638 m 324 481 q 301 357 313 438 l 503 579 q 488 634 500 615 q 447 653 476 653 q 375 612 404 653 q 324 481 346 571 m 339 56 q 439 153 407 56 q 490 394 471 250 l 282 164 l 282 149 q 294 78 282 101 q 339 56 306 56 m 665 1078 q 714 986 714 1060 q 667 888 714 921 q 538 840 621 856 l 367 808 l 338 875 l 665 1078 z "},"õ":{"ha":785,"x_min":22,"x_max":781,"o":"m 22 0 m 469 736 q 688 663 614 736 q 763 438 763 590 q 710 201 763 307 q 556 34 657 96 q 318 -28 456 -28 q 22 275 22 -28 q 76 510 22 406 q 231 676 129 615 q 469 736 332 736 m 447 653 q 356 580 390 653 q 299 336 322 507 q 282 147 282 217 q 294 78 282 101 q 339 56 306 56 q 428 128 394 56 q 486 372 463 201 q 503 561 503 492 q 492 630 503 607 q 447 653 481 653 m 754 1010 q 781 939 781 978 q 745 863 781 889 q 647 836 710 836 q 493 850 607 836 q 364 861 388 861 q 310 854 336 861 q 271 838 285 847 q 243 917 243 878 q 278 985 243 961 q 379 1010 314 1010 q 465 1004 411 1010 q 538 997 519 999 q 671 986 643 986 q 754 1010 731 986 z "},"œ":{"ha":1129,"x_min":22,"x_max":1165,"o":"m 926 736 q 1100 699 1035 736 q 1165 568 1165 663 q 1081 403 1165 464 q 846 331 997 343 q 738 326 796 326 q 733 278 733 304 q 849 147 733 147 q 954 169 900 147 q 1036 235 1008 192 q 1071 168 1071 214 q 1026 64 1071 108 q 912 -4 982 19 q 769 -28 842 -28 q 653 -11 708 -28 q 561 36 597 6 q 321 -28 457 -28 q 22 274 22 -28 q 75 509 22 404 q 228 675 128 614 q 463 736 328 736 q 676 674 600 736 q 790 721 731 706 q 926 736 850 736 m 903 665 q 812 597 853 665 q 747 386 771 528 q 897 443 842 386 q 953 590 953 500 q 942 646 953 626 q 903 665 931 665 m 339 56 q 428 128 394 56 q 486 372 463 201 q 503 561 503 492 q 492 630 503 607 q 447 653 481 653 q 356 580 390 653 q 299 336 322 507 q 282 147 282 217 q 294 78 282 101 q 339 56 306 56 z "},"p":{"ha":807,"x_min":-51,"x_max":788,"o":"m 347 629 q 565 738 417 738 q 735 668 683 738 q 788 464 788 599 q 737 213 788 324 q 588 38 686 101 q 354 -26 490 -26 q 264 -17 303 -26 l 224 -250 l -51 -278 l 138 708 l 365 736 l 347 629 m 286 82 q 322 63 301 69 q 361 57 343 57 q 426 86 400 57 q 473 182 453 115 q 510 364 493 249 q 526 550 526 481 q 517 616 526 593 q 475 639 507 639 q 395 587 425 639 q 354 465 365 535 l 286 82 z "},"þ":{"ha":806,"x_min":-51,"x_max":788,"o":"m 435 838 q 393 681 418 743 q 469 724 428 710 q 564 738 510 738 q 735 669 683 738 q 788 464 788 600 q 737 211 788 322 q 588 37 686 100 q 354 -26 490 -26 q 264 -17 303 -26 l 224 -250 l -51 -278 l 189 972 l 467 1000 l 435 838 m 286 82 q 321 63 300 69 q 361 57 342 57 q 426 86 400 57 q 473 182 453 115 q 510 364 493 249 q 526 550 526 481 q 517 616 526 593 q 475 639 507 639 q 395 587 425 639 q 354 465 365 535 l 286 82 z "},"q":{"ha":815,"x_min":17,"x_max":815,"o":"m 635 -250 l 351 -278 l 381 -129 q 431 50 403 -12 q 339 -8 393 13 q 222 -28 285 -28 q 64 39 111 -28 q 17 235 17 106 q 68 492 17 378 q 219 671 119 606 q 460 736 318 736 q 597 710 543 736 l 815 736 l 635 -250 m 525 628 q 450 653 496 653 q 387 626 414 653 q 337 532 360 600 q 296 343 314 464 q 279 157 279 229 q 290 92 279 114 q 332 69 300 69 q 416 131 388 69 q 460 278 444 192 l 525 628 z "},"r":{"ha":679,"x_min":-6,"x_max":728,"o":"m 343 600 q 556 736 406 736 q 683 694 639 736 q 728 575 728 653 q 674 430 728 486 q 539 374 621 374 q 490 380 513 374 q 456 400 467 386 q 496 481 479 432 q 513 571 513 531 q 469 629 513 629 q 397 573 429 629 q 347 408 365 517 l 281 0 l -6 -28 l 136 708 l 364 736 l 343 600 z "},"ŕ":{"ha":679,"x_min":-6,"x_max":728,"o":"m 0 0 m 343 600 q 556 736 406 736 q 683 694 639 736 q 728 575 728 653 q 674 430 728 486 q 539 374 621 374 q 490 380 513 374 q 456 400 467 386 q 496 481 479 432 q 513 571 513 531 q 469 629 513 629 q 397 573 429 629 q 347 408 365 517 l 281 0 l -6 -28 l 136 708 l 364 736 l 343 600 m 456 1078 q 504 986 504 1060 q 458 888 504 921 q 328 840 411 856 l 157 808 l 128 875 l 456 1078 z "},"ř":{"ha":679,"x_min":-6,"x_max":728,"o":"m 0 0 m 343 600 q 556 736 406 736 q 683 694 639 736 q 728 575 728 653 q 674 430 728 486 q 539 374 621 374 q 490 380 513 374 q 456 400 467 386 q 496 481 479 432 q 513 571 513 531 q 469 629 513 629 q 397 573 429 629 q 347 408 365 517 l 281 0 l -6 -28 l 136 708 l 364 736 l 343 600 m 56 1018 l 125 1082 l 288 982 l 493 1082 l 536 1018 l 318 829 l 226 829 l 56 1018 z "},"ŗ":{"ha":679,"x_min":-35,"x_max":728,"o":"m 0 0 m 343 600 q 556 736 406 736 q 683 694 639 736 q 728 575 728 653 q 674 430 728 486 q 539 374 621 374 q 490 380 513 374 q 456 400 467 386 q 496 481 479 432 q 513 571 513 531 q 469 629 513 629 q 397 573 429 629 q 347 408 365 517 l 281 0 l -6 -28 l 136 708 l 364 736 l 343 600 m 240 -165 q 205 -268 240 -224 q 118 -335 169 -312 q 19 -358 67 -358 q -35 -353 -15 -358 q 33 -260 13 -300 q 54 -162 54 -219 q 50 -125 54 -146 q 40 -92 46 -104 q 79 -78 51 -85 q 126 -71 107 -71 q 210 -97 179 -71 q 240 -165 240 -124 z "},"ṛ":{"ha":679,"x_min":-17,"x_max":728,"o":"m 0 0 m 343 600 q 556 736 406 736 q 683 694 639 736 q 728 575 728 653 q 674 430 728 486 q 539 374 621 374 q 490 380 513 374 q 456 400 467 386 q 496 481 479 432 q 513 571 513 531 q 469 629 513 629 q 397 573 429 629 q 347 408 365 517 l 281 0 l -6 -28 l 136 708 l 364 736 l 343 600 m 131 -58 q 231 -86 193 -58 q 269 -164 269 -114 q 229 -242 269 -214 q 125 -269 189 -269 q 22 -242 61 -269 q -17 -167 -17 -215 q 25 -87 -17 -115 q 131 -58 67 -58 z "},"s":{"ha":621,"x_min":-29,"x_max":644,"o":"m 350 132 q 326 185 350 163 q 246 244 301 208 q 213 267 224 258 q 101 360 132 319 q 69 461 69 401 q 115 600 69 538 q 244 699 161 663 q 438 736 328 736 q 644 600 644 736 q 606 506 644 540 q 500 472 568 472 q 438 488 461 472 q 457 586 457 542 q 440 645 457 625 q 394 665 424 665 q 344 649 367 665 q 310 610 322 633 q 297 567 297 586 q 324 513 297 536 q 410 450 350 489 l 438 432 q 546 342 514 382 q 578 238 578 301 q 535 102 578 163 q 413 7 493 42 q 224 -28 332 -28 q 45 6 119 -28 q -29 111 -29 39 q 11 196 -29 164 q 113 228 51 228 q 203 206 167 228 q 185 128 185 160 q 203 68 185 90 q 256 46 221 46 q 322 73 294 46 q 350 132 350 100 z "},"ś":{"ha":621,"x_min":-29,"x_max":665,"o":"m 0 0 m 350 132 q 326 185 350 163 q 246 244 301 208 q 213 267 224 258 q 101 360 132 319 q 69 461 69 401 q 115 600 69 538 q 244 699 161 663 q 438 736 328 736 q 644 600 644 736 q 606 506 644 540 q 500 472 568 472 q 438 488 461 472 q 457 586 457 542 q 440 645 457 625 q 394 665 424 665 q 344 649 367 665 q 310 610 322 633 q 297 567 297 586 q 324 513 297 536 q 410 450 350 489 l 438 432 q 546 342 514 382 q 578 238 578 301 q 535 102 578 163 q 413 7 493 42 q 224 -28 332 -28 q 45 6 119 -28 q -29 111 -29 39 q 11 196 -29 164 q 113 228 51 228 q 203 206 167 228 q 185 128 185 160 q 203 68 185 90 q 256 46 221 46 q 322 73 294 46 q 350 132 350 100 m 617 1078 q 665 986 665 1060 q 619 888 665 921 q 489 840 572 856 l 318 808 l 289 875 l 617 1078 z "},"š":{"ha":621,"x_min":-29,"x_max":697,"o":"m 0 0 m 350 132 q 326 185 350 163 q 246 244 301 208 q 213 267 224 258 q 101 360 132 319 q 69 461 69 401 q 115 600 69 538 q 244 699 161 663 q 438 736 328 736 q 644 600 644 736 q 606 506 644 540 q 500 472 568 472 q 438 488 461 472 q 457 586 457 542 q 440 645 457 625 q 394 665 424 665 q 344 649 367 665 q 310 610 322 633 q 297 567 297 586 q 324 513 297 536 q 410 450 350 489 l 438 432 q 546 342 514 382 q 578 238 578 301 q 535 102 578 163 q 413 7 493 42 q 224 -28 332 -28 q 45 6 119 -28 q -29 111 -29 39 q 11 196 -29 164 q 113 228 51 228 q 203 206 167 228 q 185 128 185 160 q 203 68 185 90 q 256 46 221 46 q 322 73 294 46 q 350 132 350 100 m 217 1018 l 286 1082 l 449 982 l 654 1082 l 697 1018 l 479 829 l 388 829 l 217 1018 z "},"ş":{"ha":621,"x_min":-29,"x_max":644,"o":"m 500 472 q 438 488 461 472 q 457 586 457 542 q 440 645 457 625 q 394 665 424 665 q 344 649 367 665 q 310 610 322 633 q 297 567 297 586 q 324 513 297 536 q 410 450 350 489 l 438 432 q 546 342 514 382 q 578 238 578 301 q 501 64 578 136 q 290 -24 424 -8 l 272 -81 q 318 -79 288 -79 q 428 -107 386 -79 q 471 -192 471 -135 q 440 -278 471 -240 q 356 -337 408 -315 q 239 -358 303 -358 q 142 -339 178 -358 q 107 -285 107 -319 q 113 -249 107 -267 q 132 -219 119 -231 q 169 -253 146 -242 q 232 -264 193 -264 q 303 -204 303 -264 q 222 -153 303 -153 q 164 -156 203 -153 l 203 -28 q 38 9 104 -24 q -29 111 -29 42 q 11 196 -29 164 q 113 228 51 228 q 203 206 167 228 q 185 128 185 160 q 203 68 185 90 q 256 46 221 46 q 322 73 294 46 q 350 132 350 100 q 326 185 350 163 q 246 244 301 208 q 213 267 224 258 q 101 360 132 319 q 69 461 69 401 q 115 600 69 538 q 244 699 161 663 q 438 736 328 736 q 644 600 644 736 q 606 506 644 540 q 500 472 568 472 z "},"ŝ":{"ha":621,"x_min":-29,"x_max":683,"o":"m 0 0 m 350 132 q 326 185 350 163 q 246 244 301 208 q 213 267 224 258 q 101 360 132 319 q 69 461 69 401 q 115 600 69 538 q 244 699 161 663 q 438 736 328 736 q 644 600 644 736 q 606 506 644 540 q 500 472 568 472 q 438 488 461 472 q 457 586 457 542 q 440 645 457 625 q 394 665 424 665 q 344 649 367 665 q 310 610 322 633 q 297 567 297 586 q 324 513 297 536 q 410 450 350 489 l 438 432 q 546 342 514 382 q 578 238 578 301 q 535 102 578 163 q 413 7 493 42 q 224 -28 332 -28 q 45 6 119 -28 q -29 111 -29 39 q 11 196 -29 164 q 113 228 51 228 q 203 206 167 228 q 185 128 185 160 q 203 68 185 90 q 256 46 221 46 q 322 73 294 46 q 350 132 350 100 m 683 881 l 614 817 l 453 889 l 247 817 l 204 881 l 436 1042 l 499 1042 l 683 881 z "},"ș":{"ha":621,"x_min":-29,"x_max":644,"o":"m 0 0 m 350 132 q 326 185 350 163 q 246 244 301 208 q 213 267 224 258 q 101 360 132 319 q 69 461 69 401 q 115 600 69 538 q 244 699 161 663 q 438 736 328 736 q 644 600 644 736 q 606 506 644 540 q 500 472 568 472 q 438 488 461 472 q 457 586 457 542 q 440 645 457 625 q 394 665 424 665 q 344 649 367 665 q 310 610 322 633 q 297 567 297 586 q 324 513 297 536 q 410 450 350 489 l 438 432 q 546 342 514 382 q 578 238 578 301 q 535 102 578 163 q 413 7 493 42 q 224 -28 332 -28 q 45 6 119 -28 q -29 111 -29 39 q 11 196 -29 164 q 113 228 51 228 q 203 206 167 228 q 185 128 185 160 q 203 68 185 90 q 256 46 221 46 q 322 73 294 46 q 350 132 350 100 m 347 -165 q 312 -268 347 -224 q 225 -335 276 -312 q 126 -358 174 -358 q 72 -353 92 -358 q 140 -260 119 -300 q 161 -162 161 -219 q 157 -125 161 -146 q 147 -92 153 -104 q 186 -78 158 -85 q 233 -71 214 -71 q 317 -97 286 -71 q 347 -165 347 -124 z "},"ṣ":{"ha":621,"x_min":-29,"x_max":644,"o":"m 0 0 m 350 132 q 326 185 350 163 q 246 244 301 208 q 213 267 224 258 q 101 360 132 319 q 69 461 69 401 q 115 600 69 538 q 244 699 161 663 q 438 736 328 736 q 644 600 644 736 q 606 506 644 540 q 500 472 568 472 q 438 488 461 472 q 457 586 457 542 q 440 645 457 625 q 394 665 424 665 q 344 649 367 665 q 310 610 322 633 q 297 567 297 586 q 324 513 297 536 q 410 450 350 489 l 438 432 q 546 342 514 382 q 578 238 578 301 q 535 102 578 163 q 413 7 493 42 q 224 -28 332 -28 q 45 6 119 -28 q -29 111 -29 39 q 11 196 -29 164 q 113 228 51 228 q 203 206 167 228 q 185 128 185 160 q 203 68 185 90 q 256 46 221 46 q 322 73 294 46 q 350 132 350 100 m 238 -58 q 338 -86 300 -58 q 376 -164 376 -114 q 336 -242 376 -214 q 232 -269 296 -269 q 129 -242 168 -269 q 90 -167 90 -215 q 132 -87 90 -115 q 238 -58 174 -58 z "},"ß":{"ha":1036,"x_min":-164,"x_max":1011,"o":"m 157 722 q 553 1000 214 1000 q 783 956 692 1000 q 875 815 875 911 q 849 739 875 771 q 771 664 822 707 q 711 609 729 629 q 693 564 693 589 q 714 516 693 533 q 782 475 735 499 l 825 453 q 922 394 885 419 q 985 329 958 368 q 1011 239 1011 290 q 957 103 1011 164 q 817 7 903 42 q 643 -28 732 -28 q 476 11 549 -28 q 403 125 403 50 q 442 214 403 179 q 544 249 481 249 q 635 226 599 249 q 622 168 626 200 q 617 113 617 136 q 630 58 617 75 q 672 40 643 40 q 736 63 708 40 q 764 122 764 86 q 731 198 764 163 q 635 282 699 233 l 599 311 q 549 351 590 318 q 487 418 507 383 q 467 490 467 453 q 488 563 467 529 q 553 642 510 596 q 629 739 604 699 q 654 833 654 779 q 632 908 654 879 q 568 938 610 938 q 481 887 518 938 q 421 717 444 836 l 290 39 q 189 -190 260 -118 q -3 -261 118 -261 q -102 -242 -65 -261 q -164 -178 -139 -222 q -54 -117 -104 -178 q 17 40 -4 -57 l 157 722 z "},"ſ":{"ha":421,"x_min":-19,"x_max":738,"o":"m 143 790 q 260 954 167 908 q 490 1000 354 1000 q 665 975 592 1000 q 738 885 738 950 q 697 813 738 838 q 601 789 657 789 q 521 806 553 789 q 535 846 529 821 q 540 890 540 871 q 500 939 540 939 q 443 903 464 939 q 411 803 422 868 l 267 0 l -19 -28 l 143 790 z "},"t":{"ha":457,"x_min":46,"x_max":529,"o":"m 421 708 l 529 708 l 517 646 l 410 646 l 326 207 q 319 149 319 169 q 336 99 319 119 q 385 75 353 78 q 319 -1 369 25 q 206 -28 268 -28 q 90 9 133 -28 q 46 115 46 46 q 90 404 46 182 l 97 439 l 138 646 l 56 646 l 61 688 q 389 860 228 738 l 454 860 l 421 708 z "},"ŧ":{"ha":457,"x_min":-22,"x_max":529,"o":"m 518 483 q 524 444 524 461 q 497 381 524 406 q 418 356 469 356 l 354 356 l 326 207 q 319 149 319 169 q 336 99 319 119 q 385 75 353 78 q 319 -1 369 25 q 206 -28 268 -28 q 90 9 133 -28 q 46 115 46 46 q 81 356 46 167 l -18 356 q -22 393 -22 368 q 6 458 -21 433 q 72 483 32 483 l 106 483 l 138 646 l 56 646 l 61 688 q 389 860 228 738 l 454 860 l 421 708 l 529 708 l 517 646 l 410 646 l 379 483 l 518 483 z "},"ť":{"ha":457,"x_min":46,"x_max":700,"o":"m 518 981 q 557 994 532 988 q 603 1000 582 1000 q 673 971 646 1000 q 700 892 700 942 q 676 818 700 856 q 608 756 651 781 q 513 731 565 731 q 464 739 489 731 q 517 823 503 783 q 531 903 531 863 q 526 949 531 926 q 518 981 522 972 m 421 708 l 529 708 l 517 646 l 410 646 l 326 207 q 319 149 319 169 q 336 99 319 119 q 385 75 353 78 q 319 -1 369 25 q 206 -28 268 -28 q 90 9 133 -28 q 46 115 46 46 q 90 404 46 182 l 97 439 l 138 646 l 56 646 l 61 688 q 389 860 228 738 l 454 860 l 421 708 z "},"ţ":{"ha":457,"x_min":46,"x_max":529,"o":"m 326 207 q 319 149 319 169 q 336 99 319 119 q 385 75 353 78 q 329 6 371 32 q 235 -26 288 -21 l 218 -81 q 264 -79 233 -79 q 374 -107 332 -79 q 417 -192 417 -135 q 385 -278 417 -240 q 301 -337 354 -315 q 185 -358 249 -358 q 88 -339 124 -358 q 53 -285 53 -319 q 59 -249 53 -267 q 78 -219 65 -231 q 115 -253 92 -242 q 178 -264 139 -264 q 249 -204 249 -264 q 168 -153 249 -153 q 110 -156 149 -153 l 150 -21 q 74 26 101 -8 q 46 115 46 61 q 90 404 46 182 l 97 439 l 138 646 l 56 646 l 61 688 q 389 860 228 738 l 454 860 l 421 708 l 529 708 l 517 646 l 410 646 l 326 207 z "},"ț":{"ha":457,"x_min":18,"x_max":529,"o":"m 18 0 m 421 708 l 529 708 l 517 646 l 410 646 l 326 207 q 319 149 319 169 q 336 99 319 119 q 385 75 353 78 q 319 -1 369 25 q 206 -28 268 -28 q 90 9 133 -28 q 46 115 46 46 q 90 404 46 182 l 97 439 l 138 646 l 56 646 l 61 688 q 389 860 228 738 l 454 860 l 421 708 m 293 -165 q 258 -268 293 -224 q 171 -335 222 -312 q 72 -358 119 -358 q 18 -353 38 -358 q 86 -260 65 -300 q 107 -162 107 -219 q 103 -125 107 -146 q 93 -92 99 -104 q 132 -78 104 -85 q 179 -71 160 -71 q 263 -97 232 -71 q 293 -165 293 -124 z "},"ṭ":{"ha":457,"x_min":36,"x_max":529,"o":"m 36 0 m 421 708 l 529 708 l 517 646 l 410 646 l 326 207 q 319 149 319 169 q 336 99 319 119 q 385 75 353 78 q 319 -1 369 25 q 206 -28 268 -28 q 90 9 133 -28 q 46 115 46 46 q 90 404 46 182 l 97 439 l 138 646 l 56 646 l 61 688 q 389 860 228 738 l 454 860 l 421 708 m 183 -58 q 284 -86 246 -58 q 322 -164 322 -114 q 282 -242 322 -214 q 178 -269 242 -269 q 75 -242 114 -269 q 36 -167 36 -215 q 78 -87 36 -115 q 183 -58 119 -58 z "},"u":{"ha":846,"x_min":35,"x_max":825,"o":"m 725 207 q 718 149 718 169 q 735 99 718 119 q 783 75 751 78 q 717 -1 768 25 q 607 -28 665 -28 q 520 -8 558 -28 q 468 51 482 13 q 244 -28 390 -28 q 90 12 144 -28 q 35 146 35 51 q 50 289 35 203 q 68 389 65 375 l 126 708 l 406 736 l 326 353 q 302 224 310 275 q 294 133 294 174 q 304 81 294 100 q 344 61 314 61 q 423 113 394 61 q 464 235 451 165 l 547 708 l 825 736 l 725 207 z "},"ú":{"ha":846,"x_min":35,"x_max":825,"o":"m 35 0 m 725 207 q 718 149 718 169 q 735 99 718 119 q 783 75 751 78 q 717 -1 768 25 q 607 -28 665 -28 q 520 -8 558 -28 q 468 51 482 13 q 244 -28 390 -28 q 90 12 144 -28 q 35 146 35 51 q 50 289 35 203 q 68 389 65 375 l 126 708 l 406 736 l 326 353 q 302 224 310 275 q 294 133 294 174 q 304 81 294 100 q 344 61 314 61 q 423 113 394 61 q 464 235 451 165 l 547 708 l 825 736 l 725 207 m 678 1078 q 726 986 726 1060 q 680 888 726 921 q 550 840 633 856 l 379 808 l 350 875 l 678 1078 z "},"ŭ":{"ha":846,"x_min":35,"x_max":825,"o":"m 35 0 m 725 207 q 718 149 718 169 q 735 99 718 119 q 783 75 751 78 q 717 -1 768 25 q 607 -28 665 -28 q 520 -8 558 -28 q 468 51 482 13 q 244 -28 390 -28 q 90 12 144 -28 q 35 146 35 51 q 50 289 35 203 q 68 389 65 375 l 126 708 l 406 736 l 326 353 q 302 224 310 275 q 294 133 294 174 q 304 81 294 100 q 344 61 314 61 q 423 113 394 61 q 464 235 451 165 l 547 708 l 825 736 l 725 207 m 472 1032 q 467 990 467 1006 l 465 949 q 475 904 465 921 q 513 888 485 888 q 565 909 546 888 q 592 957 585 931 q 610 1032 600 983 l 808 1032 q 713 878 790 936 q 499 819 636 819 q 368 844 422 819 q 287 908 314 868 q 260 994 260 947 q 264 1032 260 1011 l 472 1032 z "},"û":{"ha":846,"x_min":35,"x_max":825,"o":"m 35 0 m 725 207 q 718 149 718 169 q 735 99 718 119 q 783 75 751 78 q 717 -1 768 25 q 607 -28 665 -28 q 520 -8 558 -28 q 468 51 482 13 q 244 -28 390 -28 q 90 12 144 -28 q 35 146 35 51 q 50 289 35 203 q 68 389 65 375 l 126 708 l 406 736 l 326 353 q 302 224 310 275 q 294 133 294 174 q 304 81 294 100 q 344 61 314 61 q 423 113 394 61 q 464 235 451 165 l 547 708 l 825 736 l 725 207 m 744 881 l 675 817 l 514 889 l 308 817 l 265 881 l 497 1042 l 560 1042 l 744 881 z "},"ü":{"ha":846,"x_min":35,"x_max":838,"o":"m 35 0 m 725 207 q 718 149 718 169 q 735 99 718 119 q 783 75 751 78 q 717 -1 768 25 q 607 -28 665 -28 q 520 -8 558 -28 q 468 51 482 13 q 244 -28 390 -28 q 90 12 144 -28 q 35 146 35 51 q 50 289 35 203 q 68 389 65 375 l 126 708 l 406 736 l 326 353 q 302 224 310 275 q 294 133 294 174 q 304 81 294 100 q 344 61 314 61 q 423 113 394 61 q 464 235 451 165 l 547 708 l 825 736 l 725 207 m 692 1042 q 797 1013 757 1042 q 838 931 838 983 q 795 849 838 878 q 686 819 753 819 q 578 848 619 819 q 538 928 538 876 q 581 1012 538 982 q 692 1042 625 1042 m 358 1042 q 464 1013 424 1042 q 504 931 504 983 q 462 849 504 878 q 353 819 419 819 q 245 848 286 819 q 204 928 204 876 q 248 1012 204 982 q 358 1042 292 1042 z "},"ụ":{"ha":846,"x_min":35,"x_max":825,"o":"m 35 0 m 725 207 q 718 149 718 169 q 735 99 718 119 q 783 75 751 78 q 717 -1 768 25 q 607 -28 665 -28 q 520 -8 558 -28 q 468 51 482 13 q 244 -28 390 -28 q 90 12 144 -28 q 35 146 35 51 q 50 289 35 203 q 68 389 65 375 l 126 708 l 406 736 l 326 353 q 302 224 310 275 q 294 133 294 174 q 304 81 294 100 q 344 61 314 61 q 423 113 394 61 q 464 235 451 165 l 547 708 l 825 736 l 725 207 m 338 -58 q 438 -86 400 -58 q 476 -164 476 -114 q 436 -242 476 -214 q 332 -269 396 -269 q 229 -242 268 -269 q 190 -167 190 -215 q 232 -87 190 -115 q 338 -58 274 -58 z "},"ù":{"ha":846,"x_min":35,"x_max":825,"o":"m 35 0 m 725 207 q 718 149 718 169 q 735 99 718 119 q 783 75 751 78 q 717 -1 768 25 q 607 -28 665 -28 q 520 -8 558 -28 q 468 51 482 13 q 244 -28 390 -28 q 90 12 144 -28 q 35 146 35 51 q 50 289 35 203 q 68 389 65 375 l 126 708 l 406 736 l 326 353 q 302 224 310 275 q 294 133 294 174 q 304 81 294 100 q 344 61 314 61 q 423 113 394 61 q 464 235 451 165 l 547 708 l 825 736 l 725 207 m 435 840 q 304 888 351 856 q 257 986 257 921 q 269 1043 257 1018 q 307 1078 282 1068 l 633 875 l 604 808 l 435 840 z "},"ű":{"ha":846,"x_min":35,"x_max":885,"o":"m 35 0 m 725 207 q 718 149 718 169 q 735 99 718 119 q 783 75 751 78 q 717 -1 768 25 q 607 -28 665 -28 q 520 -8 558 -28 q 468 51 482 13 q 244 -28 390 -28 q 90 12 144 -28 q 35 146 35 51 q 50 289 35 203 q 68 389 65 375 l 126 708 l 406 736 l 326 353 q 302 224 310 275 q 294 133 294 174 q 304 81 294 100 q 344 61 314 61 q 423 113 394 61 q 464 235 451 165 l 547 708 l 825 736 l 725 207 m 507 1096 q 578 1066 551 1089 q 606 1013 606 1043 q 567 909 606 961 q 467 824 529 857 l 350 751 l 286 789 l 507 1096 m 786 1096 q 858 1066 831 1089 q 885 1013 885 1043 q 847 909 885 961 q 746 824 808 857 l 629 751 l 565 789 l 786 1096 z "},"ū":{"ha":846,"x_min":35,"x_max":825,"o":"m 35 0 m 725 207 q 718 149 718 169 q 735 99 718 119 q 783 75 751 78 q 717 -1 768 25 q 607 -28 665 -28 q 520 -8 558 -28 q 468 51 482 13 q 244 -28 390 -28 q 90 12 144 -28 q 35 146 35 51 q 50 289 35 203 q 68 389 65 375 l 126 708 l 406 736 l 326 353 q 302 224 310 275 q 294 133 294 174 q 304 81 294 100 q 344 61 314 61 q 423 113 394 61 q 464 235 451 165 l 547 708 l 825 736 l 725 207 m 740 992 q 746 953 746 969 q 719 889 746 914 q 642 864 692 864 l 317 864 q 313 901 313 876 q 340 967 314 942 q 407 992 367 992 l 740 992 z "},"ų":{"ha":846,"x_min":35,"x_max":825,"o":"m 679 -242 q 765 -207 735 -242 q 785 -237 779 -224 q 790 -272 790 -251 q 751 -333 790 -308 q 640 -358 711 -358 q 506 -319 554 -358 q 458 -203 458 -279 q 561 -22 458 -92 q 468 51 488 -6 q 244 -28 390 -28 q 90 12 144 -28 q 35 146 35 51 q 50 289 35 203 q 68 389 65 375 l 126 708 l 406 736 l 326 353 q 302 224 310 275 q 294 133 294 174 q 304 81 294 100 q 344 61 314 61 q 423 113 394 61 q 464 235 451 165 l 547 708 l 825 736 l 725 207 q 718 149 718 169 q 735 99 718 119 q 783 75 751 78 q 740 14 772 42 q 649 -72 685 -24 q 614 -171 614 -121 q 679 -242 614 -242 z "},"ů":{"ha":846,"x_min":35,"x_max":825,"o":"m 35 0 m 725 207 q 718 149 718 169 q 735 99 718 119 q 783 75 751 78 q 717 -1 768 25 q 607 -28 665 -28 q 520 -8 558 -28 q 468 51 482 13 q 244 -28 390 -28 q 90 12 144 -28 q 35 146 35 51 q 50 289 35 203 q 68 389 65 375 l 126 708 l 406 736 l 326 353 q 302 224 310 275 q 294 133 294 174 q 304 81 294 100 q 344 61 314 61 q 423 113 394 61 q 464 235 451 165 l 547 708 l 825 736 l 725 207 m 485 789 q 387 817 422 789 q 351 900 351 846 q 408 1013 351 971 q 543 1056 464 1056 q 638 1027 604 1056 q 672 944 672 999 q 617 831 672 874 q 485 789 563 789 m 499 842 q 552 870 529 842 q 575 938 575 899 q 562 982 575 965 q 525 999 549 999 q 473 970 493 999 q 453 901 453 942 q 464 858 453 874 q 499 842 475 842 z "},"ũ":{"ha":846,"x_min":35,"x_max":825,"o":"m 35 0 m 725 207 q 718 149 718 169 q 735 99 718 119 q 783 75 751 78 q 717 -1 768 25 q 607 -28 665 -28 q 520 -8 558 -28 q 468 51 482 13 q 244 -28 390 -28 q 90 12 144 -28 q 35 146 35 51 q 50 289 35 203 q 68 389 65 375 l 126 708 l 406 736 l 326 353 q 302 224 310 275 q 294 133 294 174 q 304 81 294 100 q 344 61 314 61 q 423 113 394 61 q 464 235 451 165 l 547 708 l 825 736 l 725 207 m 754 1010 q 781 939 781 978 q 745 863 781 889 q 647 836 710 836 q 493 850 607 836 q 364 861 388 861 q 310 854 336 861 q 271 838 285 847 q 243 917 243 878 q 278 985 243 961 q 379 1010 314 1010 q 465 1004 411 1010 q 538 997 519 999 q 671 986 643 986 q 754 1010 731 986 z "},"v":{"ha":751,"x_min":10,"x_max":757,"o":"m 103 -28 q 67 542 93 367 q 45 638 57 607 q 10 685 33 669 q 164 736 74 736 q 294 690 257 736 q 339 542 331 643 q 343 353 343 486 q 342 108 343 217 q 469 334 419 188 q 518 606 518 481 q 508 685 518 653 q 635 736 556 736 q 722 708 688 736 q 757 619 757 681 q 708 436 757 546 q 590 232 658 326 q 485 106 544 169 q 364 0 426 42 l 103 -28 z "},"w":{"ha":1153,"x_min":10,"x_max":1158,"o":"m 103 -28 q 67 542 93 367 q 45 638 57 607 q 10 685 33 669 q 82 724 44 713 q 165 736 119 736 q 297 689 260 736 q 339 542 333 642 q 343 331 343 478 q 342 108 343 203 q 458 328 417 185 q 499 604 499 472 q 489 685 499 653 q 617 736 536 736 q 724 690 696 736 q 760 543 753 643 q 764 325 764 481 q 763 108 764 200 q 878 328 838 185 q 918 604 918 472 q 908 685 918 653 q 1035 736 956 736 q 1124 708 1089 736 q 1158 619 1158 681 q 1109 436 1158 546 q 992 232 1060 326 q 887 106 946 169 q 765 0 828 42 l 561 -26 q 558 253 561 149 q 467 109 532 181 q 333 0 403 38 l 103 -28 z "},"ẃ":{"ha":1153,"x_min":10,"x_max":1158,"o":"m 10 0 m 103 -28 q 67 542 93 367 q 45 638 57 607 q 10 685 33 669 q 82 724 44 713 q 165 736 119 736 q 297 689 260 736 q 339 542 333 642 q 343 331 343 478 q 342 108 343 203 q 458 328 417 185 q 499 604 499 472 q 489 685 499 653 q 617 736 536 736 q 724 690 696 736 q 760 543 753 643 q 764 325 764 481 q 763 108 764 200 q 878 328 838 185 q 918 604 918 472 q 908 685 918 653 q 1035 736 956 736 q 1124 708 1089 736 q 1158 619 1158 681 q 1109 436 1158 546 q 992 232 1060 326 q 887 106 946 169 q 765 0 828 42 l 561 -26 q 558 253 561 149 q 467 109 532 181 q 333 0 403 38 l 103 -28 m 819 1078 q 868 986 868 1060 q 822 888 868 921 q 692 840 775 856 l 521 808 l 492 875 l 819 1078 z "},"ŵ":{"ha":1153,"x_min":10,"x_max":1158,"o":"m 10 0 m 103 -28 q 67 542 93 367 q 45 638 57 607 q 10 685 33 669 q 82 724 44 713 q 165 736 119 736 q 297 689 260 736 q 339 542 333 642 q 343 331 343 478 q 342 108 343 203 q 458 328 417 185 q 499 604 499 472 q 489 685 499 653 q 617 736 536 736 q 724 690 696 736 q 760 543 753 643 q 764 325 764 481 q 763 108 764 200 q 878 328 838 185 q 918 604 918 472 q 908 685 918 653 q 1035 736 956 736 q 1124 708 1089 736 q 1158 619 1158 681 q 1109 436 1158 546 q 992 232 1060 326 q 887 106 946 169 q 765 0 828 42 l 561 -26 q 558 253 561 149 q 467 109 532 181 q 333 0 403 38 l 103 -28 m 886 881 l 817 817 l 656 889 l 450 817 l 407 881 l 639 1042 l 701 1042 l 886 881 z "},"ẅ":{"ha":1153,"x_min":10,"x_max":1158,"o":"m 10 0 m 103 -28 q 67 542 93 367 q 45 638 57 607 q 10 685 33 669 q 82 724 44 713 q 165 736 119 736 q 297 689 260 736 q 339 542 333 642 q 343 331 343 478 q 342 108 343 203 q 458 328 417 185 q 499 604 499 472 q 489 685 499 653 q 617 736 536 736 q 724 690 696 736 q 760 543 753 643 q 764 325 764 481 q 763 108 764 200 q 878 328 838 185 q 918 604 918 472 q 908 685 918 653 q 1035 736 956 736 q 1124 708 1089 736 q 1158 619 1158 681 q 1109 436 1158 546 q 992 232 1060 326 q 887 106 946 169 q 765 0 828 42 l 561 -26 q 558 253 561 149 q 467 109 532 181 q 333 0 403 38 l 103 -28 m 833 1042 q 939 1013 899 1042 q 979 931 979 983 q 937 849 979 878 q 828 819 894 819 q 720 848 761 819 q 679 928 679 876 q 723 1012 679 982 q 833 1042 767 1042 m 500 1042 q 606 1013 565 1042 q 646 931 646 983 q 603 849 646 878 q 494 819 561 819 q 387 848 428 819 q 346 928 346 876 q 390 1012 346 982 q 500 1042 433 1042 z "},"ẁ":{"ha":1153,"x_min":10,"x_max":1158,"o":"m 10 0 m 103 -28 q 67 542 93 367 q 45 638 57 607 q 10 685 33 669 q 82 724 44 713 q 165 736 119 736 q 297 689 260 736 q 339 542 333 642 q 343 331 343 478 q 342 108 343 203 q 458 328 417 185 q 499 604 499 472 q 489 685 499 653 q 617 736 536 736 q 724 690 696 736 q 760 543 753 643 q 764 325 764 481 q 763 108 764 200 q 878 328 838 185 q 918 604 918 472 q 908 685 918 653 q 1035 736 956 736 q 1124 708 1089 736 q 1158 619 1158 681 q 1109 436 1158 546 q 992 232 1060 326 q 887 106 946 169 q 765 0 828 42 l 561 -26 q 558 253 561 149 q 467 109 532 181 q 333 0 403 38 l 103 -28 m 576 840 q 446 888 493 856 q 399 986 399 921 q 411 1043 399 1018 q 449 1078 424 1068 l 775 875 l 746 808 l 576 840 z "},"x":{"ha":713,"x_min":-42,"x_max":743,"o":"m 150 526 q 111 594 132 569 q 57 624 90 619 q 122 707 74 678 q 233 736 171 736 q 331 707 294 736 q 393 617 368 678 l 460 461 q 529 593 529 490 q 496 703 529 658 q 617 736 549 736 q 710 706 678 736 q 743 617 743 676 q 578 407 743 485 l 494 368 l 567 182 q 660 85 601 90 q 595 1 643 31 q 483 -28 547 -28 q 385 1 421 -28 q 324 92 349 29 l 256 267 q 193 208 214 249 q 172 115 172 167 q 206 6 172 50 q 85 -28 154 -28 q -10 3 22 -28 q -42 93 -42 33 q 7 226 -42 169 q 136 321 56 283 l 219 360 l 150 526 z "},"y":{"ha":706,"x_min":19,"x_max":750,"o":"m 78 -156 q 221 44 78 -49 l 106 39 q 94 338 100 229 q 76 542 88 446 q 56 638 69 606 q 19 685 43 669 q 174 736 83 736 q 272 715 236 736 q 322 652 307 693 q 343 542 338 611 q 346 428 346 486 l 346 353 l 344 161 q 465 376 419 258 q 511 606 511 493 q 501 685 511 653 q 626 736 549 736 q 715 708 681 736 q 750 619 750 681 q 698 449 750 546 q 572 262 646 353 q 432 106 499 171 q 346 8 372 47 q 319 -89 319 -31 q 338 -158 319 -124 q 386 -214 357 -192 q 306 -262 353 -246 q 210 -278 260 -278 q 113 -247 149 -278 q 78 -156 78 -215 z "},"ý":{"ha":706,"x_min":19,"x_max":750,"o":"m 19 0 m 78 -156 q 221 44 78 -49 l 106 39 q 94 338 100 229 q 76 542 88 446 q 56 638 69 606 q 19 685 43 669 q 174 736 83 736 q 272 715 236 736 q 322 652 307 693 q 343 542 338 611 q 346 428 346 486 l 346 353 l 344 161 q 465 376 419 258 q 511 606 511 493 q 501 685 511 653 q 626 736 549 736 q 715 708 681 736 q 750 619 750 681 q 698 449 750 546 q 572 262 646 353 q 432 106 499 171 q 346 8 372 47 q 319 -89 319 -31 q 338 -158 319 -124 q 386 -214 357 -192 q 306 -262 353 -246 q 210 -278 260 -278 q 113 -247 149 -278 q 78 -156 78 -215 m 621 1078 q 669 986 669 1060 q 623 888 669 921 q 493 840 576 856 l 322 808 l 293 875 l 621 1078 z "},"ŷ":{"ha":706,"x_min":19,"x_max":750,"o":"m 19 0 m 78 -156 q 221 44 78 -49 l 106 39 q 94 338 100 229 q 76 542 88 446 q 56 638 69 606 q 19 685 43 669 q 174 736 83 736 q 272 715 236 736 q 322 652 307 693 q 343 542 338 611 q 346 428 346 486 l 346 353 l 344 161 q 465 376 419 258 q 511 606 511 493 q 501 685 511 653 q 626 736 549 736 q 715 708 681 736 q 750 619 750 681 q 698 449 750 546 q 572 262 646 353 q 432 106 499 171 q 346 8 372 47 q 319 -89 319 -31 q 338 -158 319 -124 q 386 -214 357 -192 q 306 -262 353 -246 q 210 -278 260 -278 q 113 -247 149 -278 q 78 -156 78 -215 m 688 881 l 618 817 l 457 889 l 251 817 l 208 881 l 440 1042 l 503 1042 l 688 881 z "},"ÿ":{"ha":706,"x_min":19,"x_max":781,"o":"m 19 0 m 78 -156 q 221 44 78 -49 l 106 39 q 94 338 100 229 q 76 542 88 446 q 56 638 69 606 q 19 685 43 669 q 174 736 83 736 q 272 715 236 736 q 322 652 307 693 q 343 542 338 611 q 346 428 346 486 l 346 353 l 344 161 q 465 376 419 258 q 511 606 511 493 q 501 685 511 653 q 626 736 549 736 q 715 708 681 736 q 750 619 750 681 q 698 449 750 546 q 572 262 646 353 q 432 106 499 171 q 346 8 372 47 q 319 -89 319 -31 q 338 -158 319 -124 q 386 -214 357 -192 q 306 -262 353 -246 q 210 -278 260 -278 q 113 -247 149 -278 q 78 -156 78 -215 m 635 1042 q 740 1013 700 1042 q 781 931 781 983 q 738 849 781 878 q 629 819 696 819 q 522 848 563 819 q 481 928 481 876 q 524 1012 481 982 q 635 1042 568 1042 m 301 1042 q 407 1013 367 1042 q 447 931 447 983 q 405 849 447 878 q 296 819 363 819 q 188 848 229 819 q 147 928 147 876 q 191 1012 147 982 q 301 1042 235 1042 z "},"ỳ":{"ha":706,"x_min":19,"x_max":750,"o":"m 19 0 m 78 -156 q 221 44 78 -49 l 106 39 q 94 338 100 229 q 76 542 88 446 q 56 638 69 606 q 19 685 43 669 q 174 736 83 736 q 272 715 236 736 q 322 652 307 693 q 343 542 338 611 q 346 428 346 486 l 346 353 l 344 161 q 465 376 419 258 q 511 606 511 493 q 501 685 511 653 q 626 736 549 736 q 715 708 681 736 q 750 619 750 681 q 698 449 750 546 q 572 262 646 353 q 432 106 499 171 q 346 8 372 47 q 319 -89 319 -31 q 338 -158 319 -124 q 386 -214 357 -192 q 306 -262 353 -246 q 210 -278 260 -278 q 113 -247 149 -278 q 78 -156 78 -215 m 378 840 q 247 888 294 856 q 200 986 200 921 q 213 1043 200 1018 q 250 1078 225 1068 l 576 875 l 547 808 l 378 840 z "},"ỹ":{"ha":706,"x_min":19,"x_max":750,"o":"m 19 0 m 78 -156 q 221 44 78 -49 l 106 39 q 94 338 100 229 q 76 542 88 446 q 56 638 69 606 q 19 685 43 669 q 174 736 83 736 q 272 715 236 736 q 322 652 307 693 q 343 542 338 611 q 346 428 346 486 l 346 353 l 344 161 q 465 376 419 258 q 511 606 511 493 q 501 685 511 653 q 626 736 549 736 q 715 708 681 736 q 750 619 750 681 q 698 449 750 546 q 572 262 646 353 q 432 106 499 171 q 346 8 372 47 q 319 -89 319 -31 q 338 -158 319 -124 q 386 -214 357 -192 q 306 -262 353 -246 q 210 -278 260 -278 q 113 -247 149 -278 q 78 -156 78 -215 m 697 1010 q 724 939 724 978 q 688 863 724 889 q 590 836 653 836 q 436 850 550 836 q 307 861 331 861 q 253 854 279 861 q 214 838 228 847 q 186 917 186 878 q 222 985 186 961 q 322 1010 257 1010 q 408 1004 354 1010 q 481 997 463 999 q 614 986 586 986 q 697 1010 674 986 z "},"z":{"ha":628,"x_min":-14,"x_max":657,"o":"m 413 493 q 317 513 368 506 q 231 521 267 521 q 103 460 135 521 q 68 524 81 486 q 56 599 56 561 q 103 703 56 671 q 229 736 150 736 q 327 728 272 736 q 393 718 382 719 q 543 701 501 701 q 621 717 594 701 q 657 633 657 682 q 634 556 657 590 q 569 492 611 522 l 226 233 q 410 201 338 201 q 492 215 451 201 q 557 257 532 229 q 596 142 596 213 q 544 15 596 58 q 407 -28 493 -28 q 261 -7 353 -28 q 121 13 167 13 q 33 -1 78 13 q -14 94 -14 29 q 69 244 -14 178 l 413 493 z "},"ź":{"ha":628,"x_min":-14,"x_max":657,"o":"m 0 0 m 413 493 q 317 513 368 506 q 231 521 267 521 q 103 460 135 521 q 68 524 81 486 q 56 599 56 561 q 103 703 56 671 q 229 736 150 736 q 327 728 272 736 q 393 718 382 719 q 543 701 501 701 q 621 717 594 701 q 657 633 657 682 q 634 556 657 590 q 569 492 611 522 l 226 233 q 410 201 338 201 q 492 215 451 201 q 557 257 532 229 q 596 142 596 213 q 544 15 596 58 q 407 -28 493 -28 q 261 -7 353 -28 q 121 13 167 13 q 33 -1 78 13 q -14 94 -14 29 q 69 244 -14 178 l 413 493 m 583 1078 q 632 986 632 1060 q 585 888 632 921 q 456 840 539 856 l 285 808 l 256 875 l 583 1078 z "},"ž":{"ha":628,"x_min":-14,"x_max":664,"o":"m 0 0 m 413 493 q 317 513 368 506 q 231 521 267 521 q 103 460 135 521 q 68 524 81 486 q 56 599 56 561 q 103 703 56 671 q 229 736 150 736 q 327 728 272 736 q 393 718 382 719 q 543 701 501 701 q 621 717 594 701 q 657 633 657 682 q 634 556 657 590 q 569 492 611 522 l 226 233 q 410 201 338 201 q 492 215 451 201 q 557 257 532 229 q 596 142 596 213 q 544 15 596 58 q 407 -28 493 -28 q 261 -7 353 -28 q 121 13 167 13 q 33 -1 78 13 q -14 94 -14 29 q 69 244 -14 178 l 413 493 m 183 1018 l 253 1082 l 415 982 l 621 1082 l 664 1018 l 446 829 l 354 829 l 183 1018 z "},"ż":{"ha":628,"x_min":-14,"x_max":657,"o":"m 0 0 m 413 493 q 317 513 368 506 q 231 521 267 521 q 103 460 135 521 q 68 524 81 486 q 56 599 56 561 q 103 703 56 671 q 229 736 150 736 q 327 728 272 736 q 393 718 382 719 q 543 701 501 701 q 621 717 594 701 q 657 633 657 682 q 634 556 657 590 q 569 492 611 522 l 226 233 q 410 201 338 201 q 492 215 451 201 q 557 257 532 229 q 596 142 596 213 q 544 15 596 58 q 407 -28 493 -28 q 261 -7 353 -28 q 121 13 167 13 q 33 -1 78 13 q -14 94 -14 29 q 69 244 -14 178 l 413 493 m 428 1042 q 533 1013 493 1042 q 574 931 574 983 q 531 849 574 878 q 422 819 489 819 q 315 848 356 819 q 274 928 274 876 q 317 1012 274 982 q 428 1042 361 1042 z "},"ẓ":{"ha":628,"x_min":-14,"x_max":657,"o":"m 0 0 m 413 493 q 317 513 368 506 q 231 521 267 521 q 103 460 135 521 q 68 524 81 486 q 56 599 56 561 q 103 703 56 671 q 229 736 150 736 q 327 728 272 736 q 393 718 382 719 q 543 701 501 701 q 621 717 594 701 q 657 633 657 682 q 634 556 657 590 q 569 492 611 522 l 226 233 q 410 201 338 201 q 492 215 451 201 q 557 257 532 229 q 596 142 596 213 q 544 15 596 58 q 407 -28 493 -28 q 261 -7 353 -28 q 121 13 167 13 q 33 -1 78 13 q -14 94 -14 29 q 69 244 -14 178 l 413 493 m 261 -58 q 362 -86 324 -58 q 400 -164 400 -114 q 360 -242 400 -214 q 256 -269 319 -269 q 153 -242 192 -269 q 114 -167 114 -215 q 156 -87 114 -115 q 261 -58 197 -58 z "},"ﬁ":{"ha":890,"x_min":3,"x_max":900,"o":"m 769 207 q 763 149 763 169 q 779 99 763 119 q 828 75 796 78 q 761 -1 813 25 q 647 -28 710 -28 q 533 9 576 -28 q 489 115 489 46 q 535 408 489 183 l 540 436 l 581 646 l 404 646 l 283 0 l 3 -28 l 133 646 l 35 646 l 47 708 l 147 708 l 174 793 q 310 958 213 915 q 574 1000 408 1000 q 800 974 700 1000 q 900 869 900 949 q 853 796 900 817 q 744 775 807 775 q 611 821 647 775 q 626 874 626 847 q 607 919 626 903 q 554 936 588 936 q 480 904 507 936 q 439 808 453 872 l 417 708 l 867 708 l 769 207 z "},"ﬂ":{"ha":892,"x_min":3,"x_max":924,"o":"m 631 911 q 608 929 631 922 q 560 936 586 936 q 481 906 507 936 q 439 808 454 875 l 417 708 l 514 708 l 501 646 l 404 646 l 283 0 l 3 -28 l 133 646 l 35 646 l 47 708 l 147 708 l 174 793 q 305 953 208 907 q 550 1000 401 1000 q 649 993 610 1000 q 722 972 689 986 l 924 1000 l 771 207 q 764 149 764 169 q 781 99 764 119 q 829 75 797 78 q 763 -1 814 25 q 649 -28 711 -28 q 534 9 578 -28 q 490 115 490 46 q 536 408 490 183 l 542 436 l 628 892 l 631 911 z "},"ª":{"ha":635,"x_min":71,"x_max":660,"o":"m 589 561 q 583 522 583 539 q 595 481 583 499 q 625 463 607 463 q 578 411 615 433 q 501 389 542 389 q 440 405 467 389 q 404 446 413 421 q 349 405 385 421 q 268 389 313 389 q 137 449 183 389 q 90 611 90 508 q 128 778 90 704 q 235 894 167 853 q 390 936 303 936 q 489 917 446 936 l 660 936 l 589 561 m 414 883 q 351 839 381 883 q 303 719 322 794 q 279 524 279 618 q 287 467 279 486 q 317 447 294 447 q 367 480 344 447 q 399 568 389 513 l 456 868 q 414 883 436 883 m 556 328 q 560 294 560 311 q 540 240 560 261 q 479 219 519 219 l 75 219 q 71 251 71 236 q 92 306 71 285 q 144 328 113 328 l 556 328 z "},"º":{"ha":624,"x_min":51,"x_max":622,"o":"m 622 713 q 581 542 622 615 q 467 428 540 468 q 299 389 393 389 q 140 442 190 389 q 89 600 89 494 q 124 767 89 690 q 229 890 158 843 q 403 936 300 936 q 622 713 622 936 m 313 447 q 372 502 343 447 q 417 640 400 557 q 435 800 435 722 q 428 860 435 842 q 403 878 421 878 q 340 822 369 878 q 294 685 311 767 q 278 535 278 604 q 286 467 278 488 q 313 447 294 447 m 57 219 q 53 234 56 225 q 51 253 51 243 q 72 306 51 285 q 125 328 93 328 l 511 328 q 517 296 517 308 q 495 241 517 263 q 433 219 474 219 l 57 219 z "},"Δ":{"ha":794,"x_min":-110,"x_max":756,"o":"m 654 917 q 733 183 668 728 q 756 0 751 42 l -110 0 l 356 917 l 654 917 m 322 532 q 206 290 260 403 q 122 101 153 178 l 474 101 l 414 683 l 414 724 l 322 532 z "},"Ω":{"ha":978,"x_min":13,"x_max":942,"o":"m 476 146 q 617 396 560 193 q 657 671 657 544 q 636 798 657 750 q 564 846 615 846 q 452 770 500 846 q 378 576 404 694 q 353 350 353 464 q 367 228 353 274 q 408 146 381 183 l 367 0 l 133 0 q 13 100 13 0 q 22 156 13 128 q 47 208 31 185 q 110 163 74 178 q 214 149 147 149 l 254 149 q 113 251 161 174 q 65 442 65 328 q 128 692 65 576 q 310 876 192 807 q 583 946 428 946 q 847 858 751 946 q 942 594 942 771 q 856 308 942 428 q 618 150 771 189 l 663 150 q 801 169 744 150 q 872 208 857 188 q 894 126 894 169 q 729 0 894 0 l 476 0 l 476 146 z "},"μ":{"ha":857,"x_min":-42,"x_max":836,"o":"m 836 736 l 736 207 q 729 149 729 169 q 746 99 729 119 q 794 75 763 78 q 728 -1 779 25 q 618 -28 676 -28 q 531 -8 569 -28 q 479 51 493 13 q 415 8 451 24 q 328 -18 378 -7 q 274 -26 299 -25 l 236 -250 l -42 -278 l 79 346 q 83 366 81 356 q 88 388 86 376 q 106 482 97 432 q 115 557 115 532 q 99 610 115 590 q 51 633 82 631 q 117 710 67 683 q 231 736 168 736 q 346 699 303 736 q 389 593 389 663 q 380 512 389 560 q 350 375 371 464 q 319 239 331 293 q 308 147 308 185 q 357 79 308 79 q 483 286 446 79 l 558 708 l 836 736 z "},"π":{"ha":778,"x_min":36,"x_max":797,"o":"m 178 540 q 111 530 143 540 q 63 504 79 519 q 49 588 49 550 q 108 701 49 667 q 258 735 168 735 q 353 729 296 735 q 465 717 411 724 q 632 701 585 701 q 757 738 711 701 q 785 694 774 721 q 797 640 797 668 q 751 547 797 585 q 626 504 706 510 l 607 333 q 599 213 599 264 q 623 113 599 150 q 700 74 647 75 q 644 -8 682 19 q 549 -36 606 -36 q 452 -4 488 -36 q 417 94 417 28 q 428 206 417 133 q 453 343 439 279 l 488 513 l 342 526 l 238 0 l 36 -28 l 215 539 l 178 540 z "},"¹":{"ha":443,"x_min":50,"x_max":432,"o":"m 329 499 l 350 499 q 422 508 399 499 q 432 463 432 489 q 409 413 432 426 q 335 399 386 399 l 254 401 q 103 404 157 404 q 54 401 76 404 q 50 429 50 413 q 67 481 50 463 q 114 499 83 499 l 165 499 l 231 792 q 197 774 218 782 q 157 767 175 767 q 108 789 126 767 q 86 846 89 811 q 210 877 146 856 q 365 939 275 899 l 406 914 l 329 499 z "},"²":{"ha":475,"x_min":89,"x_max":496,"o":"m 331 944 q 449 912 401 944 q 496 811 496 879 q 472 728 496 768 q 394 650 449 689 q 239 547 339 611 q 369 535 301 535 q 454 558 431 535 q 475 496 475 529 q 340 397 475 397 q 228 410 300 397 q 157 418 175 418 q 115 407 126 418 q 97 437 104 417 q 89 475 89 457 q 127 554 89 515 q 236 644 165 593 q 292 688 231 640 q 346 779 346 731 q 288 832 346 832 q 221 814 250 832 q 176 764 192 796 q 144 781 157 764 q 131 824 131 799 q 192 912 131 879 q 331 944 254 944 z "},"³":{"ha":447,"x_min":64,"x_max":468,"o":"m 203 708 q 318 786 318 729 q 302 821 318 808 q 258 833 286 833 q 156 785 204 833 q 135 798 142 786 q 128 828 128 810 q 190 915 128 885 q 322 946 251 946 q 428 918 388 946 q 468 838 468 890 q 435 751 468 789 q 342 692 401 714 q 418 648 390 681 q 446 565 446 615 q 383 440 446 490 q 214 390 319 390 q 103 415 142 390 q 64 482 64 439 q 73 519 64 503 q 94 547 82 536 q 200 492 126 492 q 263 511 240 492 q 286 567 286 531 q 189 638 286 638 l 203 708 z "},"⁄":{"ha":400,"x_min":-78,"x_max":490,"o":"m 29 -122 q -14 -126 17 -126 q -78 -86 -78 -126 q -69 -51 -78 -72 l 385 997 q 422 1000 404 1000 q 474 991 458 1000 q 490 958 490 982 q 478 906 490 936 l 29 -122 z "},"½":{"ha":1121,"x_min":71,"x_max":1050,"o":"m 728 997 q 765 1000 747 1000 q 817 991 801 1000 q 833 958 833 982 q 821 906 833 936 l 372 -122 q 329 -126 360 -126 q 265 -86 265 -126 q 274 -51 265 -72 l 728 997 m 329 490 l 350 490 q 417 499 392 490 q 428 453 428 481 q 406 405 428 419 q 333 390 383 390 l 258 393 q 132 396 175 396 q 75 392 92 396 q 71 421 71 407 q 87 471 71 451 q 132 490 103 490 l 174 490 l 239 790 q 208 772 226 778 q 174 767 190 767 q 121 790 139 767 q 99 844 103 814 q 227 878 160 854 q 385 943 294 901 l 408 913 l 329 490 m 846 279 q 900 372 900 324 q 842 426 900 426 q 774 407 804 426 q 731 357 744 388 q 698 375 711 358 q 685 417 685 392 q 747 505 685 472 q 885 538 808 538 q 1003 505 956 538 q 1050 404 1050 472 q 1025 319 1050 357 q 949 243 1000 281 q 793 140 900 207 q 924 128 856 128 q 1008 151 985 128 q 1029 89 1029 122 q 894 -10 1029 -10 q 782 3 857 -10 q 713 13 736 13 q 669 0 682 13 q 651 30 658 10 q 643 72 643 50 q 657 119 643 99 q 699 163 671 140 l 846 279 z "},"⅓":{"ha":1142,"x_min":71,"x_max":1090,"o":"m 728 997 q 765 1000 747 1000 q 817 991 801 1000 q 833 958 833 982 q 821 906 833 936 l 372 -122 q 329 -126 360 -126 q 265 -86 265 -126 q 274 -51 265 -72 l 728 997 m 329 490 l 350 490 q 417 499 392 490 q 428 453 428 481 q 406 405 428 419 q 333 390 383 390 l 258 393 q 132 396 175 396 q 75 392 92 396 q 71 421 71 407 q 87 471 71 451 q 132 490 103 490 l 174 490 l 239 790 q 208 772 226 778 q 174 767 190 767 q 121 790 139 767 q 99 844 103 814 q 227 878 160 854 q 385 943 294 901 l 408 913 l 329 490 m 822 308 q 939 386 939 328 q 922 422 939 408 q 878 435 906 435 q 775 385 824 435 q 747 428 747 390 q 810 517 747 486 q 943 547 872 547 q 1049 519 1008 547 q 1090 439 1090 492 q 1056 351 1090 390 q 963 292 1022 313 q 1042 244 1015 278 q 1068 164 1068 211 q 1040 73 1068 114 q 958 8 1011 32 q 833 -15 904 -15 q 722 10 761 -15 q 682 78 682 35 q 690 117 682 99 q 714 146 699 135 q 758 102 729 117 q 819 88 786 88 q 883 108 860 88 q 906 164 906 128 q 808 236 906 236 l 822 308 z "},"⅔":{"ha":1142,"x_min":57,"x_max":1108,"o":"m 749 997 q 786 1000 768 1000 q 838 991 822 1000 q 854 958 854 982 q 842 906 854 936 l 393 -122 q 350 -126 381 -126 q 286 -86 286 -126 q 294 -51 286 -72 l 749 997 m 260 682 q 314 775 314 726 q 256 829 314 829 q 188 810 218 829 q 144 760 158 790 q 112 778 125 761 q 99 819 99 794 q 160 908 99 875 q 299 940 222 940 q 417 908 369 940 q 464 807 464 875 q 439 722 464 760 q 363 646 414 683 q 207 543 314 610 q 338 531 269 531 q 422 554 399 531 q 443 492 443 525 q 308 393 443 393 q 196 406 271 393 q 126 415 150 415 q 83 403 96 415 q 65 433 72 413 q 57 475 57 453 q 71 522 57 501 q 113 565 85 543 l 260 682 m 840 308 q 957 386 957 328 q 940 422 957 408 q 896 435 924 435 q 793 385 842 435 q 765 428 765 390 q 828 517 765 486 q 961 547 890 547 q 1067 519 1026 547 q 1108 439 1108 492 q 1074 352 1108 390 q 981 292 1040 314 q 1060 244 1033 278 q 1086 164 1086 211 q 1058 73 1086 114 q 976 8 1029 32 q 851 -15 922 -15 q 740 10 779 -15 q 700 78 700 35 q 708 117 700 99 q 732 146 717 135 q 776 102 747 117 q 838 88 804 88 q 901 108 878 88 q 925 164 925 128 q 826 236 925 236 l 840 308 z "},"¼":{"ha":1118,"x_min":71,"x_max":1047,"o":"m 728 997 q 765 1000 747 1000 q 817 991 801 1000 q 833 958 833 982 q 821 906 833 936 l 372 -122 q 329 -126 360 -126 q 265 -86 265 -126 q 274 -51 265 -72 l 728 997 m 329 490 l 350 490 q 417 499 392 490 q 428 453 428 481 q 406 405 428 419 q 333 390 383 390 l 258 393 q 132 396 175 396 q 75 392 92 396 q 71 421 71 407 q 87 471 71 451 q 132 490 103 490 l 174 490 l 239 790 q 208 772 226 778 q 174 767 190 767 q 121 790 139 767 q 99 844 103 814 q 227 878 160 854 q 385 943 294 901 l 408 913 l 329 490 m 1029 528 q 961 204 988 356 q 1032 224 1010 210 q 1047 168 1047 199 q 942 93 1047 101 l 928 0 q 871 -17 907 -17 q 799 40 799 -17 q 801 68 799 51 l 806 96 q 624 122 711 100 l 619 213 l 914 539 l 1029 528 m 707 210 q 825 203 769 203 q 879 407 850 319 l 707 210 z "},"¾":{"ha":1122,"x_min":43,"x_max":1051,"o":"m 732 997 q 769 1000 751 1000 q 822 991 806 1000 q 838 958 838 982 q 825 906 838 936 l 376 -122 q 333 -126 364 -126 q 269 -86 269 -126 q 278 -51 269 -72 l 732 997 m 183 701 q 300 779 300 721 q 283 815 300 801 q 239 828 267 828 q 136 778 185 828 q 108 821 108 783 q 171 910 108 879 q 304 940 233 940 q 410 913 369 940 q 451 832 451 885 q 417 744 451 783 q 324 685 383 706 q 403 638 376 671 q 429 557 429 604 q 401 466 429 507 q 319 401 372 425 q 194 378 265 378 q 83 403 122 378 q 43 471 43 428 q 51 510 43 492 q 75 539 60 528 q 119 495 90 510 q 181 481 147 481 q 244 501 221 481 q 267 557 267 521 q 169 629 267 629 l 183 701 m 1033 528 q 965 204 992 356 q 1036 224 1014 210 q 1051 168 1051 199 q 946 93 1051 101 l 932 0 q 875 -17 911 -17 q 803 40 803 -17 q 806 68 803 51 l 810 96 q 628 122 715 100 l 624 213 l 918 539 l 1033 528 m 711 210 q 829 203 774 203 q 883 407 854 319 l 711 210 z "},"⅛":{"ha":1139,"x_min":71,"x_max":1086,"o":"m 728 997 q 765 1000 747 1000 q 817 991 801 1000 q 833 958 833 982 q 821 906 833 936 l 372 -122 q 329 -126 360 -126 q 265 -86 265 -126 q 274 -51 265 -72 l 728 997 m 329 490 l 350 490 q 417 499 392 490 q 428 453 428 481 q 406 405 428 419 q 333 390 383 390 l 258 393 q 132 396 175 396 q 75 392 92 396 q 71 421 71 407 q 87 471 71 451 q 132 490 103 490 l 174 490 l 239 790 q 208 772 226 778 q 174 767 190 767 q 121 790 139 767 q 99 844 103 814 q 227 878 160 854 q 385 943 294 901 l 408 913 l 329 490 m 1061 168 q 1031 74 1061 117 q 947 7 1000 32 q 829 -18 893 -18 q 707 14 756 -18 q 658 108 658 46 q 778 258 658 201 q 738 305 750 281 q 725 360 725 329 q 754 450 725 408 q 835 515 783 492 q 947 539 886 539 q 1047 513 1008 539 q 1086 433 1086 488 q 1055 350 1086 385 q 975 293 1024 315 q 1044 227 1026 251 q 1061 168 1061 203 m 926 332 q 971 406 971 360 q 958 444 971 429 q 921 460 946 460 q 878 446 896 460 q 861 408 861 432 q 885 364 861 381 l 926 332 m 825 215 q 785 129 785 183 q 798 82 785 99 q 836 65 811 65 q 881 83 864 65 q 899 126 899 101 q 876 171 899 151 l 825 215 z "},"*":{"ha":558,"x_min":72,"x_max":613,"o":"m 565 804 q 607 738 597 774 q 613 703 613 721 q 564 642 613 658 q 492 633 532 633 q 425 638 461 633 l 513 501 q 461 440 493 465 q 411 421 433 421 q 357 453 379 421 q 308 589 325 496 l 203 460 q 129 490 156 469 q 92 549 92 518 q 108 593 92 569 q 221 679 140 636 l 74 738 q 72 764 72 746 q 79 817 72 789 q 142 874 99 874 q 286 790 197 874 l 296 949 q 374 968 335 968 q 450 897 450 968 q 413 765 450 843 l 565 804 z "},"\\":{"ha":443,"x_min":85,"x_max":358,"o":"m 149 950 q 165 1053 153 1019 q 208 1101 176 1086 q 304 1115 240 1115 q 358 1111 346 1115 l 294 -146 q 260 -249 290 -219 q 153 -278 229 -278 q 108 -276 131 -278 q 85 -272 86 -274 l 149 950 z "},"·":{"ha":354,"x_min":50,"x_max":335,"o":"m 197 433 q 297 406 260 433 q 335 328 335 378 q 294 250 335 278 q 192 222 254 222 q 89 249 128 222 q 50 325 50 276 q 92 405 50 376 q 197 433 133 433 z "},"•":{"ha":457,"x_min":44,"x_max":393,"o":"m 393 361 q 344 253 393 292 q 215 214 294 214 q 91 251 138 214 q 44 356 44 289 q 94 465 44 425 q 224 504 144 504 q 347 466 300 504 q 393 361 393 428 z "},":":{"ha":378,"x_min":15,"x_max":397,"o":"m 15 0 m 260 735 q 360 707 322 735 q 397 629 397 679 q 357 551 397 579 q 254 524 317 524 q 151 551 190 524 q 113 626 113 578 q 154 706 113 678 q 260 735 196 735 m 163 183 q 263 156 225 183 q 300 78 300 128 q 260 0 300 28 q 157 -28 219 -28 q 54 -1 93 -28 q 15 75 15 26 q 57 155 15 126 q 163 183 99 183 z "},",":{"ha":308,"x_min":-110,"x_max":224,"o":"m 224 64 q 186 -60 224 -1 q 85 -153 149 -118 q -49 -187 22 -187 q -110 -179 -76 -187 q -3 75 -3 -64 q -18 167 -3 125 q 31 185 -1 178 q 94 193 64 193 q 188 160 153 193 q 224 64 224 126 z "},"…":{"ha":971,"x_min":19,"x_max":929,"o":"m 19 0 m 792 183 q 892 156 854 183 q 929 78 929 128 q 889 0 929 28 q 786 -28 849 -28 q 683 -1 722 -28 q 644 75 644 26 q 686 155 644 126 q 792 183 728 183 m 167 183 q 267 156 229 183 q 304 78 304 128 q 264 0 304 28 q 161 -28 224 -28 q 58 -1 97 -28 q 19 75 19 26 q 61 155 19 126 q 167 183 103 183 m 482 183 q 582 156 544 183 q 619 78 619 128 q 579 0 619 28 q 476 -28 539 -28 q 374 -1 413 -28 q 335 75 335 26 q 376 155 335 126 q 482 183 418 183 z "},"!":{"ha":460,"x_min":44,"x_max":451,"o":"m 215 925 q 319 944 267 944 q 417 908 383 944 q 451 807 451 872 q 435 704 451 758 q 383 567 418 650 q 327 414 347 478 q 306 286 307 350 q 214 250 275 250 q 133 276 163 250 q 104 346 104 303 q 105 356 104 353 q 107 367 106 360 l 215 925 m 192 183 q 292 156 254 183 q 329 78 329 128 q 289 0 329 28 q 186 -28 249 -28 q 83 -1 122 -28 q 44 75 44 26 q 86 155 44 126 q 192 183 128 183 z "},"¡":{"ha":432,"x_min":-26,"x_max":431,"o":"m 293 736 q 393 708 356 736 q 431 631 431 681 q 390 553 431 581 q 288 525 350 525 q 185 552 224 525 q 146 628 146 579 q 188 708 146 679 q 293 736 229 736 m 210 -218 q 107 -237 161 -237 q 8 -201 42 -237 q -26 -100 -26 -165 q -10 3 -26 -51 q 42 140 7 57 q 98 293 78 229 q 119 421 118 357 q 211 457 150 457 q 293 431 264 457 q 322 361 322 404 q 321 351 322 356 q 318 340 319 347 l 210 -218 z "},"#":{"ha":794,"x_min":-7,"x_max":811,"o":"m 760 365 q 768 308 768 335 q 742 226 768 251 q 665 200 717 200 l 594 200 l 571 85 q 533 23 563 46 q 464 0 504 0 q 393 17 429 0 l 429 200 l 289 200 l 265 85 q 228 23 257 46 q 158 0 199 0 q 88 17 124 0 l 124 200 l 1 200 q -7 256 -7 232 q 19 340 -7 314 q 96 365 46 365 l 156 365 l 185 522 l 43 522 q 35 578 35 554 q 62 659 35 631 q 139 688 89 688 l 218 688 l 246 832 q 354 917 263 917 q 425 900 386 917 l 383 688 l 524 688 l 553 832 q 660 917 569 917 q 728 900 693 917 l 690 688 l 804 688 q 811 631 811 656 q 785 550 811 578 q 708 522 758 522 l 656 522 l 626 365 l 760 365 m 461 365 l 490 522 l 350 522 l 321 365 l 461 365 z "},".":{"ha":335,"x_min":-17,"x_max":268,"o":"m 131 183 q 231 156 193 183 q 268 78 268 128 q 228 0 268 28 q 125 -28 188 -28 q 22 -1 61 -28 q -17 75 -17 26 q 25 155 -17 126 q 131 183 67 183 z "},"?":{"ha":690,"x_min":68,"x_max":732,"o":"m 732 771 q 691 645 732 703 q 593 546 650 588 q 440 444 536 504 q 286 340 336 382 q 236 249 236 297 q 169 283 196 249 q 143 371 143 318 q 167 463 143 422 q 227 532 192 503 q 319 597 263 561 q 406 659 375 635 q 458 718 436 683 q 479 796 479 753 q 415 861 479 861 q 328 824 361 861 q 296 728 296 786 q 308 665 296 692 q 224 657 276 657 q 112 681 156 657 q 68 764 68 706 q 178 901 68 858 q 428 944 289 944 q 650 903 568 944 q 732 771 732 863 m 228 183 q 328 156 290 183 q 365 78 365 128 q 325 0 365 28 q 222 -28 285 -28 q 119 -1 158 -28 q 81 75 81 26 q 122 155 81 126 q 228 183 164 183 z "},"¿":{"ha":690,"x_min":-42,"x_max":663,"o":"m 525 736 q 625 708 588 736 q 663 631 663 681 q 622 553 663 581 q 519 525 582 525 q 417 552 456 525 q 378 628 378 579 q 419 708 378 679 q 525 736 461 736 m -42 -62 q -1 63 -42 6 q 97 163 40 121 q 250 264 154 204 q 404 369 354 326 q 454 460 454 411 q 521 425 494 460 q 547 338 547 390 q 523 246 547 286 q 465 178 499 206 q 372 111 431 150 q 251 17 292 60 q 211 -87 211 -25 q 275 -153 211 -153 q 362 -115 329 -153 q 394 -19 394 -78 q 382 43 394 17 q 467 51 414 51 q 578 27 535 51 q 622 -56 622 3 q 512 -193 622 -150 q 263 -236 401 -236 q 40 -195 122 -236 q -42 -62 -42 -154 z "},"\"":{"ha":600,"x_min":58,"x_max":606,"o":"m 58 640 q 97 822 82 724 q 113 1006 111 919 q 192 1014 163 1014 q 282 984 249 1014 q 315 901 315 954 q 281 760 315 844 q 206 640 246 675 l 58 640 m 347 640 q 385 822 371 724 q 401 1006 400 919 q 481 1014 451 1014 q 572 984 539 1014 q 606 901 606 954 q 570 760 606 844 q 494 640 535 675 l 347 640 z "},"'":{"ha":268,"x_min":79,"x_max":336,"o":"m 79 640 q 117 822 103 724 q 133 1006 132 919 q 211 1014 181 1014 q 303 984 269 1014 q 336 901 336 954 q 301 760 336 844 q 225 640 265 675 l 79 640 z "},";":{"ha":406,"x_min":-56,"x_max":425,"o":"m 0 0 m 288 735 q 388 707 350 735 q 425 629 425 679 q 385 551 425 579 q 282 524 344 524 q 179 551 218 524 q 140 626 140 578 q 182 706 140 678 q 288 735 224 735 m 278 64 q 240 -60 278 -1 q 140 -153 203 -118 q 6 -187 76 -187 q -56 -179 -22 -187 q 51 75 51 -64 q 36 167 51 125 q 85 185 53 178 q 149 193 118 193 q 242 160 207 193 q 278 64 278 126 z "},"/":{"ha":433,"x_min":-108,"x_max":542,"o":"m 78 -272 q 49 -276 72 -274 q 4 -278 26 -278 q -81 -260 -54 -278 q -108 -207 -108 -243 q -96 -146 -108 -182 l 358 1108 q 418 1113 383 1113 q 513 1098 485 1113 q 542 1046 542 1083 q 519 947 542 1014 l 78 -272 z "},"_":{"ha":697,"x_min":-54,"x_max":640,"o":"m 633 -54 q 640 -96 640 -78 q 610 -168 640 -140 q 525 -196 581 -196 l -49 -196 q -54 -158 -54 -178 q -25 -83 -54 -112 q 49 -54 4 -54 l 633 -54 z "},"{":{"ha":515,"x_min":43,"x_max":667,"o":"m 528 1111 q 667 1100 600 1111 l 651 1019 l 611 1019 q 520 989 553 1019 q 476 892 488 958 l 421 582 q 369 481 408 514 q 251 439 329 449 q 344 409 317 431 q 371 340 371 388 q 364 276 371 311 l 307 -12 q 297 -90 297 -58 q 319 -160 297 -136 q 385 -185 342 -185 l 426 -185 l 410 -267 q 267 -278 328 -278 q 75 -161 75 -278 q 83 -93 75 -135 l 147 233 q 154 294 154 265 q 126 359 154 336 q 43 382 99 382 l 63 482 q 169 515 131 482 q 219 618 207 549 l 279 947 q 354 1074 296 1036 q 528 1111 413 1111 z "},"}":{"ha":515,"x_min":-136,"x_max":496,"o":"m -79 -186 q 11 -156 -21 -186 q 56 -58 43 -125 l 118 283 q 170 384 131 351 q 288 426 210 417 q 194 457 221 435 q 168 524 168 479 q 176 589 168 550 l 228 860 q 235 919 235 893 q 146 1018 235 1018 l 104 1018 l 121 1100 q 264 1111 204 1111 q 450 982 450 1111 q 438 891 450 958 q 392 632 426 824 q 385 571 385 600 q 496 483 388 483 l 476 383 q 370 350 408 383 q 319 247 332 317 l 251 -114 q 176 -240 235 -203 q 4 -278 118 -278 q -136 -267 -69 -278 l -121 -186 l -79 -186 z "},"[":{"ha":515,"x_min":28,"x_max":682,"o":"m 682 1111 q 549 1019 665 1019 l 479 1019 l 254 -185 l 296 -185 q 385 -201 358 -185 q 413 -257 413 -218 q 411 -278 413 -272 l 28 -278 l 289 1111 l 682 1111 z "},"]":{"ha":515,"x_min":-157,"x_max":492,"o":"m 267 1018 l 211 1018 q 128 1035 151 1018 q 104 1093 104 1051 q 106 1111 104 1106 l 492 1111 l 231 -278 l -157 -278 q -118 -208 -149 -231 q -29 -186 -87 -186 l 42 -186 l 267 1018 z "},"(":{"ha":515,"x_min":92,"x_max":668,"o":"m 668 1083 q 392 693 482 958 q 301 101 301 428 q 306 -50 301 1 q 332 -149 311 -101 q 401 -250 353 -197 q 351 -278 393 -278 q 224 -208 283 -278 q 128 -19 164 -137 q 92 239 92 100 q 167 647 92 443 q 360 981 242 850 q 599 1111 479 1111 q 668 1083 649 1111 z "},")":{"ha":515,"x_min":-150,"x_max":422,"o":"m 114 1083 q 131 1103 117 1094 q 168 1111 146 1111 q 292 1040 233 1111 q 387 849 351 968 q 422 592 422 729 q 347 187 422 390 q 153 -147 271 -17 q -85 -278 35 -278 q -150 -250 -135 -278 q 54 -25 -28 -169 q 176 293 136 119 q 215 640 215 467 q 194 907 215 797 q 114 1083 174 1017 z "},"—":{"ha":1390,"x_min":1,"x_max":1389,"o":"m 1382 406 q 1389 364 1389 382 q 1358 290 1389 317 q 1274 264 1326 264 l 7 264 q 1 303 1 282 q 29 378 1 350 q 104 406 57 406 l 1382 406 z "},"–":{"ha":696,"x_min":1,"x_max":694,"o":"m 688 406 q 694 360 694 381 q 663 290 693 317 q 579 264 633 264 l 7 264 q 1 301 1 282 q 31 377 1 349 q 104 406 60 406 l 688 406 z "},"-":{"ha":472,"x_min":15,"x_max":457,"o":"m 356 410 q 415 438 401 410 q 447 401 436 426 q 457 349 457 375 q 433 284 457 308 q 368 260 408 260 l 128 260 q 85 251 100 260 q 60 225 71 243 q 26 267 38 240 q 15 322 15 293 q 36 385 15 361 q 96 410 57 410 l 356 410 z "},"­":{"ha":472,"x_min":15,"x_max":457,"o":"m 356 410 q 415 438 401 410 q 447 401 436 426 q 457 349 457 375 q 433 284 457 308 q 368 260 408 260 l 128 260 q 85 251 100 260 q 60 225 71 243 q 26 267 38 240 q 15 322 15 293 q 36 385 15 361 q 96 410 57 410 l 356 410 z "},"«":{"ha":746,"x_min":29,"x_max":744,"o":"m 261 708 l 428 708 l 257 440 l 324 175 l 161 175 l 29 440 l 261 708 m 579 708 l 744 708 l 574 440 l 640 175 l 479 175 l 347 440 l 579 708 z "},"»":{"ha":749,"x_min":-12,"x_max":697,"o":"m 381 440 l 150 175 l -12 175 l 153 440 l 82 708 l 249 708 l 381 440 m 697 440 l 467 175 l 306 175 l 471 440 l 400 708 l 565 708 l 697 440 z "},"‹":{"ha":428,"x_min":29,"x_max":426,"o":"m 261 708 l 426 708 l 256 440 l 322 175 l 161 175 l 29 440 l 261 708 z "},"›":{"ha":431,"x_min":-12,"x_max":381,"o":"m 381 440 l 150 175 l -12 175 l 153 440 l 82 708 l 249 708 l 381 440 z "},"„":{"ha":742,"x_min":-43,"x_max":619,"o":"m 289 57 q 253 -65 289 -8 q 155 -156 217 -122 q 21 -189 93 -189 q -43 -181 -10 -189 q 64 74 64 -65 q 49 165 64 124 q 98 184 65 176 q 160 192 131 192 q 253 156 218 192 q 289 57 289 121 m 619 57 q 583 -65 619 -8 q 485 -156 547 -122 q 350 -189 424 -189 q 286 -181 319 -189 q 393 74 393 -65 q 378 165 393 124 q 427 184 394 176 q 489 192 460 192 q 584 156 549 192 q 619 57 619 121 z "},"“":{"ha":660,"x_min":81,"x_max":742,"o":"m 81 771 q 116 892 81 836 q 213 982 151 949 q 349 1015 275 1015 q 413 1007 379 1015 q 306 753 306 892 q 321 661 306 703 q 272 642 304 650 q 210 635 239 635 q 115 670 150 635 q 81 771 81 706 m 410 769 q 446 892 410 835 q 544 982 482 949 q 678 1015 606 1015 q 742 1007 708 1015 q 635 753 635 890 q 650 661 635 703 q 601 642 633 650 q 540 635 569 635 q 445 670 481 635 q 410 769 410 706 z "},"”":{"ha":685,"x_min":58,"x_max":721,"o":"m 150 989 q 199 1008 167 1000 q 261 1015 232 1015 q 357 980 322 1015 q 392 879 392 944 q 356 756 392 813 q 258 667 319 700 q 122 635 196 635 q 58 643 92 635 q 165 897 165 758 q 150 989 165 947 m 481 989 q 529 1008 497 1000 q 590 1015 561 1015 q 685 980 650 1015 q 721 881 721 944 q 685 758 721 815 q 587 668 649 701 q 453 635 525 635 q 389 643 422 635 q 496 897 496 760 q 481 989 496 947 z "},"‘":{"ha":358,"x_min":107,"x_max":439,"o":"m 439 1006 q 333 751 333 890 q 349 660 333 701 q 299 641 332 649 q 238 633 267 633 q 142 668 178 633 q 107 768 107 703 q 143 891 107 835 q 241 981 179 947 q 376 1014 303 1014 q 439 1006 406 1014 z "},"’":{"ha":426,"x_min":78,"x_max":410,"o":"m 169 989 q 219 1008 186 1000 q 281 1015 251 1015 q 374 980 339 1015 q 410 879 410 944 q 374 758 410 814 q 276 668 338 701 q 142 635 215 635 q 78 643 111 635 q 185 897 185 758 q 169 989 185 947 z "},"‚":{"ha":356,"x_min":-71,"x_max":261,"o":"m 21 165 q 71 184 38 176 q 135 192 104 192 q 227 160 193 192 q 261 64 261 128 q 225 -60 261 -3 q 127 -153 189 -118 q -8 -189 65 -189 q -71 -181 -37 -189 q 36 74 36 -65 q 21 165 36 124 z "}," ":{"ha":1111,"x_min":0,"x_max":0,"o":""}," ":{"ha":556,"x_min":0,"x_max":0,"o":""}," ":{"ha":278,"x_min":0,"x_max":0,"o":""}," ":{"ha":243,"x_min":0,"x_max":0,"o":""}," ":{"ha":371,"x_min":0,"x_max":0,"o":""},"¢":{"ha":794,"x_min":81,"x_max":764,"o":"m 597 822 q 718 776 672 814 q 764 674 764 739 q 716 571 764 606 q 597 536 668 536 q 535 547 554 536 q 553 615 546 575 q 560 686 560 656 q 551 728 560 714 q 519 743 543 743 q 428 676 468 743 q 365 519 388 610 q 343 363 343 428 q 368 269 343 301 q 451 236 393 236 q 557 266 507 236 q 628 347 607 296 q 668 313 656 332 q 681 264 681 294 q 612 133 681 185 q 453 67 543 82 l 447 36 q 415 -47 436 -25 q 349 -68 394 -68 q 289 -61 314 -68 l 314 65 q 138 156 194 83 q 81 364 81 229 q 126 584 81 486 q 258 743 172 682 q 463 819 344 804 l 468 850 q 499 933 479 911 q 564 954 519 954 q 622 947 594 954 l 597 822 z "},"¤":{"ha":794,"x_min":64,"x_max":750,"o":"m 674 494 q 636 338 674 400 l 749 239 l 667 142 l 551 254 q 382 217 483 217 q 254 235 304 217 l 153 133 l 64 224 l 165 314 q 144 431 144 360 q 194 606 144 536 l 88 701 l 163 804 l 285 683 q 431 715 351 715 q 550 699 500 715 l 661 807 l 750 717 l 646 624 q 674 494 674 572 m 399 351 q 474 385 449 351 q 500 472 500 419 q 477 551 500 524 q 415 579 454 579 q 344 544 371 579 q 318 450 318 508 q 399 351 318 351 z "},"$":{"ha":794,"x_min":-3,"x_max":807,"o":"m 639 617 q 560 631 597 617 q 581 736 581 674 q 500 842 581 842 q 404 801 446 842 q 363 707 363 760 q 401 624 363 657 q 518 547 439 590 q 545 533 533 539 q 565 521 557 526 q 686 424 642 476 q 731 292 731 372 q 633 89 731 171 q 383 -18 535 7 l 376 -58 q 345 -140 367 -118 q 278 -162 324 -162 q 218 -156 243 -162 l 242 -28 q 68 14 139 -24 q -3 143 -3 51 q 40 255 -3 211 q 158 299 83 299 q 257 281 208 299 q 235 163 235 226 q 252 90 235 114 q 314 65 269 65 q 409 97 368 65 q 450 178 450 128 q 410 265 450 229 q 292 346 371 300 q 273 356 283 350 q 251 369 263 363 q 131 470 175 415 q 88 608 88 525 q 182 814 88 731 q 431 921 276 897 l 438 958 q 469 1041 449 1019 q 532 1063 489 1063 q 592 1056 561 1063 l 565 928 q 738 885 669 922 q 807 764 807 847 q 757 655 807 693 q 639 617 707 617 z "},"€":{"ha":794,"x_min":-18,"x_max":872,"o":"m 689 599 q 626 608 654 599 q 636 713 636 657 q 622 791 636 761 q 561 821 607 821 q 461 752 506 821 q 389 579 417 683 l 576 579 q 585 540 585 558 q 557 492 585 508 q 479 475 529 475 l 368 475 q 360 394 360 432 l 540 394 q 549 356 549 374 q 521 307 549 324 q 443 290 493 290 l 365 290 q 413 205 376 232 q 519 178 449 178 q 647 204 589 178 q 743 279 706 231 q 770 239 763 264 q 778 190 778 214 q 732 82 778 132 q 603 2 686 32 q 414 -28 521 -28 q 174 50 254 -28 q 82 290 93 128 l -11 290 q -18 328 -18 308 q 7 377 -18 360 q 75 394 32 394 l 82 394 q 92 475 83 422 l 25 475 q 18 513 18 493 q 43 562 18 544 q 111 579 68 579 l 118 579 q 296 826 172 735 q 601 917 419 917 q 795 883 718 917 q 872 767 872 850 q 818 646 872 693 q 689 599 764 599 z "},"ƒ":{"ha":794,"x_min":-186,"x_max":901,"o":"m 408 -40 q 61 -250 368 -250 q -113 -225 -40 -250 q -186 -135 -186 -200 q -147 -63 -186 -87 q -51 -39 -107 -39 q 31 -56 -3 -39 q 17 -96 22 -71 q 11 -140 11 -121 q 50 -189 11 -189 q 106 -154 86 -189 q 139 -53 126 -119 l 240 475 l 100 475 q 93 513 93 496 q 118 562 93 544 q 186 579 143 579 l 260 579 l 307 789 q 422 950 333 901 q 654 999 511 999 q 828 974 756 999 q 901 883 901 949 q 862 812 901 836 q 767 788 822 788 q 685 804 718 788 q 699 844 693 819 q 704 889 704 869 q 665 938 704 938 q 610 904 629 938 q 575 801 590 871 l 526 579 l 736 579 q 744 540 744 558 q 717 492 744 508 q 639 475 689 475 l 506 475 l 408 -40 z "}}}
